<?xml version="1.0" encoding="utf-8"?>
<!-- Generator: Adobe Illustrator 18.1.0, SVG Export Plug-In . SVG Version: 6.00 Build 0)  -->
<svg version="1.1" xmlns="http://www.w3.org/2000/svg" xmlns:xlink="http://www.w3.org/1999/xlink" x="0px" y="0px"
	 viewBox="100.6 278.7 412.7 231.2" enable-background="new 100.6 278.7 412.7 231.2" xml:space="preserve">
<g id="Layer_1">
	<g id="Layer_1_1_">
		<polygon fill="#C49A6C" points="386.9,509.9 103,506.4 102.6,278.7 386.9,278.7 		"/>
		<polygon fill="#D5A65F" points="386.9,278.7 386.9,509.9 439.7,508.1 387.7,278.7 		"/>
		<polygon fill="#D5A65F" points="387.7,278.7 439.7,508.1 478.2,506.8 426.6,278.7 		"/>
		<polygon fill="#D5A65F" points="512,278.7 504.6,278.7 512,311.4 		"/>
		<polygon fill="#D5A65F" points="504.6,278.7 465.7,278.7 511.9,482.8 512,311.4 		"/>
		<polygon fill="#D5A65F" points="426.6,278.7 478.2,506.8 511.9,505.6 511.9,482.8 465.7,278.7 		"/>
	</g>
	<g id="Layer_2">
		<g>
			<g>
				
					<linearGradient id="SVGID_1_" gradientUnits="userSpaceOnUse" x1="326.3378" y1="638.5003" x2="326.3378" y2="547.7297" gradientTransform="matrix(0.7071 0 0 -0.7071 0 805.7593)">
					<stop  offset="0" style="stop-color:#790410"/>
					<stop  offset="1" style="stop-color:#BE1E2D"/>
				</linearGradient>
				<polygon fill="url(#SVGID_1_)" points="246.7,329.9 214.8,342.1 214.8,505.7 246.7,493.6 				"/>
				
					<linearGradient id="SVGID_2_" gradientUnits="userSpaceOnUse" x1="364.7892" y1="563.4471" x2="393.8317" y2="492.6559" gradientTransform="matrix(0.7071 0 0 -0.7071 0 805.7593)">
					<stop  offset="0" style="stop-color:#F15A29"/>
					<stop  offset="1" style="stop-color:#C74A20"/>
				</linearGradient>
				<polygon fill="url(#SVGID_2_)" points="246.7,329.9 214.8,342.1 269.7,486 301.6,473.8 				"/>
				
					<linearGradient id="SVGID_3_" gradientUnits="userSpaceOnUse" x1="437.9271" y1="553.269" x2="420.9848" y2="508.0896" gradientTransform="matrix(0.7071 0 0 -0.7071 0 805.7593)">
					<stop  offset="0" style="stop-color:#790410"/>
					<stop  offset="1" style="stop-color:#BE1E2D"/>
				</linearGradient>
				<polygon fill="url(#SVGID_3_)" points="301.6,473.8 269.7,486 298.6,406.2 330.5,394 				"/>
				
					<linearGradient id="SVGID_4_" gradientUnits="userSpaceOnUse" x1="459.6304" y1="519.8614" x2="474.1517" y2="451.4904" gradientTransform="matrix(0.7071 0 0 -0.7071 0 805.7593)">
					<stop  offset="0" style="stop-color:#F15A29"/>
					<stop  offset="1" style="stop-color:#C74A20"/>
				</linearGradient>
				<polygon fill="url(#SVGID_4_)" points="356.3,493.6 324.4,505.7 298.6,406.2 330.5,394 				"/>
			</g>
			<polygon fill="#999999" points="246.7,493.6 214.8,505.7 218.2,507.7 271.5,508.5 			"/>
			<polygon fill="#999999" points="356.3,493.6 324.4,505.7 330.5,509.2 384,509.9 			"/>
		</g>
		
			<linearGradient id="SVGID_5_" gradientUnits="userSpaceOnUse" x1="611.874" y1="584.9373" x2="662.2092" y2="462.2451" gradientTransform="matrix(0.7071 0 0 -0.7071 0 805.7593)">
			<stop  offset="0" style="stop-color:#F15A29"/>
			<stop  offset="1" style="stop-color:#C74A20"/>
		</linearGradient>
		<polygon fill="url(#SVGID_5_)" points="387.7,278.7 439.7,508.1 478.2,506.8 426.6,278.7 		"/>
		
			<linearGradient id="SVGID_6_" gradientUnits="userSpaceOnUse" x1="714.2533" y1="612.2722" x2="764.5884" y2="489.5802" gradientTransform="matrix(0.7071 0 0 -0.7071 0 805.7593)">
			<stop  offset="0" style="stop-color:#F15A29"/>
			<stop  offset="1" style="stop-color:#C74A20"/>
		</linearGradient>
		<polygon fill="url(#SVGID_6_)" points="504.6,278.7 465.7,278.7 511.9,482.8 512,311.4 		"/>
	</g>
</g>
<g id="Layer_2_1_" display="none">
	<g id="Layer_3" display="inline">
		<polygon fill="#B68E51" points="381.8,278.7 100.6,278.7 100.6,241.2 381.8,239.1 		"/>
		<polygon fill="#D6AF6F" points="513.4,278.7 381.8,278.7 381.8,239.1 513.4,241.9 		"/>
		<polygon fill="#B58F64" points="386.9,280.4 386.9,278.7 102.6,278.7 102.6,280.4 		"/>
		<polygon opacity="0.65" fill="#CC9F5B" enable-background="new    " points="512,280.4 512,278.7 386.9,278.7 386.9,280.4 		"/>
	</g>
</g>
</svg>
