<?xml version="1.0" encoding="utf-8"?>
<!-- Generator: Adobe Illustrator 18.1.0, SVG Export Plug-In . SVG Version: 6.00 Build 0)  -->
<svg version="1.1" id="Layer_1" xmlns="http://www.w3.org/2000/svg" xmlns:xlink="http://www.w3.org/1999/xlink" x="0px" y="0px"
	 viewBox="0 0 595.3 57.1" enable-background="new 0 0 595.3 57.1" xml:space="preserve">
<g id="Layer_1_2_" display="none">
	<g id="Layer_1_1_" display="inline">
		<polygon fill="#C49A6C" points="513.6,855.3 104.1,850.3 103.5,521.9 513.6,521.9 		"/>
		<polygon fill="#D5A65F" points="513.6,521.9 513.6,855.3 589.7,852.8 514.7,521.9 		"/>
		<polygon fill="#D5A65F" points="514.7,521.9 589.7,852.8 645.3,850.9 570.8,521.9 		"/>
		<polygon fill="#D5A65F" points="694,521.9 683.3,521.9 694,569 		"/>
		<polygon fill="#D5A65F" points="683.3,521.9 627.2,521.9 693.9,816.3 694,569 		"/>
		<polygon fill="#D5A65F" points="570.8,521.9 645.3,850.9 693.9,849.1 693.9,816.3 627.2,521.9 		"/>
	</g>
	<g id="Layer_2" display="inline">
		<g>
			<g>
				
					<linearGradient id="SVGID_1_" gradientUnits="userSpaceOnUse" x1="326.3329" y1="203.3897" x2="326.3329" y2="294.1603" gradientTransform="matrix(1.0199 0 0 1.0199 -44.5058 423.4315)">
					<stop  offset="0" style="stop-color:#790410"/>
					<stop  offset="1" style="stop-color:#BE1E2D"/>
				</linearGradient>
				<polygon fill="url(#SVGID_1_)" points="311.3,595.7 265.3,613.3 265.3,849.3 311.3,831.8 				"/>
				
					<linearGradient id="SVGID_2_" gradientUnits="userSpaceOnUse" x1="364.801" y1="278.4381" x2="393.8434" y2="349.2293" gradientTransform="matrix(1.0199 0 0 1.0199 -44.5058 423.4315)">
					<stop  offset="0" style="stop-color:#F15A29"/>
					<stop  offset="1" style="stop-color:#C74A20"/>
				</linearGradient>
				<polygon fill="url(#SVGID_2_)" points="311.3,595.7 265.3,613.3 344.5,820.9 390.5,803.3 				"/>
				
					<linearGradient id="SVGID_3_" gradientUnits="userSpaceOnUse" x1="437.9125" y1="288.6155" x2="420.9702" y2="333.7949" gradientTransform="matrix(1.0199 0 0 1.0199 -44.5058 423.4315)">
					<stop  offset="0" style="stop-color:#790410"/>
					<stop  offset="1" style="stop-color:#BE1E2D"/>
				</linearGradient>
				<polygon fill="url(#SVGID_3_)" points="390.5,803.3 344.5,820.9 386.2,705.8 432.2,688.2 				"/>
				
					<linearGradient id="SVGID_4_" gradientUnits="userSpaceOnUse" x1="459.5668" y1="322.042" x2="474.0881" y2="390.4131" gradientTransform="matrix(1.0199 0 0 1.0199 -44.5058 423.4315)">
					<stop  offset="0" style="stop-color:#F15A29"/>
					<stop  offset="1" style="stop-color:#C74A20"/>
				</linearGradient>
				<polygon fill="url(#SVGID_4_)" points="469.4,831.8 423.4,849.3 386.2,705.8 432.2,688.2 				"/>
			</g>
			<polygon fill="#999999" points="311.3,831.8 265.3,849.3 270.2,852.2 347.1,853.3 			"/>
			<polygon fill="#999999" points="469.4,831.8 423.4,849.3 432.2,854.3 509.4,855.3 			"/>
		</g>
		
			<linearGradient id="SVGID_5_" gradientUnits="userSpaceOnUse" x1="611.8512" y1="256.9621" x2="662.1864" y2="379.6543" gradientTransform="matrix(1.0199 0 0 1.0199 -44.5058 423.4315)">
			<stop  offset="0" style="stop-color:#F15A29"/>
			<stop  offset="1" style="stop-color:#C74A20"/>
		</linearGradient>
		<polygon fill="url(#SVGID_5_)" points="514.7,521.9 589.7,852.8 645.3,850.9 570.8,521.9 		"/>
		
			<linearGradient id="SVGID_6_" gradientUnits="userSpaceOnUse" x1="714.1913" y1="229.6431" x2="764.5264" y2="352.3352" gradientTransform="matrix(1.0199 0 0 1.0199 -44.5058 423.4315)">
			<stop  offset="0" style="stop-color:#F15A29"/>
			<stop  offset="1" style="stop-color:#C74A20"/>
		</linearGradient>
		<polygon fill="url(#SVGID_6_)" points="683.3,521.9 627.2,521.9 693.9,816.3 694,569 		"/>
	</g>
</g>
<g id="Layer_2_1_">
	<g id="Layer_3">
		<polygon fill="#B68E51" points="405.5,57.1 -0.1,57.1 -0.1,3 405.5,0 		"/>
		<polygon fill="#D6AF6F" points="595.4,57.1 405.5,57.1 405.5,0 595.4,4 		"/>
		<polygon display="none" fill="#B58F64" points="412.9,59.6 412.9,57.1 2.8,57.1 2.8,59.6 		"/>
		<polygon display="none" opacity="0.65" fill="#CC9F5B" enable-background="new    " points="593.3,59.6 593.3,57.1 412.9,57.1 
			412.9,59.6 		"/>
		
			<text transform="matrix(1 0 0 1 299.6504 45.2474)" opacity="0.63" enable-background="new    " font-family="'MyriadPro-Regular'" font-size="27.5366">topmed</text>
		
			<text transform="matrix(0.5296 0 0 1 548.7215 45.9511)" opacity="0.29" enable-background="new    " font-family="'MyriadPro-Regular'" font-size="24.7219">topmed</text>
	</g>
</g>
</svg>
