<?xml version="1.0" encoding="utf-8"?>
<!-- Generator: Adobe Illustrator 18.1.0, SVG Export Plug-In . SVG Version: 6.00 Build 0)  -->
<svg version="1.1" id="Layer_1" xmlns="http://www.w3.org/2000/svg" xmlns:xlink="http://www.w3.org/1999/xlink" x="0px" y="0px"
	 viewBox="-6.5 144 1281 667" enable-background="new -6.5 144 1281 667" xml:space="preserve">
<g>
	
		<linearGradient id="SVGID_1_" gradientUnits="userSpaceOnUse" x1="702.412" y1="646.4498" x2="615.4121" y2="104.4498" gradientTransform="matrix(1.0396 0 0 -1.0396 0 899.0253)">
		<stop  offset="0.289" style="stop-color:#E1F1E7"/>
		<stop  offset="1" style="stop-color:#EDF6E3;stop-opacity:0"/>
	</linearGradient>
	<path fill="url(#SVGID_1_)" d="M-1.3,809.9c50-6.2,58.5-19.5,84-29.6c26.6-10.5,51-23.6,51-23.7c40.9-20.7,45.7-29.5,72.8-37.8
		c8-2.5,17.3-4.9,29.1-11.6c12.1-6.9,15.3-12,27-19.9c3.5-2.4,10.4-6.9,34.3-16.6c18.4-7.6,34.4-14.2,57.2-20.8
		c33.3-9.7,38.3-6.9,65.5-16.6c17.7-6.3,27.3-9.8,38.5-17.7c21.8-15.4,19.6-26.5,42.6-53c25.4-29.2,34.2-22.8,58.2-53
		c12-15.1,11.1-18.4,29.1-41.6c15.6-20.2,23.4-30.3,34.3-38.5c19.1-14.5,25.8-9.4,60.3-26c6.2-3,6.8-3.5,50.9-30.1
		c32.6-19.6,49-29.5,53-31.2c29.1-12.2,33.7-4,80.1-14.6c33.4-7.6,59.4-18.3,78-26c21.6-8.9,17.3-8.6,47.8-21.8
		c38.2-16.5,46.4-17.6,74.9-31.2c29.3-14,23.5-14.2,43.7-22.9c36.5-15.6,45.3-10.4,78-26c14.8-7.1,13.5-8.5,42.4-23.9
		c18.3-9.8,34.1-15.6,43.5-20.3l-0.1,654.5H-1.3z"/>
	<path fill="none" stroke="#F15A29" stroke-width="2" stroke-miterlimit="10" d="M-5.5,813c50-6.2,58.5-19.5,84-29.6
		c26.6-10.5,51-23.6,51-23.7c40.9-20.7,45.7-29.5,72.8-37.8c8-2.5,17.3-4.9,29.1-11.6c12.1-6.9,15.3-12,27-19.9
		c3.5-2.4,10.4-6.9,34.3-16.6c18.4-7.6,34.4-14.2,57.2-20.8c33.3-9.7,38.3-6.9,65.5-16.6c17.7-6.3,27.3-9.8,38.5-17.7
		c21.8-15.4,19.6-26.5,42.6-53c25.4-29.2,34.2-22.8,58.2-53c12-15.1,11.1-18.4,29.1-41.6c15.6-20.2,23.4-30.3,34.3-38.5
		c19.1-14.5,25.8-9.4,60.3-26c6.2-3,6.8-3.5,50.9-30.1c32.6-19.6,49-29.5,53-31.2c29.1-12.2,33.7-4,80.1-14.6
		c33.4-7.6,59.4-18.3,78-26c21.6-8.9,17.3-8.6,47.8-21.8c38.2-16.5,46.4-17.6,74.9-31.2c29.3-14,23.5-14.2,43.7-22.9
		c36.5-15.6,45.3-10.4,78-26c14.8-7.1,13.5-8.5,42.4-23.9c18.3-9.8,38.3-18.7,47.6-23.4"/>
	<path fill="#FFFFFF" stroke="#F15A29" stroke-width="3" stroke-miterlimit="10" d="M782.8,350.3l-4.4,4.4c-0.8,0.8-2.1,0.8-2.9,0
		l-4.4-4.4c-0.8-0.8-0.8-2.1,0-2.9l4.4-4.4c0.8-0.8,2.1-0.8,2.9,0l4.4,4.4C783.6,348.1,783.6,349.4,782.8,350.3z"/>
	<path fill="#FFFFFF" stroke="#F15A29" stroke-width="3" stroke-miterlimit="10" d="M945.5,307.1l-4.4,4.4c-0.8,0.8-2.1,0.8-2.9,0
		l-4.4-4.4c-0.8-0.8-0.8-2.1,0-2.9l4.4-4.4c0.8-0.8,2.1-0.8,2.9,0l4.4,4.4C946.3,304.9,946.3,306.3,945.5,307.1z"/>
	<path fill="#FFFFFF" stroke="#F15A29" stroke-width="3" stroke-miterlimit="10" d="M1105.4,234.3l-4.4,4.4c-0.8,0.8-2.1,0.8-2.9,0
		l-4.4-4.4c-0.8-0.8-0.8-2.1,0-2.9l4.4-4.4c0.8-0.8,2.1-0.8,2.9,0l4.4,4.4C1106.1,232.2,1106.1,233.5,1105.4,234.3z"/>
	<path fill="#FFFFFF" stroke="#F15A29" stroke-width="3" stroke-miterlimit="10" d="M1271.8,161l-4.4,4.4c-0.8,0.8-2.1,0.8-2.9,0
		l-4.4-4.4c-0.8-0.8-0.8-2.1,0-2.9l4.4-4.4c0.8-0.8,2.1-0.8,2.9,0l4.4,4.4C1272.6,159,1272.6,160.2,1271.8,161z"/>
	<path fill="#FFFFFF" stroke="#F15A29" stroke-width="3" stroke-miterlimit="10" d="M621.4,436.2l-4.4,4.4c-0.8,0.8-2.1,0.8-2.9,0
		l-4.4-4.4c-0.8-0.8-0.8-2.1,0-2.9l4.4-4.4c0.8-0.8,2.1-0.8,2.9,0l4.4,4.4C622.1,434.2,622.1,435.4,621.4,436.2z"/>
	<path fill="#FFFFFF" stroke="#F15A29" stroke-width="3" stroke-miterlimit="10" d="M456.3,621.6l-4.4,4.4c-0.8,0.8-2.1,0.8-2.9,0
		l-4.4-4.4c-0.8-0.8-0.8-2.1,0-2.9l4.4-4.4c0.8-0.8,2.1-0.8,2.9,0l4.4,4.4C457.1,619.4,457.1,620.8,456.3,621.6z"/>
	<path fill="#FFFFFF" stroke="#F15A29" stroke-width="3" stroke-miterlimit="10" d="M294.5,678.1l-4.4,4.4c-0.8,0.8-2.1,0.8-2.9,0
		l-4.4-4.4c-0.8-0.8-0.8-2.1,0-2.9l4.4-4.4c0.8-0.8,2.1-0.8,2.9,0l4.4,4.4C295.4,675.9,295.4,677.2,294.5,678.1z"/>
	<path fill="#FFFFFF" stroke="#F15A29" stroke-width="3" stroke-miterlimit="10" d="M129.8,765.1l-4.4,4.4c-0.8,0.8-2.1,0.8-2.9,0
		l-4.4-4.4c-0.8-0.8-0.8-2.1,0-2.9l4.4-4.4c0.8-0.8,2.1-0.8,2.9,0l4.4,4.4C130.6,763,130.6,764.2,129.8,765.1z"/>
	<g>
		<path fill="#F15A29" d="M31.1,767.9c-0.6,0-1.1-0.1-1.6-0.3c-0.4-0.2-0.8-0.4-1.1-0.8c-0.3-0.3-0.5-0.7-0.7-1.2
			c-0.1-0.5-0.2-1-0.2-1.6c0-0.6,0.1-1.1,0.2-1.6c0.2-0.5,0.4-0.9,0.7-1.2c0.3-0.3,0.7-0.6,1.1-0.8c0.4-0.2,0.9-0.3,1.5-0.3
			c0.3,0,0.7,0,1,0.1c0.3,0.1,0.6,0.1,0.9,0.3l-0.3,1.1c-0.2-0.1-0.4-0.2-0.7-0.2c-0.3-0.1-0.5-0.1-0.8-0.1c-0.7,0-1.4,0.2-1.8,0.7
			c-0.4,0.5-0.6,1.1-0.6,2.1c0,0.4,0,0.8,0.1,1.1c0.1,0.3,0.2,0.6,0.4,0.8s0.4,0.4,0.7,0.5c0.3,0.1,0.7,0.2,1.1,0.2
			c0.3,0,0.7,0,0.9-0.1c0.3-0.1,0.5-0.1,0.7-0.2l0.2,1.1c-0.1,0-0.2,0.1-0.3,0.1s-0.3,0.1-0.5,0.1c-0.2,0-0.4,0.1-0.6,0.1
			C31.5,767.9,31.3,767.9,31.1,767.9z"/>
		<path fill="#F15A29" d="M34.1,763.9c0-0.6,0.1-1.2,0.3-1.8c0.2-0.5,0.4-0.9,0.7-1.2s0.7-0.6,1.1-0.7c0.4-0.2,0.8-0.2,1.2-0.2
			c1,0,1.8,0.3,2.4,0.9c0.5,0.6,0.8,1.6,0.8,2.9c0,0.1,0,0.1,0,0.2s0,0.2,0,0.2h-5.2c0.1,0.8,0.3,1.4,0.7,1.8s1,0.6,1.9,0.6
			c0.5,0,0.8,0,1.2-0.1c0.3-0.1,0.5-0.2,0.7-0.2l0.2,1.1c-0.2,0.1-0.4,0.2-0.8,0.3c-0.4,0.1-0.8,0.1-1.5,0.1s-1.2-0.1-1.7-0.3
			c-0.5-0.2-0.8-0.5-1.1-0.8s-0.5-0.7-0.7-1.2C34.2,765,34.1,764.4,34.1,763.9z M39.3,763.2c0-0.6-0.1-1.1-0.4-1.5
			c-0.3-0.3-0.7-0.6-1.4-0.6c-0.3,0-0.6,0.1-0.8,0.2c-0.2,0.1-0.4,0.3-0.6,0.5c-0.2,0.2-0.3,0.4-0.4,0.6c-0.1,0.2-0.1,0.5-0.2,0.7
			H39.3z"/>
		<path fill="#F15A29" d="M48.9,767.7h-1.4v-3.3H44v3.3h-1.4v-7.6H44v3.1h3.5v-3.1h1.4V767.7z"/>
		<path fill="#F15A29" d="M52.8,766.9c0,0.3-0.1,0.5-0.3,0.7s-0.4,0.3-0.7,0.3s-0.5-0.1-0.7-0.3s-0.3-0.4-0.3-0.7
			c0-0.3,0.1-0.5,0.3-0.7s0.4-0.3,0.7-0.3s0.5,0.1,0.7,0.3S52.8,766.6,52.8,766.9z"/>
		<path fill="#F15A29" d="M56.3,756.8c0,0.1,0,0.2,0,0.3s0,0.2,0,0.3c0,0.5-0.1,1-0.3,1.5c-0.2,0.5-0.4,0.9-0.6,1.4l-1-0.3
			c0.2-0.4,0.3-0.8,0.4-1.4c0.1-0.4,0.1-0.8,0.1-1.2c0-0.1,0-0.2,0-0.3c0-0.1,0-0.2,0-0.3h1.5V756.8z"/>
		<path fill="#F15A29" d="M58.4,759.7c0.5-0.2,1.1-0.5,1.7-0.8c0.5-0.3,1-0.7,1.5-1.2h0.9v10.1h-1.4v-8.2c-0.1,0.1-0.2,0.2-0.4,0.3
			s-0.3,0.2-0.5,0.3s-0.4,0.2-0.6,0.3s-0.4,0.2-0.6,0.2L58.4,759.7z"/>
		<path fill="#F15A29" d="M72.7,765.1c0,0.4-0.1,0.8-0.2,1.1c-0.1,0.3-0.3,0.6-0.6,0.9c-0.3,0.2-0.6,0.4-1,0.6
			c-0.4,0.1-0.9,0.2-1.5,0.2c-0.6,0-1.1-0.1-1.6-0.3s-0.7-0.4-1-0.7c-0.3-0.3-0.4-0.5-0.5-0.9c-0.1-0.3-0.2-0.6-0.2-0.9
			c0-0.3,0-0.5,0.1-0.8c0.1-0.2,0.2-0.5,0.4-0.7c0.2-0.2,0.3-0.4,0.5-0.6s0.4-0.3,0.6-0.5c-0.9-0.5-1.5-1.4-1.5-2.4
			c0-0.4,0.1-0.7,0.2-1c0.1-0.3,0.3-0.6,0.6-0.8c0.3-0.2,0.6-0.4,0.9-0.6c0.4-0.1,0.8-0.2,1.2-0.2c0.5,0,1,0.1,1.4,0.2
			c0.4,0.2,0.7,0.4,0.9,0.6s0.4,0.5,0.5,0.8c0.1,0.3,0.2,0.6,0.2,0.9c0,0.3,0,0.5-0.1,0.8c-0.1,0.2-0.2,0.5-0.3,0.7
			c-0.1,0.2-0.3,0.4-0.5,0.5c-0.2,0.2-0.4,0.3-0.5,0.4C72.1,763,72.7,763.9,72.7,765.1z M67.5,765.2c0,0.2,0,0.3,0.1,0.5
			c0.1,0.2,0.2,0.3,0.3,0.5s0.3,0.3,0.6,0.4c0.2,0.1,0.5,0.2,0.9,0.2c0.3,0,0.6,0,0.8-0.1c0.2-0.1,0.4-0.2,0.6-0.4s0.3-0.3,0.3-0.5
			c0.1-0.2,0.1-0.4,0.1-0.6c0-0.3-0.1-0.6-0.2-0.8c-0.1-0.2-0.3-0.4-0.5-0.6c-0.2-0.2-0.5-0.3-0.8-0.4c-0.3-0.1-0.6-0.2-1-0.3
			c-0.4,0.2-0.7,0.5-1,0.9C67.6,764.2,67.5,764.7,67.5,765.2z M71.1,760c0-0.1,0-0.3-0.1-0.5c-0.1-0.2-0.2-0.3-0.3-0.5
			c-0.1-0.1-0.3-0.3-0.5-0.4s-0.5-0.1-0.8-0.1c-0.3,0-0.6,0-0.8,0.1c-0.2,0.1-0.4,0.2-0.5,0.4c-0.1,0.1-0.2,0.3-0.3,0.5
			c-0.1,0.2-0.1,0.3-0.1,0.5s0,0.4,0.1,0.6c0.1,0.2,0.2,0.4,0.3,0.6c0.2,0.2,0.4,0.3,0.6,0.5s0.6,0.3,0.9,0.3
			c0.4-0.2,0.7-0.5,0.9-0.8C71,760.9,71.1,760.5,71.1,760z"/>
		<path fill="#F15A29" d="M76.1,766c0,0.1,0,0.1,0,0.2c0,0.1,0,0.1,0,0.2c0,0.6-0.1,1.2-0.3,1.8c-0.2,0.6-0.4,1.1-0.7,1.7l-1-0.3
			c0.2-0.5,0.4-1,0.5-1.5c0.1-0.5,0.1-1,0.1-1.5c0-0.1,0-0.2,0-0.4c0-0.1,0-0.2,0-0.3h1.5V766z M76.2,761.1c0,0.3-0.1,0.5-0.3,0.7
			c-0.2,0.2-0.4,0.3-0.7,0.3c-0.3,0-0.5-0.1-0.7-0.3c-0.2-0.2-0.3-0.4-0.3-0.7s0.1-0.5,0.3-0.7c0.2-0.2,0.4-0.3,0.7-0.3
			s0.5,0.1,0.7,0.3C76.1,760.6,76.2,760.8,76.2,761.1z"/>
		<path fill="#F15A29" d="M81.8,759.7c0.5-0.2,1.1-0.5,1.7-0.8c0.5-0.3,1-0.7,1.5-1.2h0.9v10.1h-1.4v-8.2c-0.1,0.1-0.2,0.2-0.4,0.3
			c-0.2,0.1-0.3,0.2-0.5,0.3s-0.4,0.2-0.6,0.3s-0.4,0.2-0.6,0.2L81.8,759.7z"/>
		<path fill="#F15A29" d="M89.5,763.6c0-0.9,0.1-1.9,0.4-2.6c0.3-0.7,0.6-1.4,1.1-1.9s1.1-0.9,1.9-1.1c0.7-0.3,1.6-0.4,2.4-0.4
			l0.1,1.1c-0.6,0-1.1,0.1-1.6,0.2c-0.5,0.1-0.9,0.3-1.2,0.5c-0.4,0.2-0.7,0.6-0.9,0.9c-0.2,0.3-0.4,0.9-0.5,1.5
			c0.2-0.1,0.5-0.2,0.8-0.3c0.3-0.1,0.6-0.1,0.9-0.1c0.6,0,1,0.1,1.5,0.3s0.7,0.4,0.9,0.7s0.4,0.6,0.5,1c0.1,0.4,0.2,0.7,0.2,1.1
			c0,0.4-0.1,0.7-0.2,1.1c-0.1,0.4-0.3,0.7-0.6,1c-0.2,0.3-0.6,0.6-0.9,0.8c-0.4,0.2-0.8,0.3-1.5,0.3c-1.1,0-2-0.4-2.5-1.1
			C89.8,766,89.5,765,89.5,763.6z M92.8,762.6c-0.3,0-0.6,0-0.9,0.1s-0.6,0.2-0.8,0.3c0,0.1,0,0.2,0,0.3s0,0.2,0,0.3
			c0,0.4,0,0.8,0.1,1.2c0.1,0.4,0.2,0.7,0.3,1c0.1,0.3,0.3,0.5,0.6,0.7c0.3,0.2,0.6,0.2,0.9,0.2c0.3,0,0.6-0.1,0.8-0.2
			c0.2-0.1,0.4-0.3,0.5-0.5c0.1-0.2,0.2-0.4,0.3-0.7c0.1-0.2,0.1-0.5,0.1-0.7c0-0.6-0.2-1.1-0.5-1.6S93.5,762.6,92.8,762.6z"/>
		<path fill="#F15A29" d="M97.4,764.2c0.2-0.4,0.4-0.9,0.7-1.5c0.3-0.5,0.7-1.1,1-1.8c0.4-0.6,0.8-1.1,1.2-1.8
			c0.4-0.6,0.9-1.1,1.4-1.6h1.2v6.4h1.1v1.1H103v2.6h-1.4v-2.6h-4.3V764.2z M102,759.3c-0.3,0.3-0.6,0.6-0.8,1
			c-0.3,0.4-0.6,0.8-0.8,1.2c-0.3,0.4-0.5,0.8-0.8,1.2c-0.3,0.4-0.5,0.8-0.6,1.2h3.2v-4.8H102z"/>
	</g>
	<g>
		<path fill="#F15A29" d="M196.7,676.9c0,0.6-0.1,1.1-0.3,1.7c-0.2,0.5-0.4,0.9-0.7,1.2c-0.3,0.3-0.7,0.6-1.1,0.8
			c-0.4,0.2-0.9,0.3-1.5,0.3c-0.5,0-1-0.1-1.5-0.3c-0.4-0.2-0.8-0.4-1.1-0.8c-0.3-0.4-0.5-0.7-0.7-1.2c-0.2-0.5-0.3-1-0.3-1.7
			s0.1-1.1,0.3-1.7c0.2-0.5,0.4-0.9,0.7-1.2c0.3-0.3,0.7-0.6,1.1-0.8c0.4-0.2,0.9-0.3,1.5-0.3c0.5,0,1,0.1,1.5,0.3
			c0.4,0.2,0.8,0.4,1.1,0.8c0.3,0.4,0.5,0.7,0.7,1.2C196.6,675.8,196.7,676.3,196.7,676.9z M195.3,676.9c0-0.8-0.2-1.6-0.6-2.1
			c-0.4-0.5-0.9-0.7-1.6-0.7c-0.6,0-1.1,0.2-1.6,0.7c-0.4,0.5-0.6,1.1-0.6,2.1c0,0.8,0.2,1.6,0.6,2.1c0.4,0.5,0.9,0.7,1.6,0.7
			c0.6,0,1.1-0.2,1.6-0.7C195,678.4,195.3,677.7,195.3,676.9z"/>
		<path fill="#F15A29" d="M201.4,676.5c0.3,0.2,0.6,0.5,0.9,0.8c0.3,0.3,0.7,0.7,1,1c0.3,0.4,0.6,0.7,0.9,1.1
			c0.3,0.4,0.5,0.7,0.7,1.1h-1.6c-0.2-0.3-0.4-0.6-0.7-1c-0.3-0.3-0.6-0.7-0.9-1c-0.3-0.3-0.6-0.6-0.9-0.9c-0.3-0.3-0.6-0.5-0.9-0.7
			v3.5h-1.4v-7.6h1.4v3.2c0.2-0.2,0.5-0.5,0.8-0.7c0.3-0.3,0.6-0.6,0.9-0.9c0.3-0.3,0.6-0.6,0.8-0.8c0.3-0.3,0.5-0.5,0.6-0.7h1.6
			c-0.2,0.2-0.4,0.5-0.7,0.8c-0.3,0.3-0.6,0.6-0.9,0.9c-0.3,0.3-0.6,0.6-0.9,0.9C201.9,676,201.6,676.3,201.4,676.5z"/>
		<path fill="#F15A29" d="M211.8,673.1v1.1h-2.5v6.4h-1.4v-6.4h-2.5v-1.1H211.8z"/>
		<path fill="#F15A29" d="M214,679.8c0,0.3-0.1,0.5-0.3,0.7c-0.2,0.2-0.4,0.3-0.7,0.3c-0.3,0-0.5-0.1-0.7-0.3
			c-0.2-0.2-0.3-0.4-0.3-0.7s0.1-0.5,0.3-0.7c0.2-0.2,0.4-0.3,0.7-0.3c0.3,0,0.5,0.1,0.7,0.3C213.9,679.3,214,679.6,214,679.8z"/>
		<path fill="#F15A29" d="M217.4,669.7c0,0.1,0,0.2,0,0.3s0,0.2,0,0.3c0,0.5-0.1,1-0.3,1.5c-0.2,0.5-0.4,0.9-0.6,1.4l-1-0.3
			c0.2-0.4,0.3-0.8,0.4-1.4c0.1-0.4,0.1-0.8,0.1-1.2c0-0.1,0-0.2,0-0.3s0-0.2,0-0.3h1.5V669.7z"/>
		<path fill="#F15A29" d="M219.6,672.6c0.5-0.2,1.1-0.5,1.7-0.8s1-0.7,1.5-1.2h0.9v10.1h-1.4v-8.2c-0.1,0.1-0.2,0.2-0.4,0.3
			c-0.2,0.1-0.3,0.2-0.5,0.3c-0.2,0.1-0.4,0.2-0.6,0.3c-0.2,0.1-0.4,0.2-0.6,0.2L219.6,672.6z"/>
		<path fill="#F15A29" d="M233.8,678.1c0,0.4-0.1,0.8-0.2,1.1c-0.1,0.3-0.3,0.6-0.6,0.9c-0.3,0.2-0.6,0.4-1,0.6
			c-0.4,0.1-0.9,0.2-1.5,0.2c-0.6,0-1.1-0.1-1.6-0.3c-0.4-0.2-0.7-0.4-1-0.7s-0.4-0.5-0.5-0.9c-0.1-0.3-0.2-0.6-0.2-0.9
			s0-0.5,0.1-0.8c0.1-0.2,0.2-0.5,0.4-0.7c0.2-0.2,0.3-0.4,0.5-0.6c0.2-0.2,0.4-0.3,0.6-0.5c-0.9-0.5-1.5-1.4-1.5-2.4
			c0-0.4,0.1-0.7,0.2-1c0.1-0.3,0.3-0.6,0.6-0.8c0.3-0.2,0.6-0.4,0.9-0.6c0.4-0.1,0.8-0.2,1.2-0.2c0.5,0,1,0.1,1.4,0.2
			c0.4,0.2,0.7,0.4,0.9,0.6c0.2,0.2,0.4,0.5,0.5,0.8c0.1,0.3,0.2,0.6,0.2,0.9s0,0.5-0.1,0.8c-0.1,0.2-0.2,0.5-0.3,0.7
			s-0.3,0.4-0.5,0.5c-0.2,0.2-0.4,0.3-0.5,0.4C233.2,676,233.8,676.8,233.8,678.1z M228.6,678.2c0,0.2,0,0.3,0.1,0.5
			s0.2,0.3,0.3,0.5c0.1,0.2,0.3,0.3,0.6,0.4c0.2,0.1,0.5,0.2,0.9,0.2c0.3,0,0.6,0,0.8-0.1c0.2-0.1,0.4-0.2,0.6-0.4
			c0.2-0.2,0.3-0.3,0.3-0.5c0.1-0.2,0.1-0.4,0.1-0.6c0-0.3-0.1-0.6-0.2-0.8c-0.1-0.2-0.3-0.4-0.5-0.6c-0.2-0.2-0.5-0.3-0.8-0.4
			c-0.3-0.1-0.6-0.2-1-0.3c-0.4,0.2-0.7,0.5-1,0.9C228.7,677.2,228.6,677.6,228.6,678.2z M232.3,673c0-0.1,0-0.3-0.1-0.5
			s-0.2-0.3-0.3-0.5c-0.1-0.1-0.3-0.3-0.5-0.4c-0.2-0.1-0.5-0.1-0.8-0.1c-0.3,0-0.6,0-0.8,0.1c-0.2,0.1-0.4,0.2-0.5,0.4
			c-0.1,0.1-0.2,0.3-0.3,0.5c-0.1,0.2-0.1,0.3-0.1,0.5s0,0.4,0.1,0.6c0.1,0.2,0.2,0.4,0.3,0.6c0.2,0.2,0.4,0.3,0.6,0.5
			c0.2,0.2,0.6,0.3,0.9,0.3c0.4-0.2,0.7-0.5,0.9-0.8C232.2,673.9,232.3,673.5,232.3,673z"/>
		<path fill="#F15A29" d="M237.3,679c0,0.1,0,0.1,0,0.2c0,0.1,0,0.1,0,0.2c0,0.6-0.1,1.2-0.3,1.8c-0.2,0.6-0.4,1.1-0.7,1.7l-1-0.3
			c0.2-0.5,0.4-1,0.5-1.5c0.1-0.5,0.1-1,0.1-1.5c0-0.1,0-0.2,0-0.4c0-0.1,0-0.2,0-0.3h1.5V679z M237.4,674.1c0,0.3-0.1,0.5-0.3,0.7
			c-0.2,0.2-0.4,0.3-0.7,0.3c-0.3,0-0.5-0.1-0.7-0.3c-0.2-0.2-0.3-0.4-0.3-0.7s0.1-0.5,0.3-0.7c0.2-0.2,0.4-0.3,0.7-0.3
			c0.3,0,0.5,0.1,0.7,0.3C237.3,673.6,237.4,673.8,237.4,674.1z"/>
		<path fill="#F15A29" d="M242.1,677.1c0.2-0.4,0.4-0.9,0.7-1.5s0.7-1.1,1-1.8c0.4-0.6,0.8-1.1,1.2-1.8s0.9-1.1,1.4-1.6h1.2v6.4h1.1
			v1.1h-1.1v2.6h-1.4v-2.6h-4.5v-1H242.1z M246.7,672.1c-0.3,0.3-0.6,0.6-0.8,1c-0.3,0.4-0.6,0.8-0.8,1.2c-0.3,0.4-0.5,0.8-0.8,1.2
			c-0.3,0.4-0.5,0.8-0.6,1.2h3.2v-4.8H246.7z"/>
		<path fill="#F15A29" d="M250.7,676.6c0-0.9,0.1-1.9,0.4-2.6c0.3-0.7,0.6-1.4,1.1-1.9c0.5-0.5,1.1-0.9,1.9-1.1
			c0.7-0.3,1.6-0.4,2.4-0.4l0.1,1.1c-0.6,0-1.1,0.1-1.6,0.2c-0.5,0.1-0.9,0.3-1.2,0.5c-0.4,0.2-0.7,0.6-0.9,0.9
			c-0.2,0.3-0.4,0.9-0.5,1.5c0.2-0.1,0.5-0.2,0.8-0.3c0.3-0.1,0.6-0.1,0.9-0.1c0.6,0,1,0.1,1.5,0.3c0.4,0.2,0.7,0.4,0.9,0.7
			c0.2,0.3,0.4,0.6,0.5,1s0.2,0.7,0.2,1.1s-0.1,0.7-0.2,1.1c-0.1,0.4-0.3,0.7-0.6,1c-0.2,0.3-0.6,0.6-0.9,0.8
			c-0.4,0.2-0.8,0.3-1.5,0.3c-1.1,0-2-0.4-2.5-1.1C251,679,250.7,678,250.7,676.6z M254,675.6c-0.3,0-0.6,0-0.9,0.1
			c-0.3,0.1-0.6,0.2-0.8,0.3c0,0.1,0,0.2,0,0.3s0,0.2,0,0.3c0,0.4,0,0.8,0.1,1.2c0.1,0.4,0.2,0.7,0.3,1c0.1,0.3,0.3,0.5,0.6,0.7
			s0.6,0.2,0.9,0.2c0.3,0,0.6-0.1,0.8-0.2c0.2-0.1,0.4-0.3,0.5-0.5s0.2-0.4,0.3-0.7c0.1-0.2,0.1-0.5,0.1-0.7c0-0.6-0.2-1.1-0.5-1.6
			C255.1,675.7,254.6,675.6,254,675.6z"/>
		<path fill="#F15A29" d="M259.4,672.6c0.5-0.2,1.1-0.5,1.7-0.8s1-0.7,1.5-1.2h0.9v10.1h-1.4v-8.2c-0.1,0.1-0.2,0.2-0.4,0.3
			c-0.2,0.1-0.3,0.2-0.5,0.3c-0.2,0.1-0.4,0.2-0.6,0.3c-0.2,0.1-0.4,0.2-0.6,0.2L259.4,672.6z"/>
	</g>
	<g>
		<path fill="#F15A29" d="M356.6,624.2h-1.4v-3.3h-3.5v3.3h-1.4v-7.6h1.4v3.1h3.5v-3.1h1.4V624.2z"/>
		<path fill="#F15A29" d="M365.7,620.5c0,0.6-0.1,1.1-0.3,1.7s-0.4,0.9-0.7,1.2c-0.3,0.3-0.7,0.6-1.1,0.8c-0.4,0.2-0.9,0.3-1.5,0.3
			c-0.5,0-1-0.1-1.5-0.3c-0.4-0.2-0.8-0.4-1.1-0.8c-0.3-0.4-0.5-0.7-0.7-1.2c-0.2-0.5-0.3-1-0.3-1.7c0-0.6,0.1-1.1,0.3-1.7
			s0.4-0.9,0.7-1.2c0.3-0.3,0.7-0.6,1.1-0.8c0.4-0.2,0.9-0.3,1.5-0.3c0.5,0,1,0.1,1.5,0.3c0.4,0.2,0.8,0.4,1.1,0.8
			c0.3,0.4,0.5,0.7,0.7,1.2C365.5,619.3,365.7,619.8,365.7,620.5z M364.2,620.5c0-0.8-0.2-1.6-0.6-2.1c-0.4-0.5-0.9-0.7-1.6-0.7
			c-0.6,0-1.1,0.2-1.6,0.7c-0.4,0.5-0.6,1.1-0.6,2.1s0.2,1.6,0.6,2.1c0.4,0.5,0.9,0.7,1.6,0.7c0.6,0,1.1-0.2,1.6-0.7
			C364,622,364.2,621.3,364.2,620.5z"/>
		<path fill="#F15A29" d="M370.6,621.3c-0.1,0-0.3,0-0.4,0s-0.3,0-0.4,0c-0.3,0.4-0.6,0.9-0.9,1.5c-0.3,0.5-0.5,1-0.7,1.5h-1.4
			c0.1-0.3,0.2-0.5,0.4-0.8c0.1-0.3,0.3-0.6,0.5-0.8c0.2-0.3,0.3-0.5,0.5-0.8c0.2-0.2,0.3-0.5,0.4-0.7c-0.3-0.1-0.5-0.2-0.6-0.3
			c-0.2-0.1-0.3-0.3-0.4-0.5s-0.2-0.3-0.2-0.5c0-0.2-0.1-0.4-0.1-0.6c0-0.4,0.1-0.8,0.2-1.1c0.2-0.3,0.4-0.6,0.6-0.8
			c0.3-0.2,0.6-0.4,1-0.5c0.4-0.1,0.8-0.2,1.2-0.2c0.6,0,1.1,0,1.7,0.1c0.4,0.1,0.8,0.1,1.1,0.2v7.5h-1.4v-2.9h-1.2V621.3z
			 M371.9,617.7c-0.1,0-0.3,0-0.5-0.1c-0.2,0-0.5,0-0.8,0c-0.5,0-1,0.1-1.4,0.3c-0.3,0.2-0.5,0.6-0.5,1c0,0.5,0.2,0.8,0.5,1
			c0.3,0.2,0.8,0.3,1.4,0.3h1.4V617.7z"/>
		<path fill="#F15A29" d="M377.1,623.4c0,0.3-0.1,0.5-0.3,0.7c-0.2,0.2-0.4,0.3-0.7,0.3c-0.3,0-0.5-0.1-0.7-0.3
			c-0.2-0.2-0.3-0.4-0.3-0.7c0-0.3,0.1-0.5,0.3-0.7c0.2-0.2,0.4-0.3,0.7-0.3s0.5,0.1,0.7,0.3C377.1,623,377.1,623.2,377.1,623.4z"/>
		<path fill="#F15A29" d="M380.5,613.3c0,0.1,0,0.2,0,0.3s0,0.2,0,0.3c0,0.5-0.1,1-0.3,1.5c-0.2,0.4-0.4,0.9-0.6,1.4l-1-0.3
			c0.2-0.4,0.3-0.8,0.4-1.4c0.1-0.4,0.1-0.8,0.1-1.2c0-0.1,0-0.2,0-0.3s0-0.2,0-0.3h1.5V613.3z"/>
		<path fill="#F15A29" d="M382.7,616.2c0.5-0.2,1.1-0.5,1.7-0.8c0.5-0.3,1-0.7,1.5-1.2h0.9v10.1h-1.4V616c-0.1,0.1-0.2,0.2-0.4,0.3
			c-0.2,0.1-0.3,0.2-0.5,0.3c-0.2,0.1-0.4,0.2-0.6,0.3c-0.2,0.1-0.4,0.2-0.6,0.2L382.7,616.2z"/>
		<path fill="#F15A29" d="M396.9,621.6c0,0.4-0.1,0.8-0.2,1.1c-0.1,0.3-0.3,0.6-0.6,0.9c-0.3,0.2-0.6,0.4-1,0.6
			c-0.4,0.1-0.9,0.2-1.5,0.2c-0.6,0-1.1-0.1-1.6-0.3c-0.4-0.2-0.7-0.4-1-0.7c-0.2-0.3-0.4-0.5-0.5-0.9c-0.1-0.4-0.2-0.6-0.2-0.9
			s0-0.5,0.1-0.8s0.2-0.5,0.4-0.7c0.2-0.2,0.3-0.4,0.5-0.6c0.2-0.2,0.4-0.3,0.6-0.5c-0.9-0.5-1.5-1.4-1.5-2.4c0-0.4,0.1-0.7,0.2-1
			c0.1-0.3,0.3-0.6,0.6-0.8c0.3-0.2,0.6-0.4,0.9-0.6c0.4-0.1,0.8-0.2,1.2-0.2c0.5,0,1,0.1,1.4,0.2c0.4,0.2,0.7,0.4,0.9,0.6
			s0.4,0.5,0.5,0.8s0.2,0.6,0.2,0.9s0,0.5-0.1,0.8c-0.1,0.2-0.2,0.5-0.3,0.7s-0.3,0.4-0.5,0.5c-0.2,0.2-0.4,0.3-0.5,0.4
			C396.4,619.5,396.9,620.4,396.9,621.6z M391.7,621.7c0,0.2,0,0.3,0.1,0.5s0.2,0.4,0.3,0.5c0.1,0.2,0.3,0.3,0.6,0.4
			c0.3,0.1,0.5,0.2,0.9,0.2c0.3,0,0.6,0,0.8-0.1c0.2-0.1,0.4-0.2,0.6-0.4c0.1-0.1,0.3-0.3,0.3-0.5c0.1-0.2,0.1-0.4,0.1-0.6
			c0-0.3-0.1-0.6-0.2-0.8s-0.3-0.4-0.5-0.6c-0.2-0.2-0.5-0.3-0.8-0.4c-0.3-0.1-0.6-0.2-1-0.3c-0.4,0.2-0.7,0.5-1,0.9
			C391.8,620.8,391.7,621.2,391.7,621.7z M395.4,616.5c0-0.1,0-0.3-0.1-0.5s-0.2-0.3-0.3-0.5c-0.1-0.1-0.3-0.3-0.5-0.4
			s-0.5-0.1-0.8-0.1c-0.3,0-0.6,0-0.8,0.1c-0.2,0.1-0.4,0.2-0.5,0.4c-0.1,0.2-0.2,0.3-0.3,0.5c-0.1,0.2-0.1,0.3-0.1,0.5
			s0,0.4,0.1,0.6s0.2,0.4,0.3,0.6c0.2,0.2,0.4,0.3,0.6,0.5c0.3,0.1,0.6,0.3,0.9,0.3c0.4-0.2,0.7-0.5,0.9-0.8S395.4,617,395.4,616.5z
			"/>
		<path fill="#F15A29" d="M400.4,622.5c0,0.1,0,0.1,0,0.2c0,0.1,0,0.1,0,0.2c0,0.6-0.1,1.2-0.3,1.8c-0.2,0.6-0.4,1.1-0.7,1.7l-1-0.3
			c0.2-0.5,0.4-1,0.5-1.5c0.1-0.5,0.1-0.9,0.1-1.5c0-0.1,0-0.2,0-0.3c0-0.1,0-0.2,0-0.3L400.4,622.5L400.4,622.5z M400.6,617.7
			c0,0.3-0.1,0.5-0.3,0.7c-0.2,0.2-0.4,0.3-0.7,0.3c-0.3,0-0.5-0.1-0.7-0.3s-0.3-0.4-0.3-0.7c0-0.3,0.1-0.5,0.3-0.7
			c0.2-0.2,0.4-0.3,0.7-0.3s0.5,0.1,0.7,0.3C400.5,617.1,400.6,617.3,400.6,617.7z"/>
		<path fill="#F15A29" d="M405.7,620.1c0-0.9,0.1-1.9,0.4-2.6c0.3-0.7,0.6-1.4,1.1-1.9c0.5-0.5,1.1-0.9,1.9-1.1s1.6-0.4,2.4-0.4
			l0.1,1.1c-0.6,0-1.1,0.1-1.6,0.2c-0.4,0.1-0.9,0.3-1.2,0.5c-0.4,0.2-0.7,0.6-0.9,0.9c-0.2,0.4-0.4,0.9-0.5,1.5
			c0.2-0.1,0.5-0.2,0.8-0.3c0.3-0.1,0.6-0.1,0.9-0.1c0.6,0,1,0.1,1.5,0.3c0.4,0.2,0.7,0.4,0.9,0.7c0.2,0.3,0.4,0.6,0.5,1
			c0.1,0.4,0.2,0.7,0.2,1.1c0,0.4-0.1,0.7-0.2,1.1c-0.1,0.4-0.3,0.7-0.6,1c-0.2,0.3-0.6,0.6-0.9,0.8c-0.4,0.2-0.8,0.3-1.5,0.3
			c-1.1,0-2-0.4-2.5-1.1C405.9,622.5,405.7,621.5,405.7,620.1z M408.9,619.1c-0.3,0-0.6,0-0.9,0.1c-0.3,0.1-0.6,0.2-0.8,0.3
			c0,0.1,0,0.2,0,0.3c0,0.1,0,0.2,0,0.3c0,0.4,0,0.8,0.1,1.2c0.1,0.4,0.2,0.7,0.3,1c0.1,0.3,0.3,0.5,0.6,0.7
			c0.2,0.2,0.6,0.2,0.9,0.2c0.3,0,0.6-0.1,0.8-0.2c0.2-0.1,0.4-0.3,0.5-0.5s0.2-0.4,0.3-0.7c0.1-0.2,0.1-0.5,0.1-0.7
			c0-0.6-0.2-1.1-0.5-1.6C410,619.2,409.5,619.1,408.9,619.1z"/>
		<path fill="#F15A29" d="M413.5,620.7c0.2-0.4,0.4-0.9,0.7-1.5c0.3-0.5,0.7-1.1,1-1.8c0.4-0.6,0.8-1.1,1.2-1.8
			c0.4-0.6,0.9-1.1,1.4-1.6h1.2v6.4h1.1v1.1h-1.1v2.6h-1.4v-2.6h-4.3V620.7z M418,615.7c-0.3,0.3-0.6,0.6-0.8,1
			c-0.3,0.4-0.6,0.8-0.8,1.2c-0.3,0.4-0.5,0.8-0.8,1.2c-0.3,0.4-0.5,0.8-0.6,1.2h3.2v-4.8H418z"/>
		<path fill="#F15A29" d="M428.4,618.2c0,2-0.5,3.5-1.5,4.6c-1,1-2.5,1.6-4.5,1.6v-1.1c0.6,0,1.1-0.1,1.7-0.2
			c0.5-0.1,0.9-0.3,1.2-0.5c0.4-0.2,0.7-0.6,0.9-1c0.2-0.4,0.4-0.9,0.5-1.5c-0.2,0.1-0.5,0.2-0.8,0.3c-0.3,0.1-0.6,0.1-1,0.1
			c-0.6,0-1-0.1-1.5-0.2c-0.4-0.2-0.7-0.4-0.9-0.7c-0.2-0.3-0.4-0.6-0.5-1s-0.2-0.7-0.2-1.1c0-0.3,0.1-0.7,0.2-1.1
			c0.1-0.4,0.3-0.7,0.6-1c0.2-0.3,0.6-0.6,0.9-0.8c0.4-0.2,0.8-0.3,1.5-0.3c0.5,0,1,0.1,1.5,0.3c0.4,0.2,0.7,0.5,1,0.8
			c0.3,0.4,0.5,0.8,0.6,1.4C428.3,616.9,428.4,617.4,428.4,618.2z M425.2,619.1c0.3,0,0.6,0,0.9-0.1c0.3-0.1,0.6-0.2,0.8-0.3
			c0-0.1,0-0.2,0-0.3s0-0.2,0-0.3c0-0.4,0-0.8-0.1-1.2c-0.1-0.4-0.2-0.7-0.3-1c-0.1-0.3-0.3-0.5-0.6-0.7c-0.3-0.2-0.6-0.2-0.9-0.2
			c-0.3,0-0.6,0.1-0.8,0.2c-0.2,0.1-0.4,0.3-0.5,0.5s-0.2,0.4-0.3,0.7c-0.1,0.2-0.1,0.5-0.1,0.7c0,0.6,0.2,1.1,0.5,1.5
			C424.1,619,424.6,619.1,425.2,619.1z"/>
	</g>
	<g>
		<path fill="#F15A29" d="M512,437.8h0.8c0.3-0.4,0.6-0.9,0.7-1.5c0.2-0.5,0.3-1,0.4-1.6c0.1-0.5,0.2-1,0.2-1.7c0-0.6,0-1.1,0.1-1.9
			h5v6.4h1v3.2h-1.2v-2.1h-5.8v2.1H512V437.8z M517.9,437.8v-5.3h-2.4c0,0.4,0,0.9-0.1,1.4c0,0.4-0.1,0.9-0.2,1.4
			c-0.1,0.4-0.2,0.9-0.4,1.4c-0.2,0.4-0.3,0.8-0.6,1.2L517.9,437.8L517.9,437.8z"/>
		<path fill="#F15A29" d="M521.3,435.1c0-0.6,0.1-1.2,0.3-1.8c0.2-0.5,0.4-0.9,0.7-1.2c0.3-0.3,0.7-0.6,1.1-0.7
			c0.4-0.1,0.8-0.2,1.2-0.2c1,0,1.8,0.3,2.4,0.9c0.5,0.6,0.8,1.6,0.8,2.9c0,0.1,0,0.1,0,0.2s0,0.2,0,0.2h-5.2
			c0.1,0.8,0.3,1.4,0.7,1.8c0.4,0.4,1,0.6,1.9,0.6c0.5,0,0.8,0,1.2-0.1c0.3-0.1,0.5-0.2,0.7-0.2l0.2,1.1c-0.2,0.1-0.4,0.2-0.8,0.3
			c-0.4,0.1-0.8,0.1-1.5,0.1c-0.6,0-1.2-0.1-1.7-0.3c-0.5-0.2-0.8-0.5-1.1-0.8s-0.5-0.7-0.7-1.2
			C521.4,436.2,521.3,435.7,521.3,435.1z M526.5,434.4c0-0.6-0.1-1.1-0.4-1.5c-0.3-0.3-0.7-0.6-1.4-0.6c-0.3,0-0.6,0.1-0.8,0.2
			s-0.4,0.3-0.6,0.5s-0.3,0.4-0.4,0.6c-0.1,0.2-0.1,0.5-0.2,0.7L526.5,434.4L526.5,434.4z"/>
		<path fill="#F15A29" d="M532.6,434.8c0.3,0.2,0.6,0.5,0.9,0.8c0.3,0.3,0.7,0.7,1,1c0.3,0.4,0.6,0.7,0.9,1.1
			c0.3,0.4,0.5,0.7,0.7,1.1h-1.6c-0.2-0.3-0.4-0.6-0.7-1c-0.3-0.3-0.6-0.7-0.9-1c-0.3-0.3-0.6-0.6-0.9-0.9c-0.3-0.3-0.6-0.5-0.9-0.7
			v3.5h-1.2v-7.6h1.4v3.2c0.2-0.2,0.5-0.5,0.8-0.7c0.3-0.3,0.6-0.6,0.9-0.9c0.3-0.3,0.6-0.6,0.8-0.8c0.3-0.3,0.5-0.5,0.6-0.7h1.6
			c-0.2,0.2-0.4,0.5-0.7,0.8s-0.6,0.6-0.9,0.9c-0.3,0.3-0.6,0.6-0.9,0.9C533.1,434.3,532.9,434.6,532.6,434.8z"/>
		<path fill="#F15A29" d="M539.3,438.1c0,0.3-0.1,0.5-0.3,0.7s-0.4,0.3-0.7,0.3c-0.3,0-0.5-0.1-0.7-0.3s-0.3-0.4-0.3-0.7
			s0.1-0.5,0.3-0.7c0.2-0.2,0.4-0.3,0.7-0.3c0.3,0,0.5,0.1,0.7,0.3S539.3,437.8,539.3,438.1z"/>
		<path fill="#F15A29" d="M542.7,427.9c0,0.1,0,0.2,0,0.3c0,0.1,0,0.2,0,0.3c0,0.5-0.1,1-0.3,1.5c-0.2,0.5-0.4,0.9-0.6,1.4l-1-0.3
			c0.2-0.4,0.3-0.8,0.4-1.4c0.1-0.4,0.1-0.8,0.1-1.2c0-0.1,0-0.2,0-0.3c0-0.1,0-0.2,0-0.3h1.5V427.9z"/>
		<path fill="#F15A29" d="M544.9,430.8c0.5-0.2,1.1-0.5,1.7-0.8c0.5-0.3,1-0.7,1.5-1.2h0.9v10.1h-1.4v-8.2c-0.1,0.1-0.2,0.2-0.4,0.3
			c-0.2,0.1-0.3,0.2-0.5,0.3c-0.2,0.1-0.4,0.2-0.6,0.3c-0.2,0.1-0.4,0.2-0.6,0.2L544.9,430.8z"/>
		<path fill="#F15A29" d="M559.1,436.2c0,0.4-0.1,0.8-0.2,1.1c-0.1,0.3-0.3,0.6-0.6,0.9c-0.3,0.2-0.6,0.4-1,0.6
			c-0.4,0.2-0.9,0.2-1.5,0.2c-0.6,0-1.1-0.1-1.6-0.3c-0.4-0.2-0.7-0.4-1-0.7c-0.2-0.3-0.4-0.5-0.5-0.9c-0.1-0.3-0.2-0.6-0.2-0.9
			s0-0.5,0.1-0.8c0.1-0.2,0.2-0.5,0.4-0.7s0.3-0.4,0.5-0.6c0.2-0.2,0.4-0.3,0.6-0.5c-0.9-0.5-1.5-1.4-1.5-2.4c0-0.4,0.1-0.7,0.2-1
			c0.1-0.3,0.3-0.6,0.6-0.8c0.3-0.2,0.6-0.4,0.9-0.6c0.4-0.1,0.8-0.2,1.2-0.2c0.5,0,1,0.1,1.4,0.2c0.4,0.2,0.7,0.4,0.9,0.6
			s0.4,0.5,0.5,0.8c0.1,0.3,0.2,0.6,0.2,0.9s0,0.5-0.1,0.8c-0.1,0.2-0.2,0.5-0.3,0.7s-0.3,0.4-0.5,0.5s-0.4,0.3-0.5,0.4
			C558.5,434.3,559.1,435.1,559.1,436.2z M553.9,436.3c0,0.2,0,0.3,0.1,0.5c0.1,0.2,0.2,0.4,0.3,0.5c0.1,0.2,0.3,0.3,0.6,0.4
			c0.2,0.1,0.5,0.2,0.9,0.2c0.3,0,0.6,0,0.8-0.1s0.4-0.2,0.6-0.4c0.1-0.1,0.3-0.3,0.3-0.5c0.1-0.2,0.1-0.4,0.1-0.6
			c0-0.3-0.1-0.6-0.2-0.8c-0.1-0.2-0.3-0.4-0.5-0.6c-0.2-0.2-0.5-0.3-0.8-0.4s-0.6-0.2-1-0.3c-0.4,0.2-0.7,0.5-1,0.9
			C554,435.4,553.9,435.8,553.9,436.3z M557.6,431.1c0-0.1,0-0.3-0.1-0.5c-0.1-0.2-0.2-0.3-0.3-0.5c-0.1-0.1-0.3-0.3-0.5-0.4
			s-0.5-0.1-0.8-0.1s-0.6,0-0.8,0.1s-0.4,0.2-0.5,0.4c-0.1,0.1-0.2,0.3-0.3,0.5c-0.1,0.2-0.1,0.3-0.1,0.5s0,0.4,0.1,0.6
			s0.2,0.4,0.3,0.6c0.1,0.2,0.4,0.3,0.6,0.5c0.3,0.1,0.6,0.3,0.9,0.3c0.4-0.2,0.7-0.5,0.9-0.8C557.5,432.2,557.6,431.7,557.6,431.1z
			"/>
		<path fill="#F15A29" d="M562.6,437.2c0,0.1,0,0.1,0,0.2s0,0.1,0,0.2c0,0.6-0.1,1.2-0.3,1.8c-0.2,0.6-0.4,1.1-0.7,1.7l-1-0.3
			c0.2-0.5,0.4-1,0.5-1.5c0.1-0.5,0.1-0.9,0.1-1.5c0-0.1,0-0.2,0-0.4c0-0.1,0-0.2,0-0.3h1.5V437.2z M562.8,432.3
			c0,0.3-0.1,0.5-0.3,0.7s-0.4,0.3-0.7,0.3s-0.5-0.1-0.7-0.3c-0.2-0.2-0.3-0.4-0.3-0.7s0.1-0.5,0.3-0.7c0.2-0.2,0.4-0.3,0.7-0.3
			s0.5,0.1,0.7,0.3C562.7,431.8,562.8,432.1,562.8,432.3z"/>
		<path fill="#F15A29" d="M568.3,430.8c0.5-0.2,1.1-0.5,1.7-0.8c0.5-0.3,1-0.7,1.5-1.2h0.9v10.1H571v-8.2c-0.1,0.1-0.2,0.2-0.4,0.3
			c-0.2,0.1-0.3,0.2-0.5,0.3s-0.4,0.2-0.6,0.3c-0.2,0.1-0.4,0.2-0.6,0.2L568.3,430.8z"/>
		<path fill="#F15A29" d="M581.9,431.3c0,0.3-0.1,0.7-0.2,1c-0.1,0.3-0.3,0.6-0.5,0.9c-0.2,0.3-0.5,0.6-0.8,0.9
			c-0.3,0.3-0.6,0.6-0.8,0.9c-0.2,0.2-0.3,0.3-0.6,0.6c-0.2,0.2-0.4,0.4-0.6,0.7c-0.2,0.2-0.3,0.5-0.5,0.7c-0.1,0.2-0.2,0.4-0.2,0.6
			h4.7v1.1h-6.1c0-0.1,0-0.1,0-0.2s0-0.1,0-0.2c0-0.4,0.1-0.8,0.2-1.2c0.1-0.4,0.3-0.7,0.6-1.1c0.3-0.4,0.5-0.7,0.8-1
			c0.3-0.3,0.6-0.6,0.9-0.9c0.2-0.2,0.5-0.4,0.7-0.7c0.2-0.2,0.4-0.4,0.6-0.7c0.2-0.2,0.3-0.4,0.4-0.7c0.1-0.2,0.1-0.5,0.1-0.7
			c0-0.3,0-0.5-0.1-0.7c-0.1-0.2-0.2-0.4-0.4-0.5c-0.1-0.1-0.3-0.2-0.5-0.3c-0.2-0.1-0.4-0.1-0.6-0.1c-0.3,0-0.5,0-0.7,0.1
			s-0.4,0.2-0.6,0.3s-0.3,0.2-0.4,0.3c-0.1,0.1-0.2,0.2-0.3,0.2l-0.6-0.9c0.1-0.1,0.2-0.2,0.4-0.3s0.4-0.3,0.6-0.4
			c0.2-0.1,0.5-0.2,0.8-0.3c0.3-0.1,0.6-0.1,0.9-0.1c1,0,1.9,0.2,2.4,0.7C581.7,429.8,581.9,430.5,581.9,431.3z"/>
		<path fill="#F15A29" d="M585.6,438.8c0.1-0.7,0.2-1.6,0.4-2.5c0.2-0.8,0.5-1.7,0.8-2.5s0.6-1.6,1-2.3c0.4-0.7,0.7-1.2,1.1-1.7
			h-4.9v-1.1h6.4v1.1c-0.3,0.4-0.6,0.8-1,1.6c-0.4,0.6-0.7,1.4-1.1,2.2c-0.3,0.8-0.6,1.7-0.9,2.6c-0.2,0.9-0.4,1.8-0.4,2.7h-1.5
			V438.8z"/>
		<path fill="#F15A29" d="M592.9,430.8c0.5-0.2,1.1-0.5,1.7-0.8c0.5-0.3,1-0.7,1.5-1.2h0.9v10.1h-1.4v-8.2c-0.1,0.1-0.2,0.2-0.4,0.3
			c-0.2,0.1-0.3,0.2-0.5,0.3s-0.4,0.2-0.6,0.3c-0.2,0.1-0.4,0.2-0.6,0.2L592.9,430.8z"/>
	</g>
	<g>
		<path fill="#F15A29" d="M673.1,349.9c-0.1,0-0.3,0-0.4,0c-0.1,0-0.3,0-0.4,0c-0.3,0.4-0.6,0.9-0.9,1.5c-0.3,0.5-0.5,1-0.7,1.5
			h-1.4c0.1-0.3,0.2-0.5,0.4-0.8c0.1-0.3,0.3-0.6,0.5-0.8c0.2-0.3,0.3-0.5,0.5-0.8c0.2-0.2,0.3-0.5,0.4-0.7
			c-0.3-0.1-0.5-0.2-0.6-0.3c-0.2-0.1-0.3-0.3-0.4-0.5c-0.1-0.2-0.2-0.3-0.2-0.5c0-0.2-0.1-0.4-0.1-0.6c0-0.4,0.1-0.8,0.2-1.1
			s0.4-0.6,0.6-0.8c0.3-0.2,0.6-0.4,1-0.5s0.8-0.2,1.2-0.2c0.6,0,1.1,0,1.7,0.1c0.4,0.1,0.8,0.1,1.1,0.2v7.5h-1.4v-2.9h-1.2V349.9z
			 M674.2,346.3c-0.1,0-0.3,0-0.5-0.1c-0.2,0-0.5,0-0.8,0c-0.5,0-1,0.1-1.4,0.3c-0.3,0.2-0.5,0.6-0.5,1c0,0.5,0.2,0.8,0.5,1
			s0.8,0.3,1.4,0.3h1.4V346.3z"/>
		<path fill="#F15A29" d="M684.1,352.9h-1.4v-3.3h-3.5v3.3h-1.4v-7.6h1.4v3.1h3.5v-3.1h1.4V352.9z"/>
		<path fill="#F15A29" d="M689.2,353c-0.6,0-1.1,0-1.6-0.1c-0.5-0.1-0.8-0.1-1.1-0.2v-7.4c0.3-0.1,0.6-0.1,1.1-0.2
			c0.5-0.1,1-0.1,1.6-0.1c0.4,0,0.8,0,1.1,0.1c0.4,0.1,0.7,0.2,1,0.3c0.3,0.2,0.5,0.4,0.7,0.6c0.2,0.3,0.3,0.6,0.3,1
			c0,0.4-0.1,0.7-0.3,0.9c-0.2,0.3-0.4,0.4-0.7,0.6c0.4,0.1,0.7,0.3,1,0.6s0.4,0.7,0.4,1.2c0,0.4-0.1,0.8-0.3,1.1s-0.4,0.5-0.7,0.7
			c-0.3,0.2-0.7,0.3-1.1,0.4C690.1,353,689.7,353,689.2,353z M689.2,348.4c0.3,0,0.5,0,0.7,0s0.4-0.1,0.5-0.2
			c0.2-0.1,0.3-0.2,0.4-0.3c0.1-0.1,0.1-0.3,0.1-0.5s-0.1-0.4-0.2-0.5c-0.1-0.1-0.3-0.2-0.4-0.3c-0.2-0.1-0.4-0.1-0.6-0.1
			c-0.2,0-0.5,0-0.7,0s-0.4,0-0.7,0c-0.2,0-0.4,0-0.6,0v2.2h1.6V348.4z M687.8,351.8c0.1,0,0.1,0,0.2,0c0.1,0,0.2,0,0.3,0
			c0.1,0,0.3,0,0.4,0c0.1,0,0.3,0,0.4,0c0.3,0,0.5,0,0.8-0.1c0.2,0,0.5-0.1,0.6-0.2c0.2-0.1,0.3-0.2,0.4-0.4
			c0.1-0.2,0.2-0.4,0.2-0.6c0-0.2,0-0.4-0.1-0.6c-0.1-0.2-0.2-0.3-0.4-0.4c-0.2-0.1-0.4-0.2-0.6-0.2c-0.2,0-0.5-0.1-0.7-0.1h-1.7
			v2.7H687.8z"/>
		<path fill="#F15A29" d="M696,352c0,0.3-0.1,0.5-0.3,0.7s-0.4,0.3-0.7,0.3c-0.3,0-0.5-0.1-0.7-0.3s-0.3-0.4-0.3-0.7
			c0-0.3,0.1-0.5,0.3-0.7s0.4-0.3,0.7-0.3c0.3,0,0.5,0.1,0.7,0.3C695.9,351.6,696,351.8,696,352z"/>
		<path fill="#F15A29" d="M699.4,341.9c0,0.1,0,0.2,0,0.3s0,0.2,0,0.3c0,0.5-0.1,1-0.3,1.5c-0.2,0.5-0.4,0.9-0.6,1.4l-1-0.3
			c0.2-0.4,0.3-0.8,0.4-1.4c0.1-0.5,0.1-0.8,0.1-1.2c0-0.1,0-0.2,0-0.3s0-0.2,0-0.3h1.5V341.9z"/>
		<path fill="#F15A29" d="M701.7,344.9c0.5-0.2,1-0.5,1.7-0.8c0.5-0.3,1-0.7,1.5-1.2h0.9v10.1h-1.4v-8.2c-0.1,0.1-0.2,0.2-0.4,0.3
			c-0.2,0.1-0.3,0.2-0.5,0.3s-0.4,0.2-0.6,0.3c-0.2,0.1-0.4,0.2-0.6,0.2L701.7,344.9z"/>
		<path fill="#F15A29" d="M715.8,346.8c0,2-0.5,3.5-1.5,4.6c-1,1-2.5,1.6-4.5,1.6v-1.1c0.6,0,1.1-0.1,1.7-0.2
			c0.5-0.1,0.9-0.3,1.2-0.5c0.4-0.2,0.7-0.6,0.9-1c0.2-0.4,0.4-0.9,0.5-1.5c-0.2,0.1-0.5,0.2-0.8,0.3s-0.6,0.1-1,0.1
			c-0.6,0-1-0.1-1.5-0.2c-0.4-0.2-0.7-0.4-0.9-0.7s-0.4-0.6-0.5-1c-0.1-0.4-0.2-0.7-0.2-1.1c0-0.3,0.1-0.7,0.2-1.1
			c0.1-0.4,0.3-0.7,0.6-1c0.2-0.3,0.6-0.6,0.9-0.8c0.4-0.2,0.8-0.3,1.5-0.3c0.5,0,1,0.1,1.5,0.3c0.4,0.2,0.7,0.5,1,0.8
			c0.3,0.4,0.5,0.8,0.6,1.4C715.7,345.6,715.8,346.1,715.8,346.8z M712.5,347.8c0.3,0,0.6,0,0.9-0.1c0.3-0.1,0.6-0.2,0.8-0.3
			c0-0.1,0-0.2,0-0.3s0-0.2,0-0.3c0-0.4,0-0.8-0.1-1.2c-0.1-0.4-0.2-0.7-0.3-1s-0.3-0.5-0.6-0.7c-0.2-0.2-0.6-0.2-0.9-0.2
			c-0.3,0-0.6,0.1-0.8,0.2c-0.2,0.1-0.4,0.3-0.5,0.5c-0.1,0.2-0.2,0.4-0.3,0.7c-0.1,0.2-0.1,0.5-0.1,0.7c0,0.6,0.2,1.1,0.5,1.5
			C711.4,347.7,711.8,347.8,712.5,347.8z"/>
		<path fill="#F15A29" d="M719.2,351.2c0,0.1,0,0.1,0,0.2c0,0.1,0,0.1,0,0.2c0,0.6-0.1,1.2-0.3,1.8c-0.2,0.6-0.4,1.1-0.7,1.7l-1-0.3
			c0.2-0.5,0.4-1,0.5-1.5c0.1-0.5,0.1-0.9,0.1-1.5c0-0.1,0-0.2,0-0.3s0-0.2,0-0.3H719.2z M719.4,346.3c0,0.3-0.1,0.5-0.3,0.7
			c-0.2,0.2-0.4,0.3-0.7,0.3s-0.5-0.1-0.7-0.3c-0.2-0.2-0.3-0.4-0.3-0.7s0.1-0.5,0.3-0.7c0.2-0.2,0.4-0.3,0.7-0.3s0.5,0.1,0.7,0.3
			C719.3,345.8,719.4,346,719.4,346.3z"/>
		<path fill="#F15A29" d="M724.9,344.9c0.5-0.2,1-0.5,1.7-0.8c0.5-0.3,1-0.7,1.5-1.2h0.9v10.1h-1.4v-8.2c-0.1,0.1-0.2,0.2-0.4,0.3
			s-0.3,0.2-0.5,0.3s-0.4,0.2-0.6,0.3c-0.2,0.1-0.4,0.2-0.6,0.2L724.9,344.9z"/>
		<path fill="#F15A29" d="M734.7,346.6c1.5,0.1,2.5,0.4,3.2,0.9c0.7,0.6,1,1.4,1,2.4c0,0.4-0.1,0.8-0.2,1.2
			c-0.1,0.4-0.4,0.7-0.7,0.9c-0.3,0.3-0.7,0.5-1.1,0.6c-0.4,0.1-1,0.2-1.7,0.2c-0.2,0-0.5,0-0.7-0.1s-0.5-0.1-0.7-0.1
			c-0.2-0.1-0.4-0.1-0.6-0.2c-0.2-0.1-0.3-0.1-0.4-0.1l0.3-1.1c0.2,0.1,0.4,0.2,0.8,0.3c0.4,0.1,0.8,0.2,1.4,0.2
			c0.4,0,0.8,0,1.1-0.1c0.3-0.1,0.5-0.2,0.7-0.4c0.2-0.2,0.3-0.3,0.4-0.6s0.1-0.4,0.1-0.7c0-0.4-0.1-0.7-0.2-0.9
			c-0.1-0.3-0.3-0.5-0.6-0.7c-0.3-0.2-0.7-0.3-1.2-0.4s-1.2-0.1-2-0.1c0.1-0.5,0.1-0.9,0.1-1.4c0-0.4,0.1-0.8,0.1-1.2
			c0-0.4,0.1-0.8,0.1-1.1s0-0.8,0.1-1.2h4.9v1.1h-3.6c0,0.1,0,0.3,0,0.6c0,0.2,0,0.5-0.1,0.7c0,0.3,0,0.5-0.1,0.7
			C734.8,346.3,734.7,346.5,734.7,346.6z"/>
		<path fill="#F15A29" d="M742.9,346.6c1.5,0.1,2.5,0.4,3.2,0.9c0.7,0.6,1,1.4,1,2.4c0,0.4-0.1,0.8-0.2,1.2
			c-0.1,0.4-0.4,0.7-0.7,0.9c-0.3,0.3-0.7,0.5-1.1,0.6c-0.4,0.1-1,0.2-1.7,0.2c-0.2,0-0.5,0-0.7-0.1s-0.5-0.1-0.7-0.1
			c-0.2-0.1-0.4-0.1-0.6-0.2c-0.2-0.1-0.3-0.1-0.4-0.1l0.3-1.1c0.2,0.1,0.4,0.2,0.8,0.3c0.4,0.1,0.8,0.2,1.4,0.2
			c0.4,0,0.8,0,1.1-0.1s0.5-0.2,0.7-0.4c0.2-0.2,0.3-0.3,0.4-0.6c0.1-0.2,0.1-0.4,0.1-0.7c0-0.4-0.1-0.7-0.2-0.9
			c-0.1-0.2-0.3-0.5-0.6-0.7s-0.7-0.3-1.2-0.4c-0.5-0.1-1.2-0.1-2-0.1c0.1-0.5,0.1-0.9,0.1-1.4c0-0.4,0.1-0.8,0.1-1.2
			c0-0.4,0.1-0.8,0.1-1.1c0-0.4,0-0.8,0.1-1.2h4.9v1.1h-3.6c0,0.1,0,0.3,0,0.6c0,0.2,0,0.5-0.1,0.7c0,0.3,0,0.5-0.1,0.7
			C742.9,346.3,742.9,346.5,742.9,346.6z"/>
		<path fill="#F15A29" d="M755.5,346.8c0,2-0.5,3.5-1.5,4.6c-1,1-2.5,1.6-4.5,1.6v-1.1c0.6,0,1.1-0.1,1.7-0.2
			c0.5-0.1,0.9-0.3,1.2-0.5c0.3-0.2,0.7-0.6,0.9-1c0.2-0.4,0.4-0.9,0.5-1.5c-0.2,0.1-0.5,0.2-0.8,0.3s-0.6,0.1-1,0.1
			c-0.6,0-1-0.1-1.5-0.2c-0.4-0.2-0.7-0.4-0.9-0.7s-0.4-0.6-0.5-1c-0.1-0.4-0.2-0.7-0.2-1.1c0-0.3,0.1-0.7,0.2-1.1s0.3-0.7,0.6-1
			c0.2-0.3,0.6-0.6,0.9-0.8c0.3-0.2,0.8-0.3,1.5-0.3c0.5,0,1,0.1,1.5,0.3c0.4,0.2,0.7,0.5,1,0.8c0.3,0.4,0.5,0.8,0.6,1.4
			C755.5,345.6,755.5,346.1,755.5,346.8z M752.3,347.8c0.3,0,0.6,0,0.9-0.1c0.3-0.1,0.6-0.2,0.8-0.3c0-0.1,0-0.2,0-0.3s0-0.2,0-0.3
			c0-0.4,0-0.8-0.1-1.2c-0.1-0.4-0.2-0.7-0.3-1s-0.3-0.5-0.6-0.7c-0.2-0.2-0.6-0.2-0.9-0.2c-0.3,0-0.6,0.1-0.8,0.2
			c-0.2,0.1-0.4,0.3-0.5,0.5c-0.1,0.2-0.2,0.4-0.3,0.7c-0.1,0.2-0.1,0.5-0.1,0.7c0,0.6,0.2,1.1,0.5,1.5
			C751.1,347.5,751.7,347.8,752.3,347.8z"/>
	</g>
	<g>
		<path fill="#F15A29" d="M821.2,312.4H820v-2.6c-0.6,0-1.1-0.1-1.7-0.3c-0.5-0.2-0.9-0.4-1.4-0.7c-0.4-0.3-0.7-0.7-0.9-1.1
			s-0.3-1-0.3-1.6c0-0.6,0.1-1.1,0.3-1.6c0.2-0.4,0.5-0.8,0.9-1.1s0.8-0.6,1.4-0.7c0.5-0.2,1-0.3,1.7-0.3v-3.4l1.4-0.2v3.6
			c0.5,0,1.1,0.1,1.6,0.3c0.4,0.2,0.9,0.4,1.4,0.7c0.4,0.3,0.7,0.7,0.9,1.1s0.3,1,0.3,1.6c0,0.6-0.1,1.1-0.3,1.6
			c-0.2,0.4-0.5,0.8-0.9,1.1c-0.4,0.3-0.8,0.6-1.4,0.7c-0.5,0.1-1,0.3-1.6,0.3v2.6H821.2z M817.2,306c0,0.4,0.1,0.8,0.2,1.1
			c0.1,0.3,0.3,0.6,0.6,0.8c0.2,0.2,0.5,0.4,0.9,0.5s0.7,0.2,1.1,0.2v-5.4c-0.4,0-0.7,0.1-1.1,0.2c-0.3,0.1-0.6,0.3-0.9,0.5
			c-0.2,0.2-0.4,0.5-0.6,0.8C817.2,305.1,817.2,305.6,817.2,306z M821.2,308.6c0.4,0,0.7-0.1,1.1-0.2c0.3-0.1,0.6-0.3,0.9-0.5
			c0.2-0.2,0.4-0.5,0.6-0.8c0.1-0.3,0.2-0.7,0.2-1.1c0-0.4-0.1-0.8-0.2-1.1c-0.1-0.3-0.3-0.6-0.6-0.8c-0.2-0.2-0.5-0.4-0.9-0.5
			c-0.3-0.1-0.7-0.2-1.1-0.2V308.6z"/>
		<path fill="#F15A29" d="M826.9,306c0-0.6,0.1-1.2,0.3-1.8c0.2-0.5,0.4-0.9,0.7-1.2s0.7-0.6,1.1-0.7s0.8-0.2,1.2-0.2
			c1,0,1.8,0.3,2.4,0.9s0.8,1.6,0.8,2.9c0,0.1,0,0.1,0,0.2c0,0.1,0,0.2,0,0.2h-5.2c0.1,0.8,0.3,1.4,0.7,1.8c0.4,0.4,1,0.6,1.9,0.6
			c0.5,0,0.8,0,1.2-0.1c0.3-0.1,0.5-0.2,0.7-0.2l0.2,1.1c-0.2,0.1-0.4,0.2-0.8,0.3s-0.8,0.1-1.5,0.1c-0.6,0-1.2-0.1-1.7-0.3
			c-0.5-0.2-0.8-0.5-1.1-0.8s-0.5-0.7-0.7-1.2C827,307,826.9,306.5,826.9,306z M832.1,305.2c0-0.6-0.1-1.1-0.4-1.5
			c-0.3-0.4-0.7-0.6-1.4-0.6c-0.3,0-0.6,0.1-0.8,0.2c-0.2,0.1-0.4,0.3-0.6,0.5c-0.2,0.2-0.3,0.4-0.4,0.6s-0.1,0.5-0.2,0.7H832.1z"/>
		<path fill="#F15A29" d="M838.3,309.8c-0.6,0-1.1,0-1.6-0.1c-0.5-0.1-0.8-0.1-1.1-0.2v-7.4c0.3-0.1,0.6-0.1,1.1-0.2
			c0.5-0.1,1-0.1,1.6-0.1c0.4,0,0.8,0,1.1,0.1c0.4,0.1,0.7,0.2,1,0.3c0.3,0.2,0.5,0.4,0.7,0.6c0.2,0.3,0.3,0.6,0.3,1
			c0,0.4-0.1,0.7-0.3,0.9c-0.2,0.3-0.4,0.4-0.7,0.6c0.4,0.1,0.7,0.3,1,0.6c0.2,0.3,0.4,0.7,0.4,1.2c0,0.4-0.1,0.8-0.3,1.1
			s-0.4,0.5-0.7,0.7c-0.3,0.2-0.7,0.3-1.1,0.4C839.2,309.8,838.7,309.8,838.3,309.8z M838.3,305.2c0.3,0,0.5,0,0.7,0
			s0.4-0.1,0.5-0.2c0.2-0.1,0.3-0.2,0.4-0.3s0.1-0.3,0.1-0.5s-0.1-0.4-0.2-0.5c-0.1-0.1-0.3-0.2-0.4-0.3c-0.2-0.1-0.4-0.1-0.6-0.1
			c-0.2,0-0.5,0-0.7,0s-0.4,0-0.7,0c-0.2,0-0.4,0-0.6,0v2.2h1.6V305.2z M836.8,308.7c0.1,0,0.1,0,0.2,0c0.1,0,0.2,0,0.4,0
			c0.1,0,0.3,0,0.4,0c0.1,0,0.3,0,0.4,0c0.3,0,0.5,0,0.8-0.1c0.2,0,0.5-0.1,0.6-0.2c0.2-0.1,0.3-0.2,0.4-0.4
			c0.1-0.2,0.2-0.4,0.2-0.6c0-0.2,0-0.4-0.1-0.6c-0.1-0.2-0.2-0.3-0.4-0.4s-0.4-0.2-0.6-0.2c-0.2,0-0.5-0.1-0.7-0.1h-1.7
			L836.8,308.7L836.8,308.7z"/>
		<path fill="#F15A29" d="M845,308.9c0,0.3-0.1,0.5-0.3,0.7s-0.4,0.3-0.7,0.3c-0.3,0-0.5-0.1-0.7-0.3s-0.3-0.4-0.3-0.7
			c0-0.3,0.1-0.5,0.3-0.7c0.2-0.2,0.4-0.3,0.7-0.3c0.3,0,0.5,0.1,0.7,0.3C844.9,308.5,845,308.7,845,308.9z"/>
		<path fill="#F15A29" d="M848.5,298.8c0,0.1,0,0.2,0,0.3s0,0.2,0,0.3c0,0.5-0.1,1-0.3,1.5c-0.2,0.5-0.4,0.9-0.6,1.4l-1-0.3
			c0.2-0.4,0.3-0.8,0.4-1.4c0.1-0.4,0.1-0.8,0.1-1.2c0-0.1,0-0.2,0-0.3s0-0.2,0-0.3h1.5V298.8z"/>
		<path fill="#F15A29" d="M850.6,301.7c0.5-0.2,1.1-0.5,1.7-0.8c0.5-0.3,1-0.7,1.5-1.2h0.9v10.1h-1.4v-8.2c-0.1,0.1-0.3,0.2-0.4,0.3
			c-0.2,0.1-0.3,0.2-0.5,0.3c-0.2,0.1-0.4,0.2-0.6,0.3s-0.4,0.2-0.6,0.2L850.6,301.7z"/>
		<path fill="#F15A29" d="M864.8,303.7c0,2-0.5,3.5-1.5,4.6c-1,1-2.5,1.6-4.5,1.6v-1.1c0.6,0,1.1-0.1,1.7-0.2s0.9-0.3,1.2-0.5
			c0.4-0.2,0.7-0.6,0.9-1c0.2-0.4,0.4-0.9,0.5-1.5c-0.2,0.1-0.5,0.2-0.8,0.3s-0.6,0.1-1,0.1c-0.6,0-1-0.1-1.5-0.2
			c-0.4-0.2-0.7-0.4-0.9-0.7s-0.4-0.6-0.5-1c-0.1-0.4-0.2-0.7-0.2-1.1c0-0.3,0.1-0.7,0.2-1.1c0.1-0.4,0.3-0.7,0.6-1
			c0.2-0.3,0.6-0.6,0.9-0.8c0.4-0.2,0.8-0.3,1.5-0.3c0.5,0,1,0.1,1.5,0.3c0.4,0.2,0.7,0.5,1,0.8c0.3,0.4,0.5,0.8,0.6,1.4
			S864.8,303,864.8,303.7z M861.6,304.6c0.3,0,0.6,0,0.9-0.1c0.3-0.1,0.6-0.2,0.8-0.3c0-0.1,0-0.2,0-0.3s0-0.2,0-0.3
			c0-0.4,0-0.8-0.1-1.2c-0.1-0.4-0.2-0.7-0.3-1c-0.1-0.3-0.3-0.5-0.6-0.7c-0.2-0.2-0.6-0.2-0.9-0.2c-0.3,0-0.6,0.1-0.8,0.2
			c-0.2,0.1-0.4,0.3-0.5,0.5s-0.2,0.4-0.3,0.7c-0.1,0.2-0.1,0.5-0.1,0.7c0,0.6,0.2,1.1,0.5,1.5C860.4,304.5,860.9,304.6,861.6,304.6
			z"/>
		<path fill="#F15A29" d="M868.3,308c0,0.1,0,0.1,0,0.2c0,0.1,0,0.1,0,0.2c0,0.6-0.1,1.2-0.3,1.8c-0.2,0.6-0.4,1.1-0.7,1.7l-1-0.3
			c0.2-0.5,0.4-1,0.5-1.5c0.1-0.5,0.1-0.9,0.1-1.5c0-0.1,0-0.2,0-0.4c0-0.1,0-0.2,0-0.3h1.5V308z M868.5,303.2
			c0,0.3-0.1,0.5-0.3,0.7c-0.2,0.2-0.4,0.3-0.7,0.3s-0.5-0.1-0.7-0.3c-0.2-0.2-0.3-0.4-0.3-0.7s0.1-0.5,0.3-0.7
			c0.2-0.2,0.4-0.3,0.7-0.3s0.5,0.1,0.7,0.3C868.4,302.6,868.5,302.9,868.5,303.2z"/>
		<path fill="#F15A29" d="M874,301.7c0.5-0.2,1.1-0.5,1.7-0.8s1-0.7,1.5-1.2h0.9v10.1h-1.4v-8.2c-0.1,0.1-0.3,0.2-0.4,0.3
			c-0.2,0.1-0.3,0.2-0.5,0.3s-0.4,0.2-0.6,0.3c-0.2,0.1-0.4,0.2-0.6,0.2L874,301.7z"/>
		<path fill="#F15A29" d="M883.3,309.7c0.1-0.7,0.2-1.6,0.4-2.5c0.2-0.8,0.5-1.7,0.8-2.5s0.6-1.6,1-2.3c0.4-0.7,0.7-1.2,1.1-1.7
			h-4.9v-1.1h6.4v1.1c-0.3,0.4-0.6,0.8-1,1.6c-0.4,0.6-0.7,1.4-1.1,2.2s-0.6,1.7-0.9,2.6c-0.2,0.9-0.4,1.8-0.4,2.7h-1.5V309.7z"/>
		<path fill="#F15A29" d="M889.8,304.6c0-1.7,0.3-3,0.9-4c0.6-0.9,1.5-1.4,2.5-1.4s1.9,0.4,2.5,1.4c0.6,0.9,0.9,2.2,0.9,4
			c0,1.8-0.3,3-0.9,4s-1.5,1.4-2.5,1.4s-1.9-0.4-2.5-1.4C890.1,307.6,889.8,306.4,889.8,304.6z M895.1,304.6c0-0.5,0-1-0.1-1.6
			c-0.1-0.5-0.2-0.9-0.3-1.2c-0.1-0.4-0.3-0.6-0.6-0.8c-0.2-0.2-0.5-0.3-0.9-0.3s-0.7,0.1-0.9,0.3c-0.2,0.2-0.4,0.5-0.6,0.8
			c-0.1,0.4-0.2,0.8-0.3,1.2c-0.1,0.4-0.1,1-0.1,1.6c0,0.5,0,1,0.1,1.6c0.1,0.5,0.2,0.9,0.3,1.2c0.1,0.4,0.3,0.6,0.6,0.8
			c0.2,0.2,0.5,0.3,0.9,0.3s0.7-0.1,0.9-0.3c0.2-0.2,0.4-0.5,0.6-0.8c0.1-0.4,0.2-0.8,0.3-1.2C895.1,305.8,895.1,305.2,895.1,304.6z
			"/>
		<path fill="#F15A29" d="M898.2,305.7c0-0.9,0.1-1.9,0.4-2.6c0.3-0.7,0.6-1.4,1.1-1.9c0.5-0.5,1.1-0.9,1.9-1.1
			c0.7-0.3,1.6-0.4,2.4-0.4l0.1,1.1c-0.6,0-1.1,0.1-1.6,0.2c-0.5,0.1-0.9,0.3-1.2,0.5s-0.7,0.6-0.9,0.9c-0.2,0.4-0.4,0.9-0.5,1.5
			c0.2-0.1,0.5-0.2,0.8-0.3c0.3-0.1,0.6-0.1,0.9-0.1c0.6,0,1,0.1,1.5,0.3c0.4,0.2,0.7,0.4,0.9,0.7s0.4,0.6,0.5,1
			c0.1,0.4,0.2,0.7,0.2,1.1s-0.1,0.7-0.2,1.1c-0.1,0.4-0.3,0.7-0.6,1c-0.2,0.3-0.6,0.6-0.9,0.8c-0.3,0.2-0.8,0.3-1.5,0.3
			c-1.1,0-2-0.4-2.5-1.1C898.5,308,898.2,307,898.2,305.7z M901.5,304.6c-0.3,0-0.6,0-0.9,0.1s-0.6,0.2-0.8,0.3c0,0.1,0,0.2,0,0.3
			c0,0.1,0,0.2,0,0.3c0,0.4,0,0.8,0.1,1.2c0.1,0.4,0.2,0.7,0.3,1c0.1,0.3,0.3,0.5,0.6,0.7c0.2,0.2,0.6,0.2,0.9,0.2
			c0.3,0,0.6-0.1,0.8-0.2c0.2-0.1,0.4-0.3,0.5-0.5c0.1-0.2,0.2-0.4,0.3-0.7c0.1-0.2,0.1-0.5,0.1-0.7c0-0.6-0.2-1.1-0.5-1.6
			C902.5,304.8,902.1,304.6,901.5,304.6z"/>
		<path fill="#F15A29" d="M906.1,306.2c0.2-0.4,0.4-0.9,0.7-1.5c0.3-0.5,0.7-1.1,1-1.8c0.4-0.6,0.8-1.1,1.2-1.8s0.9-1.1,1.4-1.6h1.2
			v6.4h1.1v1.1h-1.1v2.6h-1.4v-2.6h-4.5v-1H906.1z M910.6,301.2c-0.3,0.3-0.6,0.6-0.8,1c-0.3,0.4-0.6,0.8-0.8,1.2
			c-0.2,0.4-0.5,0.8-0.8,1.2c-0.2,0.4-0.5,0.8-0.6,1.2h3.2v-4.8H910.6z"/>
	</g>
	<g>
		<path fill="#F15A29" d="M989.8,231.3c-0.1,0.9-0.2,1.9-0.2,2.9c0,0.9-0.1,1.9-0.1,2.7h-1.2c0-0.6,0-1.2,0.1-1.9
			c0-0.6,0.1-1.2,0.1-2c0-0.6,0.1-1.4,0.2-2c0.1-0.6,0.1-1.2,0.2-1.9h1.2c0.3,0.5,0.6,1.2,1.1,2.1c0.4,0.8,0.9,1.9,1.5,3
			c0.5-1.1,1-2.2,1.5-3c0.4-0.8,0.8-1.6,1-2.1h1.2c0.1,0.6,0.1,1.1,0.2,1.9c0.1,0.6,0.1,1.2,0.2,2c0,0.6,0.1,1.4,0.1,2
			s0.1,1.2,0.1,1.9h-1.4c0-0.8-0.1-1.8-0.1-2.7c0-0.9-0.1-1.9-0.2-2.9c-0.1,0.3-0.3,0.6-0.5,1c-0.2,0.4-0.4,0.8-0.6,1.2
			c-0.2,0.4-0.4,0.8-0.5,1.2s-0.3,0.7-0.4,0.9h-1.1c-0.1-0.2-0.2-0.5-0.4-0.9c-0.2-0.4-0.4-0.8-0.5-1.2c-0.2-0.4-0.4-0.8-0.6-1.2
			C990.2,231.9,990.1,231.6,989.8,231.3z"/>
		<path fill="#F15A29" d="M1001.5,229.1c0.5,0,1,0.1,1.4,0.2c0.3,0.1,0.6,0.3,0.9,0.6c0.2,0.2,0.4,0.5,0.5,0.9
			c0.1,0.3,0.1,0.7,0.1,1.1v4.7c-0.1,0-0.3,0-0.5,0.1c-0.2,0-0.4,0.1-0.7,0.1c-0.3,0-0.5,0.1-0.8,0.1s-0.6,0-0.9,0
			c-0.4,0-0.8,0-1.1-0.1c-0.3-0.1-0.6-0.2-0.9-0.4c-0.3-0.2-0.4-0.4-0.6-0.7c-0.1-0.3-0.2-0.7-0.2-1.1c0-0.4,0.1-0.7,0.2-1
			c0.2-0.3,0.4-0.5,0.7-0.7c0.3-0.2,0.6-0.3,1-0.4s0.8-0.1,1.2-0.1c0.1,0,0.3,0,0.4,0c0.1,0,0.3,0,0.4,0.1c0.1,0,0.2,0,0.3,0.1
			c0.1,0,0.2,0,0.2,0v-0.4c0-0.2,0-0.4-0.1-0.6c-0.1-0.2-0.1-0.4-0.3-0.6c-0.1-0.2-0.3-0.3-0.5-0.4s-0.5-0.1-0.8-0.1
			c-0.4,0-0.8,0-1.1,0.1s-0.6,0.1-0.7,0.2l-0.2-1.1c0.2-0.1,0.4-0.1,0.8-0.2C1000.6,229.2,1001.1,229.1,1001.5,229.1z M1001.6,236
			c0.3,0,0.6,0,0.8,0s0.4,0,0.6-0.1v-2.3c-0.1,0-0.2-0.1-0.5-0.1c-0.2,0-0.5,0-0.8,0c-0.2,0-0.4,0-0.6,0c-0.2,0-0.4,0.1-0.6,0.2
			c-0.2,0.1-0.3,0.2-0.5,0.4s-0.2,0.4-0.2,0.6c0,0.5,0.1,0.8,0.4,1C1000.7,235.9,1001.1,236,1001.6,236z"/>
		<path fill="#F15A29" d="M1013.3,233.2c0,0.6-0.1,1.1-0.2,1.6c-0.1,0.5-0.4,0.9-0.6,1.2c-0.2,0.3-0.6,0.6-1,0.8
			c-0.4,0.2-0.9,0.3-1.5,0.3c-0.4,0-0.8-0.1-1.1-0.2c-0.3-0.1-0.6-0.2-0.7-0.3v3h-1.4v-10c0.3-0.1,0.7-0.2,1.2-0.2
			c0.5-0.1,1-0.1,1.7-0.1c0.6,0,1.1,0.1,1.6,0.3c0.4,0.2,0.8,0.4,1.1,0.8c0.3,0.3,0.6,0.7,0.7,1.2S1013.3,232.6,1013.3,233.2z
			 M1011.9,233.2c0-0.8-0.2-1.6-0.6-2.1c-0.4-0.5-1-0.7-1.8-0.7c-0.4,0-0.7,0-0.9,0s-0.4,0.1-0.5,0.1v4.8c0.2,0.1,0.4,0.3,0.7,0.4
			c0.3,0.1,0.6,0.2,1,0.2c0.4,0,0.7-0.1,1-0.2c0.3-0.1,0.5-0.3,0.7-0.6c0.2-0.2,0.3-0.5,0.4-0.8
			C1011.9,233.9,1011.9,233.5,1011.9,233.2z"/>
		<path fill="#F15A29" d="M1016.6,236.1c0,0.3-0.1,0.5-0.3,0.7c-0.2,0.2-0.4,0.3-0.7,0.3s-0.5-0.1-0.7-0.3c-0.2-0.2-0.3-0.4-0.3-0.7
			c0-0.3,0.1-0.5,0.3-0.7c0.2-0.2,0.4-0.3,0.7-0.3s0.5,0.1,0.7,0.3C1016.5,235.7,1016.6,235.9,1016.6,236.1z"/>
		<path fill="#F15A29" d="M1019.9,226c0,0.1,0,0.2,0,0.3c0,0.1,0,0.2,0,0.3c0,0.5-0.1,1-0.3,1.5c-0.2,0.5-0.4,0.9-0.6,1.4l-1-0.3
			c0.2-0.4,0.3-0.8,0.4-1.4c0.1-0.4,0.1-0.8,0.1-1.2c0-0.1,0-0.2,0-0.3c0-0.1,0-0.2,0-0.3h1.5V226z"/>
		<path fill="#F15A29" d="M1022.2,228.9c0.5-0.2,1-0.5,1.7-0.8c0.5-0.3,1-0.7,1.5-1.2h0.9v10.1h-1.5v-8.2c-0.1,0.1-0.2,0.2-0.4,0.3
			c-0.2,0.1-0.3,0.2-0.5,0.3s-0.4,0.2-0.6,0.3s-0.4,0.2-0.6,0.2L1022.2,228.9z"/>
		<path fill="#F15A29" d="M1036.3,230.9c0,2-0.5,3.5-1.5,4.6c-1,1-2.5,1.6-4.5,1.6v-1.1c0.6,0,1.1-0.1,1.7-0.2
			c0.5-0.1,0.9-0.3,1.2-0.5c0.4-0.2,0.7-0.6,0.9-1c0.2-0.4,0.4-0.9,0.5-1.5c-0.2,0.1-0.5,0.2-0.8,0.3c-0.3,0.1-0.6,0.1-1,0.1
			c-0.6,0-1-0.1-1.5-0.2c-0.4-0.2-0.7-0.4-0.9-0.7c-0.2-0.3-0.4-0.6-0.5-1c-0.1-0.4-0.2-0.7-0.2-1.1c0-0.3,0.1-0.7,0.2-1.1
			c0.1-0.4,0.3-0.7,0.6-1c0.2-0.3,0.6-0.6,0.9-0.8c0.4-0.2,0.8-0.3,1.5-0.3c0.5,0,1,0.1,1.5,0.3c0.4,0.2,0.7,0.5,1,0.8
			c0.3,0.4,0.5,0.8,0.6,1.4C1036.2,229.7,1036.3,230.2,1036.3,230.9z M1033,231.8c0.3,0,0.6,0,0.9-0.1s0.6-0.2,0.8-0.3
			c0-0.1,0-0.2,0-0.3s0-0.2,0-0.3c0-0.4,0-0.8-0.1-1.2c-0.1-0.4-0.2-0.7-0.3-1c-0.1-0.3-0.3-0.5-0.6-0.7c-0.2-0.2-0.6-0.2-0.9-0.2
			c-0.3,0-0.6,0.1-0.8,0.2c-0.2,0.1-0.4,0.3-0.5,0.5c-0.1,0.2-0.2,0.4-0.3,0.7c-0.1,0.2-0.1,0.5-0.1,0.7c0,0.6,0.2,1.1,0.5,1.5
			C1032,231.7,1032.4,231.8,1033,231.8z"/>
		<path fill="#F15A29" d="M1039.9,235.3c0,0.1,0,0.1,0,0.2c0,0.1,0,0.1,0,0.2c0,0.6-0.1,1.2-0.3,1.8c-0.2,0.6-0.4,1.1-0.7,1.7
			l-1-0.3c0.2-0.5,0.4-1,0.5-1.5c0.1-0.5,0.1-0.9,0.1-1.5c0-0.1,0-0.2,0-0.4c0-0.1,0-0.2,0-0.3h1.5V235.3z M1040,230.4
			c0,0.3-0.1,0.5-0.3,0.7c-0.2,0.2-0.4,0.3-0.7,0.3s-0.5-0.1-0.7-0.3c-0.2-0.2-0.3-0.4-0.3-0.7s0.1-0.5,0.3-0.7
			c0.2-0.2,0.4-0.3,0.7-0.3s0.5,0.1,0.7,0.3C1039.9,229.9,1040,230.1,1040,230.4z"/>
		<path fill="#F15A29" d="M1045.5,228.9c0.5-0.2,1.1-0.5,1.7-0.8c0.5-0.3,1-0.7,1.5-1.2h0.9v10.1h-1.4v-8.2
			c-0.1,0.1-0.3,0.2-0.4,0.3c-0.2,0.1-0.3,0.2-0.5,0.3c-0.2,0.1-0.4,0.2-0.6,0.3s-0.4,0.2-0.6,0.2L1045.5,228.9z"/>
		<path fill="#F15A29" d="M1059.7,230.9c0,2-0.5,3.5-1.5,4.6c-1,1-2.5,1.6-4.5,1.6v-1.1c0.6,0,1.1-0.1,1.7-0.2
			c0.5-0.1,0.9-0.3,1.2-0.5c0.4-0.2,0.7-0.6,0.9-1c0.2-0.4,0.4-0.9,0.5-1.5c-0.2,0.1-0.5,0.2-0.8,0.3c-0.3,0.1-0.6,0.1-1,0.1
			c-0.6,0-1-0.1-1.5-0.2c-0.4-0.2-0.7-0.4-0.9-0.7s-0.4-0.6-0.5-1c-0.1-0.4-0.2-0.7-0.2-1.1c0-0.3,0.1-0.7,0.2-1.1
			c0.1-0.4,0.3-0.7,0.6-1c0.2-0.3,0.6-0.6,0.9-0.8c0.4-0.2,0.8-0.3,1.5-0.3c0.5,0,1,0.1,1.5,0.3c0.4,0.2,0.7,0.5,1,0.8
			c0.3,0.4,0.5,0.8,0.6,1.4C1059.6,229.7,1059.7,230.2,1059.7,230.9z M1056.4,231.8c0.3,0,0.6,0,0.9-0.1s0.6-0.2,0.8-0.3
			c0-0.1,0-0.2,0-0.3s0-0.2,0-0.3c0-0.4,0-0.8-0.1-1.2c-0.1-0.4-0.2-0.7-0.3-1c-0.1-0.3-0.3-0.5-0.6-0.7c-0.2-0.2-0.6-0.2-0.9-0.2
			s-0.6,0.1-0.8,0.2c-0.2,0.1-0.4,0.3-0.5,0.5c-0.1,0.2-0.2,0.4-0.3,0.7c-0.1,0.2-0.1,0.5-0.1,0.7c0,0.6,0.2,1.1,0.5,1.5
			C1055.3,231.7,1055.8,231.8,1056.4,231.8z"/>
		<path fill="#F15A29" d="M1063.5,230.7c1.5,0.1,2.5,0.4,3.2,0.9c0.7,0.6,1,1.4,1,2.4c0,0.4-0.1,0.8-0.2,1.2
			c-0.1,0.4-0.4,0.7-0.7,0.9c-0.3,0.2-0.7,0.5-1.1,0.6c-0.4,0.1-1,0.2-1.7,0.2c-0.2,0-0.5,0-0.7-0.1c-0.3,0-0.5-0.1-0.7-0.1
			c-0.2-0.1-0.4-0.1-0.6-0.2s-0.3-0.1-0.4-0.1l0.3-1.1c0.2,0.1,0.4,0.2,0.8,0.3c0.4,0.1,0.8,0.2,1.4,0.2c0.4,0,0.8,0,1.1-0.1
			c0.3-0.1,0.5-0.2,0.7-0.4s0.3-0.3,0.4-0.6c0.1-0.2,0.1-0.4,0.1-0.7c0-0.4-0.1-0.7-0.2-0.9c-0.1-0.2-0.3-0.5-0.6-0.7
			c-0.3-0.2-0.7-0.3-1.2-0.4c-0.5-0.1-1.2-0.1-2-0.1c0.1-0.5,0.1-0.9,0.1-1.4c0-0.4,0.1-0.8,0.1-1.2s0.1-0.8,0.1-1.1
			c0-0.4,0-0.8,0.1-1.2h4.9v1.1h-3.6c0,0.1,0,0.3,0,0.6c0,0.2,0,0.5-0.1,0.7c0,0.3,0,0.5-0.1,0.7
			C1063.7,230.3,1063.5,230.6,1063.5,230.7z"/>
		<path fill="#F15A29" d="M1072.1,235.9c0.8,0,1.5-0.2,1.9-0.5c0.4-0.3,0.5-0.8,0.5-1.4c0-0.4-0.1-0.7-0.2-0.9
			c-0.1-0.2-0.3-0.4-0.6-0.6c-0.2-0.1-0.5-0.2-0.8-0.3c-0.3-0.1-0.7-0.1-1-0.1h-0.3v-1.1h0.5c0.2,0,0.5,0,0.7-0.1
			c0.2,0,0.5-0.1,0.7-0.3c0.2-0.1,0.4-0.3,0.5-0.5c0.1-0.2,0.2-0.5,0.2-0.8c0-0.3,0-0.5-0.1-0.7c-0.1-0.2-0.2-0.3-0.4-0.5
			c-0.2-0.2-0.3-0.2-0.5-0.3c-0.2-0.1-0.4-0.1-0.6-0.1c-0.4,0-0.8,0.1-1.1,0.2s-0.6,0.3-0.8,0.4l-0.5-1c0.1-0.1,0.3-0.2,0.4-0.2
			c0.2-0.1,0.4-0.2,0.6-0.2c0.2-0.1,0.4-0.1,0.7-0.2c0.2-0.1,0.5-0.1,0.8-0.1c0.5,0,1,0.1,1.4,0.2c0.3,0.1,0.7,0.3,0.9,0.5
			c0.2,0.2,0.4,0.5,0.5,0.8c0.1,0.3,0.2,0.7,0.2,1c0,0.5-0.1,0.9-0.4,1.4c-0.3,0.4-0.6,0.6-1,0.8c0.3,0.1,0.5,0.2,0.7,0.3
			c0.2,0.1,0.4,0.3,0.6,0.5c0.2,0.2,0.3,0.5,0.4,0.7c0.1,0.3,0.2,0.6,0.2,0.9c0,0.4-0.1,0.8-0.2,1.2c-0.1,0.4-0.4,0.7-0.7,0.9
			c-0.3,0.3-0.7,0.5-1.1,0.6c-0.5,0.1-1,0.2-1.7,0.2c-0.2,0-0.5,0-0.7-0.1c-0.3,0-0.5-0.1-0.7-0.1c-0.2-0.1-0.4-0.1-0.6-0.2
			s-0.3-0.1-0.4-0.1l0.3-1.1c0.2,0.1,0.4,0.2,0.8,0.3C1071,235.9,1071.6,235.9,1072.1,235.9z"/>
	</g>
	<g>
		<path fill="#F15A29" d="M865.9,163.6v-8.5h1v4c0.3-0.3,0.6-0.6,1-1c0.4-0.4,0.7-0.7,1.1-1.1c0.4-0.4,0.7-0.7,1-1s0.5-0.6,0.7-0.8
			h1.2c-0.2,0.3-0.5,0.6-0.9,0.9c-0.3,0.3-0.7,0.7-1,1s-0.7,0.7-1,1s-0.6,0.6-0.9,0.8c0.4,0.2,0.7,0.5,1.2,0.9
			c0.5,0.4,0.8,0.7,1.2,1.1s0.7,0.8,1.1,1.2c0.3,0.4,0.6,0.8,0.8,1.2h-1.2c-0.3-0.4-0.6-0.8-0.9-1.2c-0.3-0.4-0.7-0.8-1.1-1.2
			c-0.4-0.4-0.8-0.7-1.1-1c-0.4-0.3-0.7-0.5-1-0.7v4.3h-1.2V163.6z"/>
		<path fill="#F15A29" d="M881.3,159.4c0,0.7-0.1,1.2-0.3,1.9c-0.2,0.5-0.4,1-0.8,1.5c-0.3,0.4-0.7,0.7-1.2,0.9
			c-0.5,0.2-1,0.3-1.6,0.3s-1.1-0.1-1.6-0.3c-0.5-0.2-0.9-0.5-1.2-0.9c-0.3-0.4-0.6-0.8-0.8-1.5c-0.2-0.5-0.3-1.1-0.3-1.9
			c0-0.7,0.1-1.2,0.3-1.9s0.4-1,0.8-1.5c0.3-0.4,0.7-0.7,1.2-0.9s1-0.3,1.6-0.3s1.1,0.1,1.6,0.3c0.5,0.2,0.9,0.5,1.2,0.9
			c0.3,0.4,0.6,0.8,0.8,1.5S881.3,158.8,881.3,159.4z M880.2,159.4c0-1-0.2-2-0.7-2.6c-0.5-0.6-1.1-0.9-2.1-0.9
			c-0.9,0-1.6,0.3-2.1,0.9c-0.5,0.6-0.7,1.5-0.7,2.6s0.2,2,0.7,2.6c0.5,0.6,1.1,0.9,2.1,0.9c0.9,0,1.6-0.3,2.1-0.9
			C880,161.4,880.2,160.5,880.2,159.4z"/>
		<path fill="#F15A29" d="M886.2,156.1v0.3c0,0.3,0,0.7,0,1c0,0.4,0,0.8-0.1,1.2c0,0.4-0.1,0.8-0.2,1.2c-0.1,0.4-0.2,0.8-0.3,1.1
			c-0.1,0.4-0.3,0.7-0.4,1c-0.2,0.3-0.4,0.6-0.6,0.8c-0.2,0.2-0.5,0.4-0.8,0.6c-0.3,0.2-0.7,0.3-1.1,0.3l-0.1-0.9
			c0.5-0.1,1-0.3,1.4-0.7c0.3-0.4,0.6-0.8,0.8-1.5c0.2-0.6,0.3-1.4,0.4-2.1c0.1-0.7,0.1-1.7,0.1-2.6v-1h5.3v8.6h-1v-7.6H886.2z"/>
		<path fill="#F15A29" d="M899.2,156.5c-0.3,0.4-0.7,0.9-1.1,1.6s-0.9,1.2-1.4,2c-0.4,0.7-0.8,1.4-1.2,2c-0.4,0.6-0.7,1.2-1,1.8h-1
			v-8.6h1v6.9c0.3-0.5,0.6-1,1-1.7c0.4-0.6,0.8-1.2,1.2-1.9s0.9-1.2,1.4-1.9c0.4-0.6,0.8-1,1.2-1.5h1v8.6h-1v-7.3H899.2z"/>
		<path fill="#F15A29" d="M902.5,155.1h1v2.3c0,0.8,0.2,1.4,0.5,1.7c0.3,0.3,0.8,0.4,1.6,0.4c0.5,0,1,0,1.4-0.1
			c0.3-0.1,0.6-0.1,0.8-0.2V155h1v8.6h-1v-3.5c-0.1,0-0.2,0.1-0.3,0.1s-0.3,0.1-0.5,0.1s-0.4,0.1-0.6,0.1s-0.4,0-0.7,0
			c-0.5,0-0.9,0-1.2-0.1c-0.4-0.1-0.7-0.3-0.9-0.5c-0.3-0.2-0.5-0.5-0.6-0.9c-0.1-0.4-0.2-0.8-0.2-1.5v-2.3H902.5z"/>
		<path fill="#F15A29" d="M911.3,159.4c0-0.7,0.1-1.5,0.3-2s0.5-1,0.8-1.5c0.3-0.4,0.7-0.6,1.2-0.8c0.4-0.2,0.9-0.3,1.4-0.3
			c1,0,1.9,0.3,2.5,1c0.6,0.7,0.9,1.8,0.9,3.2c0,0.1,0,0.2,0,0.3c0,0.1,0,0.2,0,0.2h-6c0,1,0.3,1.9,0.8,2.4c0.5,0.5,1.2,0.8,2.3,0.8
			c0.6,0,1-0.1,1.4-0.2c0.3-0.1,0.6-0.2,0.7-0.3l0.2,0.9c-0.1,0.1-0.4,0.2-0.8,0.3c-0.4,0.1-0.9,0.2-1.5,0.2c-0.7,0-1.4-0.1-2-0.3
			c-0.6-0.2-0.9-0.5-1.4-0.9c-0.3-0.4-0.6-0.8-0.7-1.5C911.3,160.6,911.3,160,911.3,159.4z M917.3,158.7c0-0.9-0.2-1.6-0.6-2.1
			c-0.4-0.5-0.9-0.7-1.7-0.7c-0.4,0-0.7,0.1-1,0.2c-0.3,0.1-0.5,0.3-0.8,0.6c-0.2,0.3-0.4,0.5-0.5,0.9c-0.1,0.3-0.2,0.7-0.2,1H917.3
			z"/>
		<path fill="#F15A29" d="M924.5,163.9c-0.6,0-1.2-0.1-1.8-0.3s-0.9-0.5-1.2-0.9c-0.3-0.4-0.6-0.8-0.7-1.5c-0.2-0.5-0.3-1.1-0.3-1.9
			c0-0.7,0.1-1.2,0.3-1.9c0.2-0.5,0.4-1,0.8-1.5c0.3-0.4,0.7-0.7,1.2-0.9c0.5-0.2,1-0.3,1.7-0.3c0.4,0,0.9,0,1.4,0.1
			c0.4,0.1,0.7,0.2,0.9,0.3l-0.3,0.9c-0.2-0.1-0.5-0.2-0.7-0.3s-0.6-0.1-1.1-0.1c-0.9,0-1.7,0.3-2.2,0.9s-0.7,1.5-0.7,2.6
			c0,0.5,0.1,0.9,0.2,1.5s0.3,0.8,0.5,1.1s0.5,0.5,0.9,0.7c0.4,0.2,0.8,0.2,1.5,0.2c0.4,0,0.8-0.1,1.1-0.2c0.3-0.1,0.5-0.2,0.7-0.3
			l0.2,0.9c-0.2,0.1-0.5,0.2-0.9,0.3C925.3,163.9,924.9,163.9,924.5,163.9z"/>
		<path fill="#F15A29" d="M934.3,155.1v0.9h-2.8v7.7h-1v-7.7h-2.8v-0.9H934.3z"/>
		<path fill="#F15A29" d="M938.8,154.9c0.3,0,0.7,0,1.1,0.1c0.4,0,0.8,0.1,1.1,0.3c0.4,0.1,0.6,0.4,0.9,0.7c0.2,0.3,0.4,0.7,0.4,1.2
			c0,0.4-0.1,0.8-0.4,1.1c-0.2,0.3-0.6,0.5-1,0.7c0.6,0.2,1,0.4,1.4,0.8c0.3,0.4,0.4,0.8,0.4,1.4c0,0.6-0.1,1-0.3,1.4
			c-0.2,0.3-0.5,0.6-0.9,0.8s-0.8,0.3-1.2,0.3c-0.5,0.1-0.9,0.1-1.5,0.1c-0.6,0-1.1,0-1.6-0.1c-0.4-0.1-0.8-0.2-1.1-0.2v-8.4
			c0.3-0.1,0.6-0.2,1.1-0.2C937.8,155,938.1,154.9,938.8,154.9z M937,158.7h2c0.6,0,1.2-0.1,1.7-0.3s0.6-0.6,0.6-1.1
			c0-0.3-0.1-0.6-0.2-0.7c-0.1-0.2-0.3-0.3-0.5-0.4c-0.2-0.1-0.5-0.1-0.8-0.2c-0.3-0.1-0.6,0-0.9,0c-0.4,0-0.7,0-1,0.1
			c-0.3,0-0.5,0.1-0.6,0.1v2.6H937z M937,159.6v3.2c0.1,0,0.1,0,0.3,0.1c0.1,0,0.3,0,0.4,0s0.3,0,0.5,0s0.3,0,0.5,0
			c0.4,0,0.7,0,1-0.1c0.3,0,0.6-0.1,0.9-0.2c0.2-0.1,0.4-0.3,0.6-0.5s0.2-0.5,0.2-0.8s-0.1-0.6-0.2-0.8c-0.1-0.2-0.3-0.4-0.5-0.5
			c-0.2-0.1-0.5-0.2-0.8-0.3c-0.3-0.1-0.6-0.1-1-0.1h-2V159.6z"/>
		<path fill="#F15A29" d="M952.4,159.4c0,0.7-0.1,1.2-0.3,1.9c-0.2,0.5-0.4,1-0.8,1.5c-0.3,0.4-0.7,0.7-1.2,0.9
			c-0.5,0.2-1,0.3-1.6,0.3s-1.1-0.1-1.6-0.3c-0.4-0.2-0.9-0.5-1.2-0.9c-0.3-0.4-0.6-0.8-0.8-1.5c-0.2-0.5-0.3-1.1-0.3-1.9
			c0-0.7,0.1-1.2,0.3-1.9c0.2-0.5,0.4-1,0.8-1.5c0.3-0.4,0.7-0.7,1.2-0.9s1-0.3,1.6-0.3s1.1,0.1,1.6,0.3c0.5,0.2,0.9,0.5,1.2,0.9
			c0.3,0.4,0.6,0.8,0.8,1.5S952.4,158.8,952.4,159.4z M951.3,159.4c0-1-0.2-2-0.7-2.6c-0.5-0.6-1.1-0.9-2.1-0.9s-1.6,0.3-2.1,0.9
			c-0.5,0.6-0.7,1.5-0.7,2.6s0.2,2,0.7,2.6c0.5,0.6,1.1,0.9,2.1,0.9s1.6-0.3,2.1-0.9C951,161.4,951.3,160.5,951.3,159.4z"/>
		<path fill="#F15A29" d="M965.8,159.4c0,0.7-0.1,1.2-0.3,1.9c-0.2,0.5-0.4,1-0.8,1.5c-0.3,0.4-0.7,0.7-1.2,0.9
			c-0.5,0.2-1,0.3-1.6,0.3c-0.5,0-1.1-0.1-1.6-0.3c-0.4-0.2-0.9-0.5-1.2-0.9c-0.3-0.4-0.6-0.8-0.8-1.5c-0.2-0.5-0.3-1.1-0.3-1.9
			c0-0.7,0.1-1.2,0.3-1.9c0.2-0.5,0.4-1,0.8-1.5c0.3-0.4,0.7-0.7,1.2-0.9s1-0.3,1.6-0.3c0.5,0,1.1,0.1,1.6,0.3
			c0.5,0.2,0.9,0.5,1.2,0.9c0.3,0.4,0.6,0.8,0.8,1.5S965.8,158.8,965.8,159.4z M964.7,159.4c0-1-0.2-2-0.7-2.6
			c-0.5-0.6-1.1-0.9-2.1-0.9c-0.9,0-1.6,0.3-2.1,0.9c-0.5,0.6-0.7,1.5-0.7,2.6s0.2,2,0.7,2.6c0.5,0.6,1.1,0.9,2.1,0.9
			c0.9,0,1.6-0.3,2.1-0.9C964.5,161.4,964.7,160.5,964.7,159.4z"/>
		<path fill="#F15A29" d="M969.1,156.4c0.2-0.2,0.4-0.4,0.6-0.5c0.2-0.1,0.5-0.3,0.7-0.4s0.5-0.2,0.7-0.2s0.5-0.1,0.7-0.1
			c0.6,0,1.2,0.1,1.7,0.3c0.4,0.2,0.8,0.5,1.1,0.8c0.3,0.4,0.5,0.8,0.6,1.4c0.1,0.5,0.2,1.1,0.2,1.8c0,0.5-0.1,1-0.2,1.6
			c-0.1,0.5-0.3,1-0.6,1.5s-0.7,0.7-1.1,1c-0.5,0.3-1.1,0.4-1.9,0.4c-0.8,0-1.5-0.2-2-0.5c-0.5-0.3-0.9-0.7-1.1-1.2
			c-0.3-0.5-0.5-1.1-0.6-1.8s-0.2-1.4-0.2-2c0-0.9,0.1-1.8,0.2-2.6c0.1-0.8,0.3-1.6,0.7-2.2c0.4-0.6,0.8-1.2,1.6-1.7
			c0.6-0.4,1.6-0.7,2.7-0.8c0.3,0,0.6-0.1,0.8-0.1c0.2,0,0.4-0.1,0.5-0.1s0.3,0,0.4-0.1c0.1,0,0.2-0.1,0.3-0.1l0.1,0.9
			c-0.1,0-0.3,0.1-0.5,0.1c-0.3,0-0.7,0.1-1.4,0.2c-0.6,0.1-1.2,0.2-1.8,0.4c-0.5,0.2-0.9,0.4-1.2,0.8c-0.3,0.3-0.6,0.7-0.7,1.2
			C969.3,155.1,969.2,155.6,969.1,156.4z M969,157.6c0,0.1,0,0.2,0,0.4s0,0.4,0,0.5c0,0.5,0,1,0.1,1.6s0.2,0.9,0.4,1.4
			c0.2,0.4,0.5,0.7,0.8,0.9c0.3,0.2,0.8,0.4,1.4,0.4c0.5,0,0.9-0.1,1.2-0.3c0.3-0.2,0.6-0.4,0.8-0.7s0.4-0.7,0.5-1
			c0.1-0.4,0.1-0.8,0.1-1.2s0-0.8-0.1-1.2c-0.1-0.4-0.2-0.7-0.4-1s-0.5-0.5-0.8-0.7c-0.4-0.2-0.8-0.3-1.5-0.3c-0.3,0-0.5,0-0.8,0.1
			c-0.3,0.1-0.5,0.2-0.7,0.3c-0.2,0.1-0.4,0.3-0.6,0.4C969.3,157.3,969.1,157.4,969,157.6z"/>
		<path fill="#F15A29" d="M981.4,163.9c-0.6,0-1.2-0.1-1.8-0.3s-0.9-0.5-1.2-0.9c-0.3-0.4-0.6-0.8-0.7-1.5c-0.2-0.5-0.3-1.1-0.3-1.9
			c0-0.7,0.1-1.2,0.3-1.9c0.2-0.5,0.4-1,0.8-1.5c0.3-0.4,0.7-0.7,1.2-0.9c0.5-0.2,1-0.3,1.7-0.3c0.4,0,0.9,0,1.4,0.1
			c0.4,0.1,0.7,0.2,0.9,0.3l-0.3,0.9c-0.2-0.1-0.5-0.2-0.7-0.3s-0.6-0.1-1.1-0.1c-0.9,0-1.7,0.3-2.2,0.9s-0.7,1.5-0.7,2.6
			c0,0.5,0.1,0.9,0.2,1.5s0.3,0.8,0.5,1.1s0.5,0.5,0.9,0.7c0.4,0.2,0.8,0.2,1.5,0.2c0.4,0,0.8-0.1,1.1-0.2c0.3-0.1,0.5-0.2,0.7-0.3
			l0.2,0.9c-0.2,0.1-0.5,0.2-0.9,0.3C982.4,163.9,981.9,163.9,981.4,163.9z"/>
		<path fill="#F15A29" d="M988.4,156.1v0.3c0,0.3,0,0.7,0,1c0,0.4,0,0.8-0.1,1.2c0,0.4-0.1,0.8-0.2,1.2c-0.1,0.4-0.2,0.8-0.3,1.1
			c-0.1,0.4-0.3,0.7-0.4,1c-0.2,0.3-0.4,0.6-0.6,0.8c-0.2,0.2-0.5,0.4-0.8,0.6c-0.3,0.2-0.7,0.3-1.1,0.3l-0.1-0.9
			c0.5-0.1,1-0.3,1.4-0.7c0.3-0.4,0.6-0.8,0.8-1.5c0.2-0.6,0.3-1.4,0.4-2.1c0.1-0.7,0.1-1.7,0.1-2.6v-1h5.3v8.6h-1v-7.6H988.4z"/>
		<path fill="#F15A29" d="M997.9,163.9c-0.3-0.7-0.7-1.4-1-2.1c-0.3-0.7-0.6-1.5-0.9-2.2c-0.3-0.7-0.5-1.5-0.8-2.3
			c-0.2-0.7-0.4-1.5-0.6-2.2h1.1c0.1,0.5,0.3,1.1,0.4,1.8c0.2,0.6,0.4,1.2,0.6,1.9c0.2,0.6,0.5,1.4,0.8,2c0.3,0.7,0.6,1.4,0.9,2.1
			c0.2-0.7,0.4-1.4,0.6-2c0.2-0.6,0.4-1.2,0.5-1.9c0.2-0.6,0.3-1.2,0.5-1.9s0.3-1.4,0.4-2.1h1c-0.3,1.6-0.7,3.2-1.2,4.7
			c-0.4,1.6-0.9,2.9-1.5,4.2c-0.2,0.5-0.4,0.9-0.6,1.2c-0.2,0.3-0.5,0.6-0.7,0.9c-0.3,0.2-0.6,0.4-0.9,0.5c-0.3,0.1-0.8,0.2-1.2,0.2
			c-0.3,0-0.5,0-0.7-0.1c-0.2-0.1-0.4-0.1-0.4-0.1l0.2-0.9c0,0,0.2,0.1,0.4,0.1c0.2,0.1,0.4,0.1,0.6,0.1c0.3,0,0.6,0,0.8-0.1
			c0.2-0.1,0.5-0.2,0.6-0.3c0.2-0.2,0.4-0.4,0.5-0.6C997.5,164.6,997.7,164.3,997.9,163.9z"/>
		<path fill="#F15A29" d="M1013.2,155.1c-0.2,0.3-0.5,0.6-0.8,0.9s-0.6,0.7-0.9,1s-0.6,0.7-0.9,1c-0.3,0.3-0.6,0.6-0.8,0.9
			c0.4,0.3,0.7,0.6,1.1,0.9c0.4,0.4,0.7,0.7,1.1,1.1c0.3,0.4,0.7,0.8,0.9,1.2c0.3,0.4,0.5,0.8,0.8,1.2h-1.2
			c-0.2-0.4-0.5-0.8-0.9-1.2c-0.3-0.4-0.7-0.8-1-1.2c-0.4-0.4-0.7-0.7-1-1c-0.3-0.3-0.7-0.5-0.9-0.7v4.3h-1v-4.3
			c-0.3,0.1-0.6,0.4-0.9,0.7s-0.7,0.6-1,1c-0.4,0.4-0.7,0.8-1,1.2c-0.3,0.4-0.6,0.8-0.9,1.2h-1.2c0.2-0.4,0.5-0.7,0.7-1.2
			c0.3-0.4,0.6-0.8,1-1.2c0.3-0.4,0.7-0.8,1.1-1.1s0.7-0.7,1.1-0.9c-0.2-0.3-0.5-0.6-0.8-0.9s-0.6-0.7-0.9-1c-0.3-0.3-0.6-0.7-0.9-1
			c-0.3-0.3-0.6-0.6-0.8-0.9h1.2c0.4,0.5,0.9,1.1,1.6,1.9c0.6,0.7,1.2,1.4,2,2.2v-4.1h1v4c0.7-0.7,1.4-1.5,2-2.2s1.1-1.2,1.6-1.9h1
			V155.1z"/>
		<path fill="#F15A29" d="M1014.7,159.4c0-0.7,0.1-1.5,0.3-2c0.2-0.5,0.5-1,0.8-1.5c0.3-0.4,0.7-0.6,1.2-0.8
			c0.4-0.2,0.9-0.3,1.4-0.3c1,0,1.9,0.3,2.5,1c0.6,0.7,0.9,1.8,0.9,3.2c0,0.1,0,0.2,0,0.3c0,0.1,0,0.2,0,0.2h-6c0,1,0.3,1.9,0.8,2.4
			c0.5,0.5,1.2,0.8,2.3,0.8c0.6,0,1-0.1,1.4-0.2c0.3-0.1,0.6-0.2,0.7-0.3l0.2,0.9c-0.1,0.1-0.4,0.2-0.8,0.3s-0.9,0.2-1.5,0.2
			c-0.7,0-1.4-0.1-2-0.3c-0.5-0.2-0.9-0.5-1.4-0.9c-0.3-0.4-0.6-0.8-0.7-1.5C1014.8,160.6,1014.7,160,1014.7,159.4z M1020.8,158.7
			c0-0.9-0.2-1.6-0.6-2.1c-0.4-0.5-0.9-0.7-1.7-0.7c-0.4,0-0.7,0.1-1,0.2c-0.3,0.1-0.5,0.3-0.8,0.6c-0.3,0.3-0.4,0.5-0.5,0.9
			c-0.1,0.3-0.2,0.7-0.2,1H1020.8z"/>
		<path fill="#F15A29" d="M1031.2,163.6h-1v-4.1h-4.7v4.1h-1v-8.5h1v3.6h4.7v-3.6h1V163.6z"/>
		<path fill="#F15A29" d="M1040.9,163.6h-1v-4.1h-4.7v4.1h-1v-8.5h1v3.6h4.7v-3.6h1V163.6z"/>
		<path fill="#F15A29" d="M1043.8,155.1h1v3.4c0.2-0.1,0.5-0.1,0.8-0.2s0.7-0.1,1.1-0.1c0.4,0,0.8,0,1.2,0.1s0.7,0.3,1,0.5
			s0.5,0.5,0.7,0.8c0.2,0.3,0.3,0.8,0.3,1.2s-0.1,0.9-0.3,1.2c-0.2,0.3-0.4,0.6-0.7,0.8s-0.7,0.4-1.1,0.5s-0.8,0.1-1.4,0.1
			c-0.3,0-0.6,0-0.8,0c-0.3,0-0.5,0-0.8-0.1c-0.3,0-0.5-0.1-0.7-0.1c-0.2,0-0.4-0.1-0.5-0.1v-8.2H1043.8z M1046.7,162.9
			c0.7,0,1.2-0.1,1.7-0.4c0.4-0.3,0.6-0.7,0.6-1.5c0-0.3-0.1-0.6-0.2-0.8c-0.1-0.2-0.3-0.4-0.5-0.6c-0.2-0.1-0.4-0.3-0.7-0.3
			c-0.3-0.1-0.5-0.1-0.8-0.1c-0.3,0-0.7,0-1,0s-0.7,0.1-0.9,0.2v3.2c0.1,0,0.4,0.1,0.7,0.1C1046,162.9,1046.3,162.9,1046.7,162.9z
			 M1053.2,163.6h-1v-8.5h1V163.6z"/>
		<path fill="#F15A29" d="M1058.7,160c-0.2,0.3-0.5,0.6-0.7,0.9c-0.2,0.3-0.5,0.6-0.7,0.9c-0.2,0.3-0.4,0.6-0.6,0.9
			c-0.2,0.3-0.3,0.6-0.5,0.8h-1.1c0.4-0.8,0.9-1.7,1.5-2.4c0.5-0.7,1-1.5,1.6-2.1l-2.9-4.2h1.2l2.3,3.2l2.3-3.2h1.1l-2.8,4.1
			c0.2,0.3,0.5,0.6,0.7,0.9c0.3,0.3,0.5,0.7,0.8,1.1c0.3,0.4,0.5,0.7,0.8,1.1c0.3,0.4,0.5,0.8,0.7,1.2h-1.1
			c-0.1-0.2-0.3-0.5-0.5-0.8s-0.4-0.6-0.6-0.9s-0.5-0.6-0.7-0.9S1058.9,160.3,1058.7,160z"/>
		<path fill="#F15A29" d="M1070.1,162.9c0.7,0,1.4-0.1,1.9-0.4c0.5-0.3,0.6-0.6,0.6-1.1c0-0.4-0.1-0.7-0.2-0.9
			c-0.2-0.2-0.4-0.4-0.6-0.5c-0.2-0.1-0.5-0.2-0.8-0.2c-0.3,0-0.5-0.1-0.7-0.1h-1.2v-0.9h1.1c0.2,0,0.4,0,0.7,0
			c0.3,0,0.5-0.1,0.7-0.2c0.2-0.1,0.4-0.2,0.5-0.4c0.1-0.2,0.2-0.4,0.2-0.7c0-0.3-0.1-0.5-0.2-0.7c-0.1-0.2-0.3-0.3-0.5-0.4
			c-0.2-0.1-0.4-0.2-0.7-0.2s-0.5-0.1-0.8-0.1c-0.6,0-1.1,0.1-1.5,0.2c-0.4,0.1-0.6,0.2-0.7,0.3l-0.2-0.9c0.1-0.1,0.4-0.2,0.8-0.3
			s0.9-0.2,1.7-0.2c1.1,0,2,0.2,2.5,0.6c0.5,0.4,0.8,1,0.8,1.8c0,0.5-0.1,0.8-0.4,1.1c-0.3,0.3-0.6,0.5-1,0.6
			c0.5,0.1,0.9,0.4,1.2,0.8c0.3,0.4,0.5,0.8,0.5,1.5c0,0.8-0.3,1.5-0.9,1.9c-0.6,0.4-1.5,0.6-2.7,0.6c-0.8,0-1.5-0.1-1.9-0.2
			c-0.5-0.1-0.8-0.2-0.9-0.3l0.3-0.9c0,0,0.1,0.1,0.2,0.1c0.1,0,0.3,0.1,0.5,0.2c0.2,0.1,0.4,0.1,0.7,0.2S1069.7,162.9,1070.1,162.9
			z"/>
		<path fill="#F15A29" d="M1078.6,154.9c0.5,0,1,0.1,1.5,0.2s0.7,0.4,0.9,0.6s0.4,0.6,0.5,1c0.1,0.4,0.2,0.8,0.2,1.2v5.4
			c-0.1,0-0.3,0.1-0.5,0.1s-0.4,0.1-0.7,0.1c-0.3,0-0.6,0.1-0.9,0.1c-0.3,0-0.7,0-1,0c-0.4,0-0.8,0-1.2-0.1c-0.4-0.1-0.7-0.2-1-0.5
			c-0.3-0.2-0.5-0.5-0.6-0.8c-0.2-0.3-0.2-0.7-0.2-1.2c0-0.4,0.1-0.8,0.3-1.2c0.2-0.3,0.4-0.6,0.7-0.8s0.7-0.4,1.1-0.5
			c0.4-0.1,0.9-0.1,1.5-0.1c0.1,0,0.3,0,0.5,0s0.3,0,0.5,0.1c0.2,0,0.3,0.1,0.4,0.1c0.1,0,0.2,0.1,0.2,0.1v-0.5c0-0.3,0-0.6-0.1-0.8
			c0-0.3-0.1-0.5-0.3-0.7c-0.1-0.2-0.3-0.4-0.6-0.5c-0.3-0.1-0.6-0.2-1-0.2c-0.6,0-1.1,0-1.5,0.1c-0.3,0.1-0.5,0.2-0.7,0.2l-0.1-0.9
			c0.2-0.1,0.5-0.2,0.8-0.2C1077.6,154.9,1078,154.9,1078.6,154.9z M1078.7,162.9c0.4,0,0.8,0,1.1,0c0.3,0,0.6-0.1,0.8-0.1v-3
			c-0.1-0.1-0.3-0.1-0.6-0.2c-0.3-0.1-0.6-0.1-1.1-0.1c-0.3,0-0.5,0-0.8,0.1c-0.3,0-0.5,0.1-0.8,0.2c-0.2,0.1-0.4,0.3-0.6,0.5
			c-0.1,0.2-0.2,0.5-0.2,0.8s0.1,0.6,0.2,0.8c0.1,0.2,0.2,0.4,0.4,0.5c0.2,0.1,0.4,0.2,0.7,0.3
			C1078.1,162.9,1078.3,162.9,1078.7,162.9z"/>
		<path fill="#F15A29" d="M1086.7,160.2c-0.2,0.2-0.3,0.5-0.5,0.8s-0.4,0.6-0.5,0.9c-0.2,0.3-0.3,0.6-0.5,0.9s-0.3,0.6-0.4,0.8h-1.1
			c0.3-0.6,0.6-1.4,1-2c0.4-0.6,0.8-1.2,1.1-1.8c-0.2-0.1-0.4-0.2-0.6-0.3c-0.2-0.1-0.4-0.3-0.5-0.4c-0.2-0.2-0.3-0.4-0.4-0.6
			c-0.1-0.3-0.1-0.5-0.1-0.9c0-0.5,0.1-0.9,0.3-1.2c0.2-0.3,0.4-0.6,0.7-0.8c0.3-0.2,0.7-0.4,1.1-0.5s0.9-0.2,1.5-0.2
			c0.2,0,0.5,0,0.7,0c0.3,0,0.5,0.1,0.8,0.1c0.3,0,0.5,0.1,0.7,0.1s0.4,0.1,0.6,0.1v8.4h-1v-3.4h-1.6c-0.2,0-0.4,0-0.6,0
			S1086.8,160.2,1086.7,160.2z M1089.3,156.1c-0.1,0-0.3-0.1-0.6-0.1c-0.3,0-0.7-0.1-1.1-0.1c-0.3,0-0.6,0-0.9,0.1
			c-0.3,0.1-0.5,0.2-0.8,0.3c-0.2,0.1-0.4,0.3-0.5,0.5c-0.1,0.2-0.2,0.5-0.2,0.8c0,0.3,0.1,0.6,0.2,0.8c0.1,0.2,0.3,0.4,0.5,0.5
			c0.2,0.1,0.5,0.2,0.8,0.3c0.3,0.1,0.6,0.1,1,0.1h1.7V156.1z"/>
		<path fill="#F15A29" d="M1096.1,154.9c0.3,0,0.7,0,1.1,0.1c0.4,0,0.8,0.1,1.1,0.3c0.4,0.1,0.6,0.4,0.9,0.7
			c0.2,0.3,0.4,0.7,0.4,1.2c0,0.4-0.1,0.8-0.4,1.1c-0.2,0.3-0.6,0.5-1,0.7c0.6,0.2,1,0.4,1.4,0.8c0.3,0.4,0.4,0.8,0.4,1.4
			c0,0.6-0.1,1-0.3,1.4c-0.2,0.3-0.5,0.6-0.9,0.8c-0.4,0.2-0.8,0.3-1.2,0.3c-0.5,0.1-0.9,0.1-1.5,0.1c-0.6,0-1.1,0-1.6-0.1
			c-0.4-0.1-0.8-0.2-1.1-0.2v-8.4c0.3-0.1,0.6-0.2,1.1-0.2C1094.9,154.9,1095.5,154.9,1096.1,154.9z M1094.4,158.7h2
			c0.6,0,1.2-0.1,1.7-0.3s0.6-0.6,0.6-1.1c0-0.3-0.1-0.6-0.2-0.7c-0.1-0.2-0.3-0.3-0.5-0.4s-0.5-0.1-0.8-0.2c-0.3,0-0.6,0-0.9,0
			c-0.4,0-0.7,0-1,0.1c-0.3,0-0.5,0.1-0.6,0.1v2.6H1094.4z M1094.4,159.6v3.2c0.1,0,0.1,0,0.3,0.1c0.1,0,0.3,0,0.4,0
			c0.2,0,0.3,0,0.5,0c0.2,0,0.3,0,0.5,0c0.4,0,0.7,0,1-0.1c0.3,0,0.6-0.1,0.9-0.2c0.2-0.1,0.4-0.3,0.6-0.5c0.2-0.2,0.2-0.5,0.2-0.8
			s-0.1-0.6-0.2-0.8c-0.1-0.2-0.3-0.4-0.5-0.5c-0.2-0.1-0.5-0.2-0.8-0.3c-0.3-0.1-0.6-0.1-1-0.1h-2V159.6z"/>
		<path fill="#F15A29" d="M1109.7,159.4c0,0.7-0.1,1.2-0.3,1.9c-0.2,0.5-0.4,1-0.8,1.5c-0.3,0.4-0.7,0.7-1.2,0.9
			c-0.5,0.2-1,0.3-1.6,0.3s-1.1-0.1-1.6-0.3c-0.4-0.2-0.9-0.5-1.2-0.9c-0.3-0.4-0.6-0.8-0.8-1.5c-0.2-0.5-0.3-1.1-0.3-1.9
			c0-0.7,0.1-1.2,0.3-1.9c0.2-0.5,0.4-1,0.8-1.5c0.3-0.4,0.7-0.7,1.2-0.9s1-0.3,1.6-0.3s1.1,0.1,1.6,0.3c0.5,0.2,0.9,0.5,1.2,0.9
			c0.3,0.4,0.6,0.8,0.8,1.5S1109.7,158.8,1109.7,159.4z M1108.6,159.4c0-1-0.2-2-0.7-2.6c-0.5-0.6-1.1-0.9-2.1-0.9s-1.6,0.3-2.1,0.9
			c-0.5,0.6-0.7,1.5-0.7,2.6s0.2,2,0.7,2.6c0.5,0.6,1.1,0.9,2.1,0.9s1.6-0.3,2.1-0.9C1108.4,161.4,1108.6,160.5,1108.6,159.4z"/>
		<path fill="#F15A29" d="M1112.1,163.6v-8.5h1v4c0.3-0.3,0.6-0.6,1-1s0.7-0.7,1.1-1.1s0.7-0.7,1-1c0.3-0.3,0.5-0.6,0.7-0.8h1.2
			c-0.2,0.3-0.5,0.6-0.9,0.9c-0.3,0.3-0.7,0.7-1,1c-0.3,0.3-0.7,0.7-1,1c-0.3,0.3-0.6,0.6-0.9,0.8c0.4,0.2,0.7,0.5,1.2,0.9
			c0.5,0.4,0.8,0.7,1.2,1.1s0.7,0.8,1.1,1.2c0.3,0.4,0.6,0.8,0.8,1.2h-1.2c-0.3-0.4-0.6-0.8-0.9-1.2c-0.3-0.4-0.7-0.8-1.1-1.2
			s-0.8-0.7-1.1-1c-0.4-0.3-0.7-0.5-1-0.7v4.3h-1.2V163.6z"/>
		<path fill="#F15A29" d="M1131.1,163.6h-1v-4.1h-4.7v4.1h-1v-8.5h1v3.6h4.7v-3.6h1V163.6z"/>
		<path fill="#F15A29" d="M1136.6,154.9c0.5,0,1,0.1,1.5,0.2s0.7,0.4,0.9,0.6s0.4,0.6,0.5,1c0.1,0.4,0.2,0.8,0.2,1.2v5.4
			c-0.1,0-0.3,0.1-0.5,0.1s-0.4,0.1-0.7,0.1c-0.3,0-0.6,0.1-0.9,0.1c-0.3,0-0.7,0-1,0c-0.4,0-0.8,0-1.2-0.1c-0.4-0.1-0.7-0.2-1-0.5
			c-0.3-0.2-0.5-0.5-0.6-0.8c-0.2-0.3-0.2-0.7-0.2-1.2c0-0.4,0.1-0.8,0.3-1.2c0.2-0.3,0.4-0.6,0.7-0.8s0.7-0.4,1.1-0.5
			c0.4-0.1,0.9-0.1,1.5-0.1c0.1,0,0.3,0,0.5,0s0.3,0,0.5,0.1c0.2,0,0.3,0.1,0.4,0.1c0.1,0,0.2,0.1,0.2,0.1v-0.5c0-0.3,0-0.6-0.1-0.8
			c0-0.3-0.1-0.5-0.3-0.7c-0.1-0.2-0.3-0.4-0.6-0.5c-0.3-0.1-0.6-0.2-1-0.2c-0.6,0-1.1,0-1.5,0.1c-0.3,0.1-0.5,0.2-0.7,0.2l-0.1-0.9
			c0.2-0.1,0.5-0.2,0.8-0.2C1135.6,154.9,1136,154.9,1136.6,154.9z M1136.6,162.9c0.4,0,0.8,0,1.1,0s0.6-0.1,0.8-0.1v-3
			c-0.1-0.1-0.3-0.1-0.6-0.2c-0.3-0.1-0.6-0.1-1.1-0.1c-0.3,0-0.5,0-0.8,0.1c-0.3,0-0.5,0.1-0.8,0.2c-0.2,0.1-0.4,0.3-0.6,0.5
			c-0.1,0.2-0.2,0.5-0.2,0.8s0.1,0.6,0.2,0.8c0.1,0.2,0.2,0.4,0.4,0.5c0.2,0.1,0.4,0.2,0.7,0.3
			C1136,162.9,1136.3,162.9,1136.6,162.9z"/>
		<path fill="#F15A29" d="M1149.1,154.7c0.7,0,1.4,0.1,1.9,0.2c0.5,0.2,0.8,0.4,1.1,0.7s0.5,0.7,0.6,1.1c0.1,0.4,0.2,0.9,0.2,1.5
			v5.2c-0.3,0.1-0.8,0.2-1.5,0.3c-0.6,0.1-1.4,0.2-2.3,0.2c-0.5,0-1,0-1.6-0.1c-0.4-0.1-0.8-0.3-1.1-0.5c-0.3-0.2-0.6-0.5-0.7-0.9
			c-0.2-0.4-0.3-0.8-0.3-1.4c0-0.5,0.1-0.9,0.3-1.2s0.5-0.6,0.8-0.8c0.3-0.2,0.7-0.3,1.1-0.4c0.4-0.1,0.9-0.1,1.4-0.1
			c0.3,0,0.6,0,0.8,0c0.2,0,0.4,0.1,0.6,0.1v-0.2c0-0.4-0.1-0.7-0.4-1c-0.2-0.2-0.7-0.4-1.4-0.4c-0.4,0-0.8,0-1.2,0.1
			c-0.4,0.1-0.7,0.1-1,0.2l-0.3-2c0.1,0,0.3-0.1,0.5-0.1s0.4-0.1,0.7-0.1c0.2,0,0.5-0.1,0.8-0.1
			C1148.5,154.7,1148.8,154.7,1149.1,154.7z M1149.3,162c0.2,0,0.5,0,0.7,0s0.4,0,0.5,0v-1.9c-0.1,0-0.2,0-0.4-0.1
			c-0.2,0-0.4,0-0.5,0c-0.2,0-0.4,0-0.6,0c-0.2,0-0.4,0.1-0.5,0.2c-0.1,0.1-0.3,0.2-0.4,0.3c-0.1,0.1-0.1,0.3-0.1,0.5
			c0,0.4,0.1,0.6,0.4,0.8C1148.5,161.9,1148.9,162,1149.3,162z"/>
		<path fill="#F15A29" d="M1162.7,154.9v8.7h-2.5V157h-2.6v6.7h-2.5v-8.7H1162.7z"/>
		<path fill="#F15A29" d="M1173.1,159.3c0,0.7-0.1,1.2-0.2,1.9c-0.2,0.5-0.4,1-0.7,1.5c-0.3,0.4-0.7,0.7-1.2,0.9
			c-0.5,0.2-1,0.3-1.7,0.3c-0.3,0-0.6,0-0.9-0.1c-0.3-0.1-0.6-0.2-0.8-0.3v3.3h-2.5v-11.5c0.2-0.1,0.5-0.1,0.7-0.2
			c0.2-0.1,0.6-0.1,0.9-0.2c0.3,0,0.6-0.1,0.9-0.1c0.3,0,0.6,0,0.9,0c0.7,0,1.4,0.1,2,0.3c0.6,0.2,1,0.5,1.5,0.9
			c0.4,0.4,0.7,0.8,0.9,1.5C1173,158,1173.1,158.7,1173.1,159.3z M1170.6,159.4c0-0.7-0.2-1.4-0.5-1.9c-0.3-0.4-0.8-0.7-1.6-0.7
			c-0.2,0-0.4,0-0.6,0s-0.3,0-0.4,0.1v4.5c0.1,0.1,0.3,0.2,0.6,0.2s0.5,0.1,0.7,0.1C1170,161.8,1170.6,160.9,1170.6,159.4z"/>
		<path fill="#F15A29" d="M1177.5,162.4c0,0.5-0.2,0.8-0.5,1.1c-0.3,0.3-0.6,0.4-1,0.4s-0.7-0.1-1-0.4c-0.3-0.3-0.5-0.6-0.5-1.1
			s0.2-0.8,0.5-1.1c0.3-0.3,0.6-0.4,1-0.4s0.7,0.1,1,0.4C1177.4,161.5,1177.5,161.9,1177.5,162.4z"/>
		<path fill="#F15A29" d="M1181.3,151c0,0.1,0,0.3,0,0.5c0,0.2,0,0.3,0,0.4c0,0.7-0.1,1.5-0.4,2.1c-0.3,0.6-0.6,1.2-0.9,1.7
			l-1.8-0.4c0.2-0.5,0.4-1,0.5-1.7c0.1-0.6,0.2-1.1,0.2-1.7v-0.1c0-0.1,0-0.1,0-0.2c0-0.1,0-0.2,0-0.3c0-0.1,0-0.2,0-0.3H1181.3z"/>
		<path fill="#F15A29" d="M1183.2,154.6c0.3-0.1,0.6-0.3,1-0.4c0.3-0.2,0.7-0.3,1-0.5c0.3-0.2,0.6-0.4,0.9-0.6
			c0.3-0.2,0.6-0.5,0.8-0.7h1.8v11.5h-2.5v-8.3c-0.3,0.2-0.7,0.4-1.1,0.6c-0.4,0.2-0.8,0.3-1.2,0.5L1183.2,154.6z"/>
		<path fill="#F15A29" d="M1197.6,159.1c-0.2,0.1-0.5,0.2-0.7,0.2c-0.3,0-0.5,0.1-0.7,0.1c-0.7,0-1.4-0.1-1.9-0.2
			c-0.5-0.2-0.9-0.4-1.2-0.7c-0.3-0.3-0.5-0.7-0.7-1.1c-0.1-0.4-0.2-0.9-0.2-1.5c0-0.4,0.1-0.9,0.2-1.4c0.1-0.4,0.4-0.9,0.7-1.2
			c0.3-0.4,0.7-0.7,1.2-0.9s1-0.4,1.8-0.4c1.5,0,2.5,0.4,3.2,1.4c0.7,0.8,1,2.2,1,3.8c0,1-0.1,2.1-0.4,2.9c-0.3,0.8-0.7,1.6-1.4,2.1
			c-0.6,0.5-1.4,1-2.3,1.2c-0.9,0.3-2,0.4-3.3,0.4c0-0.3,0-0.7,0-1s0-0.7-0.1-1c0.6,0,1.2-0.1,1.7-0.1c0.5-0.1,0.9-0.2,1.4-0.4
			c0.4-0.2,0.7-0.4,1-0.7C1197.2,160,1197.4,159.6,1197.6,159.1z M1196.3,157.5c0.2,0,0.5,0,0.8-0.1c0.3-0.1,0.5-0.1,0.6-0.2v-0.1
			V157v-0.1c0-0.4,0-0.7-0.1-1.1c-0.1-0.3-0.1-0.6-0.3-0.9s-0.3-0.4-0.5-0.6c-0.2-0.2-0.5-0.2-0.8-0.2c-0.3,0-0.5,0.1-0.7,0.2
			c-0.2,0.1-0.3,0.2-0.5,0.4c-0.1,0.2-0.2,0.4-0.3,0.6c-0.1,0.2-0.1,0.4-0.1,0.6c0,0.6,0.1,1,0.4,1.4
			C1195.2,157.4,1195.7,157.5,1196.3,157.5z"/>
		<path fill="#F15A29" d="M1204.4,161.1c0,0.3,0,0.4,0,0.5c0,0.1,0,0.2,0,0.3c0,0.3,0,0.7-0.1,1c-0.1,0.4-0.1,0.7-0.2,1.1
			c-0.1,0.4-0.2,0.7-0.4,1.1c-0.2,0.4-0.3,0.7-0.5,1l-2-0.5c0.2-0.7,0.4-1.5,0.5-2.1c0.1-0.6,0.1-1.1,0.1-1.6c0-0.1,0-0.1,0-0.2
			c0-0.1,0-0.2,0-0.3c0-0.1,0-0.2,0-0.3c0-0.1,0-0.2,0-0.2H1204.4z M1204.5,156.5c0,0.5-0.2,0.8-0.5,1.1c-0.3,0.3-0.6,0.4-1,0.4
			s-0.7-0.1-1-0.4c-0.3-0.3-0.5-0.6-0.5-1.1c0-0.5,0.2-0.8,0.5-1.1c0.3-0.3,0.6-0.4,1-0.4s0.7,0.1,1,0.4
			C1204.4,155.6,1204.5,155.9,1204.5,156.5z"/>
		<path fill="#F15A29" d="M1217.3,155.2c0,0.4-0.1,0.8-0.2,1.2c-0.2,0.4-0.4,0.7-0.6,1.1c-0.3,0.3-0.5,0.7-0.9,1
			c-0.3,0.3-0.6,0.6-0.9,0.9c-0.2,0.1-0.3,0.3-0.5,0.5s-0.4,0.4-0.5,0.6c-0.2,0.2-0.3,0.4-0.5,0.5c-0.1,0.2-0.2,0.3-0.2,0.4h5v2.1
			h-7.7c0-0.1,0-0.3,0-0.4c0-0.2,0-0.3,0-0.4c0-0.5,0.1-1,0.2-1.5c0.2-0.4,0.4-0.8,0.6-1.2c0.3-0.4,0.6-0.7,0.9-1
			c0.3-0.3,0.7-0.6,1-1c0.3-0.2,0.5-0.5,0.7-0.7s0.4-0.4,0.6-0.6c0.2-0.2,0.3-0.4,0.4-0.6c0.1-0.2,0.1-0.4,0.1-0.6
			c0-0.5-0.1-0.8-0.4-1c-0.3-0.2-0.6-0.3-1-0.3c-0.3,0-0.6,0-0.8,0.1c-0.3,0.1-0.5,0.2-0.7,0.3c-0.2,0.1-0.4,0.2-0.5,0.4
			c-0.1,0.1-0.3,0.2-0.3,0.3l-1.2-1.8c0.5-0.4,1-0.8,1.7-1.1c0.6-0.3,1.4-0.4,2.1-0.4s1.2,0.1,1.8,0.2c0.5,0.1,0.9,0.4,1.2,0.6
			c0.3,0.2,0.5,0.6,0.7,1C1217.2,154.2,1217.3,154.7,1217.3,155.2z"/>
		<path fill="#F15A29" d="M1219.6,154.6c0.3-0.1,0.6-0.3,1-0.4c0.3-0.2,0.7-0.3,1-0.5s0.6-0.4,0.9-0.6c0.3-0.2,0.6-0.5,0.8-0.7h1.8
			v11.5h-2.5v-8.3c-0.3,0.2-0.7,0.4-1.1,0.6c-0.4,0.2-0.8,0.3-1.2,0.5L1219.6,154.6z"/>
		<path fill="#F15A29" d="M1234,159.1c-0.2,0.1-0.5,0.2-0.7,0.2c-0.3,0-0.5,0.1-0.7,0.1c-0.7,0-1.4-0.1-1.9-0.2
			c-0.5-0.2-0.9-0.4-1.2-0.7c-0.3-0.3-0.5-0.7-0.7-1.1c-0.1-0.4-0.2-0.9-0.2-1.5c0-0.4,0.1-0.9,0.2-1.4c0.1-0.4,0.4-0.9,0.7-1.2
			c0.3-0.4,0.7-0.7,1.2-0.9c0.5-0.2,1-0.4,1.8-0.4c1.5,0,2.5,0.4,3.2,1.4c0.7,0.8,1,2.2,1,3.8c0,1-0.1,2.1-0.4,2.9
			c-0.3,0.8-0.7,1.6-1.4,2.1c-0.6,0.5-1.4,1-2.3,1.2c-0.9,0.3-2,0.4-3.3,0.4c0-0.3,0-0.7,0-1s0-0.7-0.1-1c0.6,0,1.2-0.1,1.7-0.1
			c0.5-0.1,0.9-0.2,1.4-0.4c0.4-0.2,0.7-0.4,1-0.7C1233.5,160,1233.9,159.6,1234,159.1z M1232.7,157.5c0.2,0,0.5,0,0.8-0.1
			c0.3-0.1,0.5-0.1,0.6-0.2v-0.1V157v-0.1c0-0.4,0-0.7-0.1-1.1c-0.1-0.3-0.1-0.6-0.3-0.9c-0.2-0.3-0.3-0.4-0.5-0.6
			c-0.2-0.2-0.5-0.2-0.8-0.2c-0.3,0-0.5,0.1-0.7,0.2c-0.2,0.1-0.3,0.2-0.5,0.4c-0.1,0.2-0.2,0.4-0.3,0.6c-0.1,0.2-0.1,0.4-0.1,0.6
			c0,0.6,0.1,1,0.4,1.4C1231.6,157.4,1232.1,157.5,1232.7,157.5z"/>
		<path fill="#F15A29" d="M1246.2,157.9c0,2-0.4,3.4-1.1,4.5c-0.7,1-1.8,1.6-3,1.6s-2.3-0.5-3-1.6c-0.7-1-1.1-2.5-1.1-4.5
			c0-0.9,0.1-1.8,0.3-2.6c0.2-0.7,0.5-1.4,0.8-1.9c0.4-0.5,0.8-0.9,1.4-1.1c0.5-0.3,1-0.4,1.7-0.4c1.2,0,2.3,0.5,3,1.6
			C1245.9,154.5,1246.2,155.9,1246.2,157.9z M1243.7,157.9c0-0.6,0-1.1-0.1-1.6c-0.1-0.5-0.1-0.8-0.3-1.2c-0.2-0.4-0.3-0.6-0.5-0.8
			s-0.5-0.3-0.8-0.3c-0.3,0-0.5,0.1-0.7,0.3s-0.4,0.4-0.5,0.8c-0.1,0.3-0.2,0.7-0.3,1.2s-0.1,1-0.1,1.6c0,0.5,0,1.1,0.1,1.6
			c0.1,0.4,0.1,0.9,0.3,1.2c0.1,0.3,0.3,0.6,0.5,0.8s0.4,0.3,0.7,0.3s0.5-0.1,0.8-0.3c0.2-0.2,0.4-0.4,0.5-0.8
			c0.1-0.4,0.2-0.7,0.3-1.2S1243.7,158.4,1243.7,157.9z"/>
	</g>
</g>
</svg>
