<?xml version="1.0" encoding="utf-8"?>
<!-- Generator: Adobe Illustrator 18.1.0, SVG Export Plug-In . SVG Version: 6.00 Build 0)  -->
<svg version="1.1" id="Layer_1" xmlns="http://www.w3.org/2000/svg" xmlns:xlink="http://www.w3.org/1999/xlink" x="0px" y="0px"
	 viewBox="0 0 841.9 595.3" enable-background="new 0 0 841.9 595.3" xml:space="preserve">
<g>
	<linearGradient id="SVGID_1_" gradientUnits="userSpaceOnUse" x1="534.9436" y1="315.2581" x2="534.9436" y2="431.5472">
		<stop  offset="0" style="stop-color:#790410"/>
		<stop  offset="1" style="stop-color:#BE1E2D"/>
	</linearGradient>
	<polygon fill="url(#SVGID_1_)" points="563.8,271.1 506.1,293.1 506.1,589.7 563.8,567.7 	"/>
	<linearGradient id="SVGID_2_" gradientUnits="userSpaceOnUse" x1="584.2176" y1="411.4053" x2="621.4249" y2="502.0982">
		<stop  offset="0" style="stop-color:#F15A29"/>
		<stop  offset="1" style="stop-color:#C74A20"/>
	</linearGradient>
	<polygon fill="url(#SVGID_2_)" points="563.8,271.1 506.1,293.1 605.5,553.9 663.3,531.8 	"/>
	<linearGradient id="SVGID_3_" gradientUnits="userSpaceOnUse" x1="677.917" y1="424.4558" x2="656.2117" y2="482.3367">
		<stop  offset="0" style="stop-color:#790410"/>
		<stop  offset="1" style="stop-color:#BE1E2D"/>
	</linearGradient>
	<polygon fill="url(#SVGID_3_)" points="663.3,531.8 605.6,553.9 658,409.3 715.7,387.3 	"/>
	<linearGradient id="SVGID_4_" gradientUnits="userSpaceOnUse" x1="705.7092" y1="467.2498" x2="724.3129" y2="554.842">
		<stop  offset="0" style="stop-color:#F15A29"/>
		<stop  offset="1" style="stop-color:#C74A20"/>
	</linearGradient>
	<polygon fill="url(#SVGID_4_)" points="762.5,567.6 704.7,589.6 657.9,409.3 715.7,387.3 	"/>
</g>
<polygon fill="#999999" points="563.8,567.7 506.1,589.7 516,595.5 610.2,595.5 "/>
<polygon fill="#999999" points="762.5,567.6 704.7,589.6 714.5,595.5 808.7,595.5 "/>
</svg>
