<?xml version="1.0" encoding="utf-8"?>
<!-- Generator: Adobe Illustrator 18.1.0, SVG Export Plug-In . SVG Version: 6.00 Build 0)  -->
<svg version="1.1" id="Layer_1" xmlns="http://www.w3.org/2000/svg" xmlns:xlink="http://www.w3.org/1999/xlink" x="0px" y="0px"
	 viewBox="138.1 185.1 1087.4 437.6" enable-background="new 138.1 185.1 1087.4 437.6" xml:space="preserve">
<g>
	<path fill="#BE1E2D" d="M556.4,584.1c-8.3,0-14.8-2.3-19.3-7c-4.5-4.7-6.8-11.4-6.8-20.2v-64.9h-12.8c-1.2,0-2-0.4-2.8-1
		c-0.8-0.6-1.2-1.7-1.2-3.1v-7.4l17.4-2.2l4.4-32.8c0.3-1,0.6-1.9,1.4-2.6c0.8-0.6,1.7-1,2.8-1h9.5v36.5h30.7v13.4H549v63.6
		c0,4.5,1,7.8,3.2,10c2.2,2.2,5,3.2,8.3,3.2c1.9,0,3.6-0.3,5.1-0.8c1.4-0.5,2.7-1.2,3.7-1.7c1-0.6,1.9-1.2,2.7-1.7
		c0.8-0.5,1.4-0.8,1.9-0.8c1,0,1.8,0.6,2.6,1.8l5.5,8.8c-3.2,2.9-7,5.4-11.6,7C565.9,583.3,561.2,584.1,556.4,584.1z"/>
	<path fill="#BE1E2D" d="M647.2,474.8c7.7,0,14.7,1.3,20.9,3.8c6.1,2.6,11.5,6.3,15.9,11c4.4,4.7,7.8,10.5,10.1,17.2
		c2.3,6.8,3.5,14.2,3.5,22.5s-1.2,15.9-3.5,22.7c-2.3,6.8-5.8,12.4-10.1,17.2c-4.4,4.7-9.7,8.4-15.9,10.9
		c-6.3,2.6-13.2,3.8-20.9,3.8c-7.8,0-14.8-1.3-21.1-3.8s-11.5-6.1-16-10.9c-4.4-4.7-7.8-10.5-10.1-17.2c-2.3-6.7-3.5-14.2-3.5-22.7
		c0-8.3,1.2-15.9,3.5-22.5c2.3-6.8,5.8-12.4,10.1-17.2c4.4-4.7,9.7-8.4,16-11S639.4,474.8,647.2,474.8z M647.2,569.3
		c10.5,0,18.3-3.5,23.4-10.5s7.7-16.8,7.7-29.3c0-12.7-2.6-22.4-7.7-29.6c-5.1-7-12.9-10.6-23.4-10.6c-5.2,0-10,0.9-13.8,2.7
		c-4,1.8-7.2,4.5-9.9,7.8c-2.6,3.5-4.6,7.7-5.9,12.7c-1.3,5-1.9,10.6-1.9,16.9c0,12.5,2.6,22.4,7.8,29.3
		C628.7,565.9,636.5,569.3,647.2,569.3z"/>
	<path fill="#BE1E2D" d="M743.2,492.9c4.5-5.5,9.6-10,15.5-13.3c5.9-3.3,12.5-5,20.1-5c6.1,0,11.6,1.2,16.6,3.5
		c5,2.3,9.2,5.8,12.7,10.4c3.5,4.6,6.1,10.2,8.1,17c1.9,6.8,2.8,14.6,2.8,23.3c0,7.8-1,15.1-3.2,21.8c-2,6.8-5.1,12.5-9.1,17.5
		c-4,5-8.7,8.8-14.5,11.6c-5.6,2.8-12,4.2-19.2,4.2c-6.5,0-12-1.2-16.6-3.3s-8.7-5.2-12.3-9.2v46.8h-18.7V476.4h11.1
		c2.7,0,4.4,1.3,4.9,3.8L743.2,492.9z M744.1,556.9c3.5,4.6,7.2,7.8,11.1,9.7c4.1,1.9,8.6,2.8,13.6,2.8c9.9,0,17.5-3.6,22.8-10.6
		c5.2-7,7.9-17.2,7.9-30.1c0-6.9-0.6-12.8-1.8-17.8c-1.3-5-2.9-9-5.2-12.2c-2.3-3.2-5.1-5.5-8.4-6.9c-3.3-1.4-7.2-2.2-11.4-2.2
		c-6,0-11.4,1.4-16,4.2c-4.6,2.8-8.8,6.8-12.7,11.8v51.2H744.1z"/>
	<path fill="#F15A29" d="M846.8,582.4v-106H858c2.7,0,4.4,1.3,4.9,3.8l1.4,10.9c4-4.9,8.3-8.7,13.2-11.8c4.9-3.1,10.5-4.6,16.9-4.6
		c7.2,0,12.9,2,17.3,6c4.5,4,7.7,9.3,9.6,16.1c1.5-3.8,3.5-7.2,5.9-10c2.4-2.8,5.1-5.1,8.1-6.9c2.9-1.8,6.1-3.2,9.6-4
		c3.5-0.8,6.8-1.3,10.4-1.3c5.6,0,10.5,0.9,14.8,2.7c4.4,1.8,8.1,4.4,11.1,7.8s5.4,7.7,6.9,12.7c1.7,5,2.4,10.8,2.4,17.2v67.5h-18.7
		v-67.5c0-8.3-1.8-14.6-5.5-18.9c-3.6-4.4-8.8-6.4-15.7-6.4c-3.1,0-6,0.5-8.7,1.7c-2.8,1-5.1,2.7-7.3,4.7c-2,2-3.7,4.7-5,7.9
		c-1.3,3.2-1.8,6.9-1.8,11v67.5h-18.7v-67.5c0-8.4-1.7-14.8-5.1-19.1c-3.5-4.2-8.4-6.3-15-6.3c-4.6,0-8.8,1.3-12.8,3.7
		c-4,2.4-7.6,5.9-10.8,10.1v79h-18.6V582.4z"/>
	<path fill="#F15A29" d="M1109.1,567.6c-2.3,2.8-5.1,5.2-8.3,7.3c-3.2,2-6.7,3.7-10.4,5.1c-3.7,1.3-7.4,2.3-11.4,2.9
		c-4,0.6-7.8,1-11.6,1c-7.3,0-14.1-1.3-20.2-3.7c-6.1-2.4-11.5-6.1-16-10.9c-4.5-4.7-8.1-10.8-10.5-17.8c-2.6-7-3.7-15.1-3.7-24.3
		c0-7.4,1.2-14.3,3.5-20.7c2.3-6.4,5.5-12,9.7-16.6c4.2-4.7,9.5-8.4,15.6-11.1c6.1-2.7,13.1-4,20.7-4c6.4,0,12.3,1,17.7,3.2
		c5.4,2.2,10.1,5.2,14.1,9.2c4,4,7,9,9.2,14.8c2.2,5.9,3.3,12.7,3.3,20.1c0,2.9-0.3,4.9-0.9,5.9c-0.6,1-1.8,1.4-3.6,1.4h-70.8
		c0.3,6.7,1.2,12.5,2.8,17.5c1.7,5,4,9.1,6.9,12.4c2.9,3.3,6.4,5.8,10.5,7.4c4.1,1.7,8.6,2.4,13.6,2.4c4.7,0,8.7-0.5,12-1.7
		c3.3-1,6.3-2.3,8.7-3.5c2.4-1.3,4.5-2.4,6.1-3.5s3.1-1.7,4.2-1.7c1.5,0,2.7,0.6,3.6,1.8L1109.1,567.6z M1094.1,517.9
		c0-4.4-0.6-8.3-1.8-11.9c-1.3-3.6-2.9-6.7-5.4-9.3c-2.3-2.6-5.1-4.6-8.6-6c-3.3-1.4-7.2-2.2-11.4-2.2c-9,0-16,2.6-21.2,7.8
		c-5.2,5.2-8.4,12.4-9.7,21.6L1094.1,517.9L1094.1,517.9z"/>
	<path fill="#F15A29" d="M1225.5,428.3v154.1h-11.1c-2.7,0-4.4-1.3-5-3.8l-1.7-12.9c-4.5,5.5-9.7,9.9-15.5,13.2s-12.5,5-20.1,5
		c-6,0-11.5-1.2-16.5-3.5c-5-2.3-9.2-5.8-12.7-10.4c-3.5-4.5-6.1-10.2-8.1-16.9c-1.9-6.8-2.8-14.6-2.8-23.3c0-7.8,1-15.1,3.2-21.8
		c2-6.8,5.1-12.5,9-17.5c4-5,8.7-8.8,14.3-11.6s12-4.2,19.2-4.2c6.5,0,12,1.2,16.6,3.3c4.6,2.2,8.8,5.2,12.4,9.2v-58.8h18.7V428.3z
		 M1206.9,501.6c-3.5-4.7-7.3-7.9-11.3-9.7c-4.1-1.8-8.6-2.8-13.6-2.8c-9.9,0-17.4,3.6-22.7,10.6c-5.2,7-7.9,17.2-7.9,30.1
		c0,6.9,0.6,12.8,1.8,17.8c1.2,5,2.9,9,5.2,12.2c2.3,3.2,5.1,5.5,8.4,6.9c3.3,1.4,7.2,2.2,11.4,2.2c6.1,0,11.5-1.4,16-4.2
		c4.6-2.8,8.8-6.8,12.7-11.8v-51.2H1206.9z"/>
</g>
<g>
	<path fill="#414042" d="M609.9,421.5c-0.1,0.3-0.4,0.5-0.5,0.6c-0.1,0.1-0.4,0.1-0.6,0.1c-0.3,0-0.6-0.1-1-0.4s-0.9-0.6-1.4-1
		c-0.6-0.4-1.3-0.6-2.2-1c-0.8-0.3-1.8-0.4-3.1-0.4c-1.2,0-2,0.1-2.9,0.4c-0.9,0.3-1.5,0.8-2.2,1.3c-0.6,0.5-1,1.2-1.3,1.8
		c-0.3,0.6-0.4,1.4-0.4,2.3c0,1,0.3,1.9,0.8,2.6c0.5,0.6,1.2,1.3,2,1.8c0.8,0.5,1.8,0.9,2.8,1.3s2.2,0.8,3.2,1.2
		c1.2,0.4,2.2,0.8,3.2,1.3s2,1,2.8,1.8c0.8,0.8,1.5,1.5,2,2.7c0.5,1,0.8,2.3,0.8,3.8c0,1.7-0.3,3.1-0.8,4.5
		c-0.5,1.4-1.3,2.7-2.4,3.7c-1,1-2.3,1.9-3.8,2.4c-1.5,0.6-3.3,0.9-5.2,0.9c-2.4,0-4.6-0.4-6.5-1.3c-1.9-0.9-3.6-2-5-3.5l1.4-2.3
		c0.1-0.1,0.3-0.4,0.5-0.5c0.3-0.1,0.4-0.1,0.6-0.1c0.3,0,0.5,0.1,0.8,0.3c0.3,0.1,0.6,0.4,1,0.6c0.4,0.3,0.8,0.5,1.3,0.9
		c0.5,0.4,1,0.6,1.5,0.9c0.6,0.3,1.3,0.5,2,0.6c0.8,0.1,1.5,0.3,2.6,0.3c1.2,0,2.2-0.1,3.2-0.5c0.9-0.4,1.7-0.8,2.3-1.4
		c0.6-0.6,1.2-1.3,1.4-2c0.3-0.8,0.5-1.8,0.5-2.7c0-1.2-0.3-2-0.8-2.7c-0.5-0.8-1.2-1.3-1.9-1.8s-1.8-0.9-2.8-1.2
		c-1-0.4-2.2-0.6-3.2-1c-1.2-0.4-2.2-0.8-3.2-1.2c-1-0.5-2-1-2.8-1.8c-0.8-0.8-1.5-1.7-2-2.8c-0.5-1.2-0.8-2.4-0.8-4.1
		c0-1.3,0.3-2.6,0.8-3.7c0.5-1.2,1.3-2.3,2.2-3.2c1-0.9,2.2-1.7,3.6-2.3c1.4-0.6,3.1-0.9,4.9-0.9c2,0,4,0.4,5.6,1
		c1.7,0.6,3.2,1.5,4.5,2.8L609.9,421.5z"/>
	<path fill="#414042" d="M626.2,418.4c0,0.4-0.1,0.9-0.3,1.3s-0.4,0.8-0.8,1c-0.3,0.3-0.6,0.5-1,0.8c-0.4,0.1-0.8,0.3-1.3,0.3
		c-0.5,0-0.9-0.1-1.3-0.3s-0.8-0.4-1-0.8c-0.3-0.3-0.5-0.6-0.6-1c-0.1-0.4-0.3-0.8-0.3-1.3c0-0.4,0.1-0.9,0.3-1.3
		c0.1-0.4,0.4-0.8,0.6-1c0.3-0.3,0.6-0.5,1-0.6c0.4-0.1,0.8-0.3,1.3-0.3c0.5,0,0.9,0.1,1.3,0.3c0.4,0.1,0.8,0.4,1,0.6
		c0.3,0.3,0.5,0.6,0.8,1C626.2,417.5,626.2,417.9,626.2,418.4z M625.3,426.6v25.9h-4.6v-26h4.6V426.6z"/>
	<path fill="#414042" d="M635.5,452.5v-26h2.7c0.6,0,1,0.3,1.2,0.9l0.4,2.7c0.9-1.2,2-2.2,3.2-2.9s2.6-1.2,4.1-1.2
		c1.8,0,3.2,0.5,4.2,1.4c1,1,1.9,2.3,2.3,4c0.4-0.9,0.9-1.8,1.4-2.4c0.6-0.6,1.3-1.3,1.9-1.7c0.8-0.4,1.5-0.8,2.3-1
		c0.8-0.3,1.7-0.3,2.6-0.3c1.4,0,2.6,0.3,3.6,0.6s1.9,1,2.7,1.9s1.3,1.9,1.7,3.1c0.4,1.2,0.6,2.6,0.6,4.2v16.6h-4.6V436
		c0-2-0.4-3.6-1.3-4.6c-0.9-1-2.2-1.5-3.8-1.5c-0.8,0-1.4,0.1-2.2,0.4c-0.6,0.3-1.3,0.6-1.8,1.2s-0.9,1.2-1.3,1.9
		c-0.3,0.8-0.4,1.7-0.4,2.7v16.5h-4.6V436c0-2-0.4-3.6-1.3-4.6c-0.9-1-2-1.5-3.7-1.5c-1.2,0-2.2,0.3-3.1,0.9
		c-0.9,0.6-1.8,1.4-2.7,2.4v19.3H635.5z"/>
	<path fill="#414042" d="M684.7,430.6c1.2-1.4,2.3-2.4,3.8-3.2c1.4-0.8,3.1-1.3,4.9-1.3c1.5,0,2.8,0.3,4.1,0.9
		c1.2,0.5,2.3,1.4,3.1,2.6c0.9,1.2,1.5,2.6,1.9,4.2c0.5,1.7,0.6,3.6,0.6,5.8c0,1.9-0.3,3.7-0.8,5.4c-0.5,1.7-1.3,3.1-2.2,4.2
		c-1,1.2-2.2,2.2-3.6,2.8c-1.4,0.6-2.9,1-4.7,1c-1.5,0-2.9-0.3-4.1-0.8c-1.2-0.5-2.2-1.3-2.9-2.3v11.5h-4.6v-34.7h2.7
		c0.6,0,1,0.3,1.2,0.9L684.7,430.6z M684.9,446.2c0.9,1.2,1.8,1.9,2.7,2.4s2,0.6,3.3,0.6c2.4,0,4.2-0.9,5.6-2.6
		c1.3-1.7,1.9-4.2,1.9-7.4c0-1.7-0.1-3.2-0.4-4.4c-0.3-1.2-0.8-2.2-1.3-2.9c-0.5-0.8-1.3-1.3-2-1.7c-0.8-0.4-1.8-0.5-2.8-0.5
		c-1.5,0-2.8,0.4-4,1c-1.2,0.6-2.2,1.7-3.1,2.9V446.2z"/>
	<path fill="#414042" d="M716.5,414.7v37.8h-4.6v-37.8H716.5z"/>
	<path fill="#414042" d="M747.6,448.9c-0.5,0.6-1.3,1.3-2,1.8c-0.8,0.5-1.7,0.9-2.6,1.3s-1.8,0.5-2.8,0.8c-0.9,0.1-1.9,0.3-2.8,0.3
		c-1.8,0-3.5-0.3-5-0.9c-1.5-0.6-2.8-1.5-4-2.7c-1.2-1.2-1.9-2.6-2.6-4.4c-0.6-1.7-0.9-3.7-0.9-5.9c0-1.8,0.3-3.5,0.8-5.1
		c0.5-1.5,1.4-2.9,2.4-4.1c1-1.2,2.3-2,3.8-2.7s3.2-1,5.1-1c1.5,0,2.9,0.3,4.4,0.8c1.3,0.5,2.4,1.3,3.5,2.3c1,1,1.7,2.2,2.3,3.6
		c0.5,1.4,0.8,3.1,0.8,5c0,0.8-0.1,1.2-0.3,1.4c-0.1,0.3-0.4,0.4-0.9,0.4h-17.3c0,1.7,0.3,3.1,0.6,4.2c0.4,1.2,1,2.2,1.7,3.1
		c0.8,0.8,1.5,1.4,2.6,1.8c1,0.4,2,0.6,3.3,0.6c1.2,0,2.2-0.1,2.9-0.4c0.8-0.3,1.5-0.5,2.2-0.9s1.2-0.6,1.5-0.9
		c0.4-0.3,0.8-0.4,1-0.4c0.4,0,0.6,0.1,0.9,0.4L747.6,448.9z M744.1,436.7c0-1-0.1-2-0.4-2.9c-0.3-0.9-0.8-1.7-1.3-2.3
		c-0.5-0.6-1.3-1.2-2-1.5c-0.8-0.4-1.8-0.5-2.8-0.5c-2.2,0-4,0.6-5.1,1.9c-1.3,1.3-2,3.1-2.4,5.2h14.1V436.7z"/>
	<path fill="#414042" d="M755.7,449.7c0-0.4,0.1-0.9,0.3-1.3c0.1-0.4,0.4-0.8,0.6-1c0.3-0.3,0.6-0.5,1-0.6c0.4-0.1,0.8-0.3,1.3-0.3
		c0.5,0,0.9,0.1,1.3,0.3s0.8,0.4,1,0.6c0.3,0.3,0.5,0.6,0.6,1c0.1,0.4,0.3,0.8,0.3,1.3s-0.1,0.9-0.3,1.3c-0.1,0.4-0.4,0.8-0.6,1
		c-0.3,0.3-0.6,0.5-1,0.6c-0.4,0.1-0.8,0.3-1.3,0.3c-0.5,0-0.9-0.1-1.3-0.3s-0.8-0.4-1-0.6c-0.3-0.3-0.5-0.6-0.6-1
		C755.7,450.6,755.7,450.2,755.7,449.7z"/>
	<path fill="#414042" d="M815.4,452.5H811c-0.9,0-1.5-0.4-2-1l-9.5-13.1c-0.3-0.4-0.6-0.6-0.9-0.9c-0.3-0.3-0.9-0.3-1.5-0.3h-3.7
		v15.4h-5v-36.7h10.4c2.3,0,4.4,0.3,6,0.8s3.1,1.2,4.2,2c1.2,0.9,1.9,1.9,2.4,3.2s0.8,2.7,0.8,4.2c0,1.3-0.3,2.6-0.6,3.6
		c-0.4,1.2-1,2.2-1.8,3.1c-0.8,0.9-1.7,1.7-2.8,2.3c-1.2,0.6-2.4,1.2-3.8,1.4c0.6,0.4,1.2,0.9,1.7,1.5L815.4,452.5z M798.5,433.5
		c1.4,0,2.7-0.1,3.8-0.5s2-0.9,2.8-1.5c0.8-0.6,1.3-1.4,1.7-2.3c0.4-0.9,0.5-1.9,0.5-2.9c0-2.2-0.8-3.8-2.2-5
		c-1.4-1.2-3.6-1.7-6.4-1.7h-5.4v13.8h5.1V433.5z"/>
	<path fill="#414042" d="M841.3,448.9c-0.5,0.6-1.3,1.3-2,1.8c-0.8,0.5-1.7,0.9-2.6,1.3c-0.9,0.4-1.8,0.5-2.8,0.8
		c-0.9,0.1-1.9,0.3-2.8,0.3c-1.8,0-3.5-0.3-5-0.9c-1.5-0.6-2.8-1.5-4-2.7c-1.2-1.2-1.9-2.6-2.6-4.4c-0.6-1.7-0.9-3.7-0.9-5.9
		c0-1.8,0.3-3.5,0.8-5.1c0.5-1.5,1.4-2.9,2.4-4.1c1-1.2,2.3-2,3.8-2.7s3.2-1,5.1-1c1.5,0,2.9,0.3,4.4,0.8c1.3,0.5,2.4,1.3,3.5,2.3
		c1,1,1.7,2.2,2.3,3.6c0.5,1.4,0.8,3.1,0.8,5c0,0.8-0.1,1.2-0.3,1.4c-0.1,0.3-0.4,0.4-0.9,0.4h-17.3c0,1.7,0.3,3.1,0.6,4.2
		s1,2.2,1.7,3.1c0.8,0.8,1.5,1.4,2.6,1.8c1,0.4,2,0.6,3.3,0.6c1.2,0,2.2-0.1,2.9-0.4c0.8-0.3,1.5-0.5,2.2-0.9
		c0.6-0.4,1.2-0.6,1.5-0.9c0.4-0.3,0.8-0.4,1-0.4c0.4,0,0.6,0.1,0.9,0.4L841.3,448.9z M837.8,436.7c0-1-0.1-2-0.4-2.9
		c-0.3-0.9-0.8-1.7-1.3-2.3c-0.5-0.6-1.3-1.2-2-1.5s-1.8-0.5-2.8-0.5c-2.2,0-4,0.6-5.1,1.9c-1.3,1.3-2,3.1-2.4,5.2h14.1V436.7z"/>
	<path fill="#414042" d="M854.9,414.7v37.8h-4.6v-37.8H854.9z"/>
	<path fill="#414042" d="M870.8,418.4c0,0.4-0.1,0.9-0.3,1.3c-0.1,0.4-0.4,0.8-0.8,1c-0.3,0.3-0.6,0.5-1,0.8
		c-0.4,0.3-0.8,0.3-1.3,0.3s-0.9-0.1-1.3-0.3c-0.4-0.1-0.8-0.4-1-0.8c-0.3-0.3-0.5-0.6-0.6-1c-0.1-0.4-0.3-0.8-0.3-1.3
		c0-0.4,0.1-0.9,0.3-1.3c0.1-0.4,0.4-0.8,0.6-1c0.3-0.3,0.6-0.5,1-0.6c0.4-0.1,0.8-0.3,1.3-0.3s0.9,0.1,1.3,0.3
		c0.4,0.1,0.8,0.4,1,0.6c0.3,0.3,0.5,0.6,0.8,1S870.8,417.9,870.8,418.4z M869.8,426.6v25.9h-4.5v-26h4.5V426.6z"/>
	<path fill="#414042" d="M879.4,430.2c1.4-1.4,2.9-2.4,4.6-3.1c1.7-0.6,3.5-1,5.5-1c1.4,0,2.7,0.3,3.8,0.8s2,1.2,2.8,2
		s1.4,1.9,1.8,3.1c0.4,1.2,0.6,2.6,0.6,4v16.6h-2c-0.4,0-0.8-0.1-1-0.3c-0.3-0.1-0.4-0.4-0.5-0.9l-0.5-2.4c-0.6,0.6-1.4,1.2-2,1.7
		c-0.6,0.5-1.3,0.9-2,1.3c-0.8,0.4-1.5,0.6-2.3,0.8c-0.8,0.1-1.7,0.3-2.7,0.3s-1.9-0.1-2.8-0.4c-0.9-0.3-1.7-0.8-2.3-1.3
		c-0.6-0.5-1.2-1.3-1.5-2.2c-0.4-0.9-0.6-1.9-0.6-3.1c0-1,0.3-2,0.9-2.9c0.5-0.9,1.5-1.8,2.7-2.6c1.3-0.8,2.9-1.3,5-1.8
		s4.5-0.8,7.4-0.8v-2.2c0-2-0.4-3.6-1.3-4.6c-0.9-1-2.2-1.5-3.8-1.5c-1.2,0-2,0.1-2.8,0.4c-0.8,0.3-1.4,0.6-1.9,0.9
		c-0.5,0.3-1,0.6-1.4,0.9c-0.4,0.3-0.8,0.4-1.2,0.4c-0.3,0-0.5-0.1-0.8-0.3c-0.3-0.1-0.4-0.4-0.5-0.6L879.4,430.2z M894.1,440.8
		c-2,0.1-3.8,0.3-5.4,0.5c-1.5,0.3-2.7,0.6-3.6,1c-0.9,0.4-1.7,0.9-2,1.5c-0.4,0.6-0.6,1.3-0.6,1.9c0,0.6,0.1,1.3,0.4,1.8
		c0.3,0.5,0.5,0.9,0.9,1.2c0.4,0.3,0.9,0.5,1.4,0.6c0.5,0.1,1,0.3,1.7,0.3c0.8,0,1.5-0.1,2.2-0.3c0.6-0.1,1.3-0.4,1.9-0.6
		c0.6-0.3,1.2-0.6,1.7-1.2c0.5-0.4,1-0.9,1.5-1.4V440.8z"/>
	<path fill="#414042" d="M912.9,430.3c1.2-1.3,2.3-2.3,3.7-3.1c1.4-0.8,2.9-1.2,4.7-1.2c1.5,0,2.9,0.3,4.1,0.9
		c1.2,0.6,2.3,1.4,3.1,2.6c0.9,1.2,1.5,2.4,1.9,4c0.4,1.5,0.6,3.3,0.6,5.2c0,2-0.3,4-0.8,5.8c-0.5,1.7-1.3,3.2-2.2,4.5
		c-1,1.3-2.2,2.2-3.6,2.8c-1.4,0.6-2.9,1-4.6,1s-3.2-0.4-4.4-1c-1.2-0.6-2.2-1.5-3.1-2.7l-0.3,2.3c-0.1,0.6-0.5,1-1.2,1h-2.9v-37.8
		h4.6v15.6H912.9z M912.9,446.2c0.9,1.2,1.8,1.9,2.7,2.4s2,0.6,3.3,0.6c2.4,0,4.4-0.9,5.6-2.6c1.3-1.7,1.9-4.4,1.9-7.7
		c0-3.2-0.5-5.5-1.7-7c-1.2-1.5-2.8-2.3-4.9-2.3c-1.5,0-2.8,0.4-3.8,1c-1,0.6-2.2,1.7-3.1,2.9v12.5H912.9z"/>
	<path fill="#414042" d="M944.4,414.7v37.8h-4.6v-37.8H944.4z"/>
	<path fill="#414042" d="M976.9,426.6l-14.5,33.5c-0.1,0.4-0.4,0.6-0.6,0.8c-0.3,0.3-0.6,0.3-1,0.3h-3.3l4.7-10.2l-10.8-24.4h4
		c0.4,0,0.6,0.1,0.9,0.3c0.3,0.3,0.4,0.4,0.5,0.6l6.9,16.4c0.3,0.8,0.5,1.4,0.6,2.3c0.3-0.8,0.5-1.5,0.8-2.3l6.8-16.3
		c0.1-0.3,0.3-0.5,0.5-0.6c0.3-0.1,0.5-0.3,0.9-0.3H976.9z"/>
	<path fill="#414042" d="M981.1,449.7c0-0.4,0.1-0.9,0.3-1.3c0.1-0.4,0.4-0.8,0.6-1c0.3-0.3,0.6-0.5,1-0.6c0.4-0.1,0.8-0.3,1.3-0.3
		c0.5,0,0.9,0.1,1.3,0.3s0.8,0.4,1,0.6c0.3,0.3,0.5,0.6,0.6,1c0.1,0.4,0.3,0.8,0.3,1.3s-0.1,0.9-0.3,1.3c-0.1,0.4-0.4,0.8-0.6,1
		c-0.3,0.3-0.6,0.5-1,0.6c-0.4,0.1-0.8,0.3-1.3,0.3c-0.5,0-0.9-0.1-1.3-0.3s-0.8-0.4-1-0.6c-0.3-0.3-0.5-0.6-0.6-1
		C981.2,450.6,981.1,450.2,981.1,449.7z"/>
	<path fill="#414042" d="M1047.6,434.2c0,2.7-0.4,5.2-1.3,7.6c-0.9,2.3-2,4.2-3.7,5.9s-3.5,2.9-5.8,3.8c-2.2,0.9-4.7,1.4-7.4,1.4
		s-5.1-0.5-7.4-1.4c-2.2-0.9-4.1-2.2-5.8-3.8c-1.5-1.7-2.8-3.6-3.7-5.9c-0.9-2.3-1.3-4.9-1.3-7.6c0-2.7,0.4-5.2,1.3-7.6
		s2-4.2,3.7-5.9c1.5-1.7,3.5-2.9,5.8-3.8c2.2-0.9,4.7-1.4,7.4-1.4s5.1,0.5,7.4,1.4c2.2,0.9,4.1,2.2,5.8,3.8c1.5,1.7,2.8,3.6,3.7,5.9
		C1047.2,428.9,1047.6,431.4,1047.6,434.2z M1042.6,434.2c0-2.3-0.3-4.2-0.9-6s-1.5-3.3-2.6-4.5c-1.2-1.3-2.4-2.2-4.1-2.8
		c-1.7-0.6-3.5-1-5.4-1c-1.9,0-3.7,0.4-5.4,1c-1.7,0.6-2.9,1.7-4.1,2.8c-1.2,1.3-2,2.7-2.7,4.5s-0.9,3.8-0.9,6c0,2.3,0.3,4.2,0.9,6
		s1.5,3.3,2.7,4.5c1.2,1.3,2.6,2.2,4.1,2.8c1.7,0.6,3.3,1,5.4,1c1.9,0,3.7-0.4,5.4-1c1.7-0.6,2.9-1.7,4.1-2.8c1.2-1.3,2-2.7,2.6-4.5
		C1042.2,438.4,1042.6,436.4,1042.6,434.2z"/>
	<path fill="#414042" d="M1060.2,430.3c0.5-0.6,1.2-1.2,1.8-1.7s1.3-0.9,2-1.3s1.4-0.6,2.3-0.9c0.8-0.3,1.7-0.3,2.6-0.3
		c1.4,0,2.7,0.3,3.7,0.8c1,0.5,2,1.2,2.7,2c0.8,0.9,1.3,1.9,1.7,3.1c0.4,1.2,0.5,2.6,0.5,4v16.4h-4.6V436c0-1.9-0.5-3.5-1.3-4.6
		c-0.9-1-2.3-1.7-4.1-1.7c-1.4,0-2.6,0.4-3.8,1c-1.2,0.6-2.3,1.5-3.2,2.7v19.1h-4.6v-26h2.7c0.6,0,1,0.3,1.2,0.9L1060.2,430.3z"/>
	<path fill="#414042" d="M1092,414.7v37.8h-4.6v-37.8H1092z"/>
	<path fill="#414042" d="M1107.8,418.4c0,0.4-0.1,0.9-0.3,1.3s-0.4,0.8-0.8,1c-0.3,0.3-0.6,0.5-1,0.8c-0.4,0.3-0.8,0.3-1.3,0.3
		c-0.5,0-0.9-0.1-1.3-0.3c-0.4-0.1-0.8-0.4-1-0.8c-0.3-0.3-0.5-0.6-0.6-1c-0.1-0.4-0.3-0.8-0.3-1.3c0-0.4,0.1-0.9,0.3-1.3
		s0.4-0.8,0.6-1c0.3-0.3,0.6-0.5,1-0.6c0.4-0.1,0.8-0.3,1.3-0.3c0.5,0,0.9,0.1,1.3,0.3c0.4,0.1,0.8,0.4,1,0.6c0.3,0.3,0.5,0.6,0.8,1
		C1107.8,417.5,1107.8,417.9,1107.8,418.4z M1106.8,426.6v25.9h-4.6v-26h4.6V426.6z"/>
	<path fill="#414042" d="M1121.4,430.3c0.5-0.6,1.2-1.2,1.8-1.7s1.3-0.9,2-1.3s1.4-0.6,2.3-0.9c0.8-0.3,1.7-0.3,2.6-0.3
		c1.4,0,2.7,0.3,3.7,0.8c1,0.5,2,1.2,2.7,2c0.8,0.9,1.3,1.9,1.7,3.1c0.4,1.2,0.5,2.6,0.5,4v16.4h-4.6V436c0-1.9-0.5-3.5-1.3-4.6
		c-0.9-1-2.3-1.7-4.1-1.7c-1.4,0-2.6,0.4-3.8,1c-1.2,0.6-2.3,1.5-3.2,2.7v19.1h-4.6v-26h2.7c0.6,0,1,0.3,1.2,0.9L1121.4,430.3z"/>
	<path fill="#414042" d="M1169.5,448.9c-0.5,0.6-1.3,1.3-2,1.8s-1.7,0.9-2.6,1.3c-0.9,0.4-1.8,0.5-2.8,0.8c-0.9,0.1-1.9,0.3-2.8,0.3
		c-1.8,0-3.5-0.3-5-0.9c-1.5-0.6-2.8-1.5-4-2.7s-1.9-2.6-2.6-4.4c-0.6-1.7-0.9-3.7-0.9-5.9c0-1.8,0.3-3.5,0.8-5.1
		c0.5-1.5,1.4-2.9,2.4-4.1c1-1.2,2.3-2,3.8-2.7s3.2-1,5.1-1c1.5,0,2.9,0.3,4.4,0.8c1.3,0.5,2.4,1.3,3.5,2.3c1,1,1.7,2.2,2.3,3.6
		c0.5,1.4,0.8,3.1,0.8,5c0,0.8-0.1,1.2-0.3,1.4c-0.1,0.3-0.4,0.4-0.9,0.4h-17.3c0,1.7,0.3,3.1,0.6,4.2c0.4,1.2,1,2.2,1.7,3.1
		c0.8,0.8,1.5,1.4,2.6,1.8c1,0.4,2,0.6,3.3,0.6c1.2,0,2.2-0.1,2.9-0.4c0.8-0.3,1.5-0.5,2.2-0.9s1.2-0.6,1.5-0.9
		c0.4-0.3,0.8-0.4,1-0.4c0.4,0,0.6,0.1,0.9,0.4L1169.5,448.9z M1165.8,436.7c0-1-0.1-2-0.4-2.9c-0.3-0.9-0.8-1.7-1.3-2.3
		c-0.5-0.6-1.3-1.2-2-1.5c-0.8-0.4-1.8-0.5-2.8-0.5c-2.2,0-4,0.6-5.1,1.9c-1.3,1.3-2,3.1-2.4,5.2h14.1V436.7z"/>
	<path fill="#414042" d="M1177.5,449.7c0-0.4,0.1-0.9,0.3-1.3c0.1-0.4,0.4-0.8,0.6-1c0.3-0.3,0.6-0.5,1-0.6c0.4-0.1,0.8-0.3,1.3-0.3
		c0.5,0,0.9,0.1,1.3,0.3c0.4,0.1,0.8,0.4,1,0.6c0.3,0.3,0.5,0.6,0.6,1c0.1,0.4,0.3,0.8,0.3,1.3s-0.1,0.9-0.3,1.3
		c-0.1,0.4-0.4,0.8-0.6,1c-0.3,0.3-0.6,0.5-1,0.6c-0.4,0.1-0.8,0.3-1.3,0.3c-0.5,0-0.9-0.1-1.3-0.3c-0.4-0.1-0.8-0.4-1-0.6
		c-0.3-0.3-0.5-0.6-0.6-1C1177.6,450.6,1177.5,450.2,1177.5,449.7z"/>
</g>
<g>
	
		<linearGradient id="SVGID_1_" gradientUnits="userSpaceOnUse" x1="138.15" y1="747.6759" x2="138.15" y2="625.8576" gradientTransform="matrix(1.28 0 0 -1.28 0 1201.28)">
		<stop  offset="0" style="stop-color:#790410"/>
		<stop  offset="1" style="stop-color:#BE1E2D"/>
	</linearGradient>
	<polygon fill="url(#SVGID_1_)" points="215.6,185.1 138.1,214.7 138.1,612.2 215.6,582.7 	"/>
	
		<linearGradient id="SVGID_2_" gradientUnits="userSpaceOnUse" x1="189.7759" y1="646.9556" x2="228.7523" y2="551.9506" gradientTransform="matrix(1.28 0 0 -1.28 0 1201.28)">
		<stop  offset="0" style="stop-color:#F15A29"/>
		<stop  offset="1" style="stop-color:#C74A20"/>
	</linearGradient>
	<polygon fill="url(#SVGID_2_)" points="215.6,185.1 138.1,214.7 271.5,564.2 348.9,534.7 	"/>
	
		<linearGradient id="SVGID_3_" gradientUnits="userSpaceOnUse" x1="287.9106" y1="633.295" x2="265.1733" y2="572.662" gradientTransform="matrix(1.28 0 0 -1.28 0 1201.28)">
		<stop  offset="0" style="stop-color:#790410"/>
		<stop  offset="1" style="stop-color:#BE1E2D"/>
	</linearGradient>
	<polygon fill="url(#SVGID_3_)" points="348.9,534.7 271.5,564.2 341.8,370.3 419.2,340.7 	"/>
	
		<linearGradient id="SVGID_4_" gradientUnits="userSpaceOnUse" x1="317.034" y1="588.4546" x2="336.5222" y2="496.6976" gradientTransform="matrix(1.28 0 0 -1.28 0 1201.28)">
		<stop  offset="0" style="stop-color:#F15A29"/>
		<stop  offset="1" style="stop-color:#C74A20"/>
	</linearGradient>
	<polygon fill="url(#SVGID_4_)" points="481.9,582.7 404.5,612.1 341.8,370.3 419.2,340.7 	"/>
</g>
<g>
	<polygon fill="#C6C6C6" points="216.8,582.4 139.6,611.8 157.8,622.7 284.2,622.7 	"/>
	<path fill="#C6C6C6" d="M549,622.3l-66.7-39.9l-77.2,29.4l18,10.9h125.7C548.9,622.6,548.9,622.5,549,622.3z"/>
</g>
</svg>
