<?xml version="1.0" encoding="utf-8"?>
<!-- Generator: Adobe Illustrator 18.1.0, SVG Export Plug-In . SVG Version: 6.00 Build 0)  -->
<svg version="1.2" baseProfile="tiny" xmlns="http://www.w3.org/2000/svg" xmlns:xlink="http://www.w3.org/1999/xlink" x="0px"
	 y="0px" viewBox="0 0 50 50" xml:space="preserve">
<g id="Layer_1" display="none">
	<linearGradient id="SVGID_1_" gradientUnits="userSpaceOnUse" x1="3.5087" y1="25" x2="45.0861" y2="25">
		<stop  offset="0" style="stop-color:#284775"/>
		<stop  offset="1" style="stop-color:#1B365E"/>
	</linearGradient>
	<path display="inline" fill="url(#SVGID_1_)" d="M45.1,13.9c0-5.7-2.6-8.7-4.9-10.3c-3.1-2.2-6.7-2.5-8.1-2.5
		c-3.1,0-6.2,1.4-7.9,2.3c-1.6-0.9-4.7-2.3-7.9-2.3c-1.4,0-4.9,0.2-8.1,2.5C6.1,5.2,3.5,8.2,3.5,13.9c0,3.9,0.6,7.1,1.7,9.6
		c0.4,0.9,0.9,1.6,1.2,2.1c-0.3,2.8-0.9,10.5,0.3,14c1.9,5.4,5.1,8.5,9.6,9.3c0.1,0,0.2,0,0.4,0c0.4,0,0.8-0.1,1.2-0.4
		c0.4-0.3,0.7-0.8,0.8-1.4c0,0,0.4-4,1.5-7.9c1.4-4.9,3-6.7,4.1-6.8c1.1,0.1,2.7,1.9,4.1,6.8c1.1,3.9,1.5,7.9,1.5,7.9
		c0.1,0.6,0.3,1.1,0.8,1.4c0.3,0.3,0.8,0.4,1.2,0.4c0.1,0,0.2,0,0.4,0c4.5-0.8,7.7-3.9,9.6-9.3c1.3-3.5,0.6-11.2,0.3-14
		c0.4-0.5,0.8-1.1,1.2-2.1C44.5,21,45.1,17.8,45.1,13.9z M38.9,23.3c-0.6,0.4-0.9,1.1-0.8,1.8c0.4,3.8,0.8,10.7,0,13.1
		c-1.1,3.1-2.6,5.1-4.6,6.1c-0.2-1.6-0.7-3.9-1.3-6.2c-1.8-6.4-4.4-9.6-7.9-9.7v0c0,0,0,0-0.1,0c0,0,0,0-0.1,0v0
		c-3.5,0.1-6.1,3.3-7.9,9.7c-0.6,2.3-1,4.5-1.3,6.2c-2-1-3.5-2.9-4.6-6.1c-0.9-2.4-0.5-9.3,0-13.1c0.1-0.8-0.1-1.4-0.8-1.8
		c-0.3-0.3-2.2-2.5-2.2-9.4c0-8.4,7.5-8.8,9-8.8c2.7,0,5.7,1.7,6.6,2.2c-1,1.1-2.8,2.4-5.6,2.4c-0.5,0-1,0.4-1,1c0,0.5,0.4,1,1,1
		c4.6,0,7.1-2.9,8-4.2v0c1-0.7,4.1-2.4,6.8-2.4c1.5,0,9,0.4,9,8.8C41.1,20.8,39.2,23,38.9,23.3z"/>
</g>
<g id="Layer_2">
	<g>
		<linearGradient id="SVGID_2_" gradientUnits="userSpaceOnUse" x1="3.1085" y1="29.2404" x2="46.8915" y2="29.2404">
			<stop  offset="0" style="stop-color:#284775"/>
			<stop  offset="1" style="stop-color:#1B365E"/>
		</linearGradient>
		<path fill="url(#SVGID_2_)" d="M43.6,13.9v-2.6h-5V8.9h-3.2c0,5.8-4.7,10.4-10.4,10.4c-5.8,0-10.4-4.7-10.4-10.4h-3.2v2.4H6.4v2.6
			H3.1l1.6,4v31.7h12.7v-1.5h1.8v-6.4h5.1v6.4h1.3v-6.4h5.1v6.4h1.8v1.5h12.7V17.9l1.6-4H43.6z M7.9,20.6h6.8v6.8H7.9V20.6z
			 M14.8,36.8H8V30h6.8V36.8z M16.9,20.6h6.8v6.8h-6.8V20.6z M23.7,36.8h-6.8V30h6.8V36.8z M26.3,20.6h6.8v6.8h-6.8V20.6z
			 M33.2,36.8h-6.8V30h6.8V36.8L33.2,36.8z M35.2,20.6H42v6.8h-6.8V20.6z M42.1,36.8h-6.8V30h6.8V36.8z"/>
		<linearGradient id="SVGID_3_" gradientUnits="userSpaceOnUse" x1="16.522" y1="8.9075" x2="33.4862" y2="8.9075">
			<stop  offset="0" style="stop-color:#284775"/>
			<stop  offset="1" style="stop-color:#1B365E"/>
		</linearGradient>
		<path fill="url(#SVGID_3_)" d="M25,17.4c4.7,0,8.5-3.8,8.5-8.5c0-4.7-3.8-8.5-8.5-8.5c-4.7,0-8.5,3.8-8.5,8.5
			C16.5,13.6,20.3,17.4,25,17.4z M18.8,6.5h3.8V2.7h4.7v3.8h3.8v4.7h-3.8v3.8h-4.7v-3.8h-3.8V6.5z"/>
	</g>
</g>
</svg>
