<?xml version="1.0" encoding="utf-8"?>
<!-- Generator: Adobe Illustrator 18.1.0, SVG Export Plug-In . SVG Version: 6.00 Build 0)  -->
<svg version="1.2" baseProfile="tiny" xmlns="http://www.w3.org/2000/svg" xmlns:xlink="http://www.w3.org/1999/xlink" x="0px"
	 y="0px" viewBox="0 0 50 50" xml:space="preserve">
<g id="Layer_1" display="none">
	<linearGradient id="SVGID_1_" gradientUnits="userSpaceOnUse" x1="4.2113" y1="25" x2="45.7887" y2="25">
		<stop  offset="0" style="stop-color:#284775"/>
		<stop  offset="1" style="stop-color:#1B365E"/>
	</linearGradient>
	<path display="inline" fill="url(#SVGID_1_)" d="M45.8,13.9c0-5.7-2.6-8.7-4.9-10.3c-3.1-2.2-6.7-2.5-8.1-2.5
		c-3.1,0-6.2,1.4-7.9,2.3c-1.6-0.9-4.7-2.3-7.9-2.3c-1.4,0-4.9,0.2-8.1,2.5C6.9,5.2,4.2,8.2,4.2,13.9c0,3.9,0.6,7.1,1.7,9.6
		c0.4,0.9,0.9,1.6,1.2,2.1c-0.3,2.8-0.9,10.5,0.3,14c1.9,5.4,5.1,8.5,9.6,9.3c0.1,0,0.2,0,0.4,0c0.4,0,0.8-0.1,1.2-0.4
		c0.4-0.3,0.7-0.8,0.8-1.4c0,0,0.4-4,1.5-7.9c1.4-4.9,3-6.7,4.1-6.8c1.1,0.1,2.7,1.9,4.1,6.8c1.1,3.9,1.5,7.9,1.5,7.9
		c0.1,0.6,0.3,1.1,0.8,1.4c0.3,0.3,0.8,0.4,1.2,0.4c0.1,0,0.2,0,0.4,0c4.5-0.8,7.7-3.9,9.6-9.3c1.3-3.5,0.6-11.2,0.3-14
		c0.4-0.5,0.8-1.1,1.2-2.1C45.2,21,45.8,17.8,45.8,13.9z M39.6,23.3c-0.6,0.4-0.9,1.1-0.8,1.8c0.4,3.8,0.8,10.7,0,13.1
		c-1.1,3.1-2.6,5.1-4.6,6.1c-0.2-1.6-0.7-3.9-1.3-6.2c-1.8-6.4-4.4-9.6-7.9-9.7v0c0,0,0,0-0.1,0c0,0,0,0-0.1,0v0
		c-3.5,0.1-6.1,3.3-7.9,9.7c-0.6,2.3-1,4.5-1.3,6.2c-2-1-3.5-2.9-4.6-6.1c-0.9-2.4-0.5-9.3,0-13.1c0.1-0.8-0.1-1.4-0.8-1.8
		c-0.3-0.3-2.2-2.5-2.2-9.4c0-8.4,7.5-8.8,9-8.8c2.7,0,5.7,1.7,6.6,2.2c-1,1.1-2.8,2.4-5.6,2.4c-0.5,0-1,0.4-1,1c0,0.5,0.4,1,1,1
		c4.6,0,7.1-2.9,8-4.2v0c1-0.7,4.1-2.4,6.8-2.4c1.5,0,9,0.4,9,8.8C41.8,20.8,39.9,23,39.6,23.3z"/>
</g>
<g id="Layer_4" display="none">
	<linearGradient id="SVGID_2_" gradientUnits="userSpaceOnUse" x1="0.4323" y1="24.5593" x2="49.5677" y2="24.5593">
		<stop  offset="0" style="stop-color:#284775"/>
		<stop  offset="1" style="stop-color:#1B365E"/>
	</linearGradient>
	<path display="inline" fill="url(#SVGID_2_)" d="M49.1,29.6L39,10.1c-0.6-1.1-1.7-1.8-2.9-1.8c-0.6,0-1.2,0.2-1.7,0.5
		c-2,1.3-5.3,3-9.5,3l-0.1,0c-4.2,0-7.4-1.6-9.4-2.9c-0.5-0.3-1.1-0.5-1.7-0.5c-1.2,0-2.3,0.7-2.9,1.8l-10,19.3
		c-0.4,0.9-0.5,1.9-0.3,2.8c0.3,0.9,0.9,1.7,1.7,2.1C6,36.4,15.7,40.8,25,40.8c9.2,0,19-4.4,22.7-6.3c0.8-0.4,1.4-1.2,1.7-2.1
		C49.7,31.4,49.6,30.4,49.1,29.6z M25,36.9c-8.2,0-17-3.9-20.7-5.8l1.7-3.2c4.6,2.1,12.2,4.8,19.5,4.8c3.4,0,7.3-0.6,11.4-1.8
		c0.3-0.1,0.5-0.2,0.8-0.2l-1-3.8c-0.3,0.1-0.5,0.2-0.8,0.2c-3.8,1.1-7.3,1.7-10.5,1.7c-6.5,0-13.3-2.4-17.7-4.3l6.2-11.9
		c2.4,1.5,6.2,3.2,11,3.2l0.1,0c4.8,0,8.6-1.8,11.1-3.4l2.8,5.4c-0.8,0.3-1.5,0.5-2.3,0.7c-3.8,1.1-7.3,1.7-10.5,1.7
		c-1.4,0-3-0.1-4.6-0.4L21,23.7c1.8,0.3,3.5,0.4,5.1,0.4c3.4,0,7.3-0.6,11.4-1.8c1-0.3,2.1-0.6,3.1-1l5.1,9.8
		C42,33,33.2,36.9,25,36.9z"/>
</g>
<g id="Layer_5" display="none">
	<g display="inline">
		<linearGradient id="SVGID_3_" gradientUnits="userSpaceOnUse" x1="20.7328" y1="23.3811" x2="29.2734" y2="23.3811">
			<stop  offset="0" style="stop-color:#284775"/>
			<stop  offset="1" style="stop-color:#1B365E"/>
		</linearGradient>
		<path fill="url(#SVGID_3_)" d="M25,19.1c2.4,0,4.3,1.9,4.3,4.3c0,2.4-1.9,4.3-4.3,4.3c-2.3,0-4.3-1.9-4.3-4.3
			C20.7,21,22.6,19.1,25,19.1z"/>
		<linearGradient id="SVGID_4_" gradientUnits="userSpaceOnUse" x1="12.9087" y1="38.3328" x2="37.0992" y2="38.3328">
			<stop  offset="0" style="stop-color:#284775"/>
			<stop  offset="1" style="stop-color:#1B365E"/>
		</linearGradient>
		<path fill="url(#SVGID_4_)" d="M12.9,44.3l8.8-15.2c1.8,1.2,4.8,1.2,6.6,0l8.8,15.2C30.4,48.7,19.6,48.7,12.9,44.3z"/>
		<linearGradient id="SVGID_5_" gradientUnits="userSpaceOnUse" x1="28.2907" y1="12.9052" x2="49.2179" y2="12.9052">
			<stop  offset="0" style="stop-color:#284775"/>
			<stop  offset="1" style="stop-color:#1B365E"/>
		</linearGradient>
		<path fill="url(#SVGID_5_)" d="M49.2,23.4l-17.6,0c0.1-2.2-1.4-4.7-3.3-5.7l8.8-15.2C44.2,6.1,49.6,15.4,49.2,23.4z"/>
		<linearGradient id="SVGID_6_" gradientUnits="userSpaceOnUse" x1="0.7821" y1="12.9125" x2="21.7092" y2="12.9125">
			<stop  offset="0" style="stop-color:#284775"/>
			<stop  offset="1" style="stop-color:#1B365E"/>
		</linearGradient>
		<path fill="url(#SVGID_6_)" d="M12.9,2.4l8.8,15.2c-1.9,1-3.4,3.5-3.3,5.7l-17.6,0C0.4,15.4,5.8,6.1,12.9,2.4z"/>
	</g>
</g>
<g id="Layer_6">
	<g>
		<linearGradient id="SVGID_7_" gradientUnits="userSpaceOnUse" x1="0.3333" y1="25" x2="49.6667" y2="25">
			<stop  offset="0" style="stop-color:#284775"/>
			<stop  offset="1" style="stop-color:#1B365E"/>
		</linearGradient>
		<path fill="url(#SVGID_7_)" d="M49.7,25c-0.4-1.5-0.2-1.5-0.8-2.6c-0.6-0.8-1.3-2-2-2.4c-1.3-1.1-2.6-1.8-4.1-2.4
			c1.2-3,2.2-6.9-0.3-10.1c-1.3-0.8-1.3-0.9-2.4-1.3c-1-0.2-2.3-0.5-3.2-0.3c-1.9,0.2-3.6,0.7-5.2,1.4c-2.5,1.2-4.7,2.6-6.7,4.2
			c-2-1.6-4.3-3-6.7-4.2c-1.6-0.7-3.3-1.3-5.2-1.4C12.2,5.8,11,6.1,9.9,6.3C8.8,6.6,8.8,6.8,7.6,7.6C5,10.8,6,14.7,7.2,17.6
			C5.8,18.3,4.4,19,3.2,20c-0.7,0.5-1.4,1.6-2,2.4c-0.6,1-0.4,1.1-0.8,2.6c0.4,4.1,3.9,6.1,6.9,7.4c-0.6,1.4-1.1,2.9-1.2,4.6
			c-0.2,0.8,0.1,2.1,0.3,3.1c0.4,1.1,0.5,1.1,1.3,2.4c3.4,2.7,7.7,1.4,10.7,0.1c2.5-1.2,4.7-2.6,6.7-4.2c2.1,1.6,4.3,3,6.7,4.2
			c3,1.3,7.3,2.6,10.7-0.1c0.8-1.3,0.9-1.3,1.3-2.4c0.2-1,0.5-2.3,0.3-3.1c-0.1-1.6-0.6-3.1-1.2-4.6C45.7,31.1,49.2,29.1,49.7,25z
			 M32.6,10.6c1.4-0.5,2.8-0.9,4.1-1c0.7-0.2,0.9,0.1,1.4,0c0.4-0.1,1.5,0.9,1.5,0.7c1.1,1.2,0.9,3.8,0,6.3c-2.5-0.7-5-1.2-7.4-1.4
			c-1.1-0.1-2.1,0-3.1,0c-0.6-0.6-1.3-1.3-2.1-1.9C28.9,12.3,30.8,11.3,32.6,10.6z M13.4,27.2c1.5,1.8,3.1,3.3,4.7,4.8
			c0.1,0.2,0.3,0.3,0.5,0.5c-0.1,0-0.3,0-0.4,0c-2.2-0.4-4.4-1-6.5-1.8C12.1,29.4,12.7,28.3,13.4,27.2z M13.4,22.9
			c-0.7-1.1-1.3-2.3-1.8-3.4c2.1-0.8,4.3-1.4,6.6-1.8c0.1,0,0.3,0,0.4,0c-0.1,0.2-0.3,0.3-0.4,0.5C16.4,19.5,14.9,21.1,13.4,22.9z
			 M14.9,25.3c-0.1-0.1-0.1-0.2-0.2-0.3c0.1-0.1,0.1-0.2,0.2-0.3c1.3-2,2.8-3.7,4.4-5.4c0.8-0.7,1.7-1.3,2.5-2
			c1.1-0.1,2.2-0.3,3.2-0.3c1.1,0,2.1,0.2,3.2,0.3c0.8,0.7,1.7,1.3,2.5,2c1.5,1.7,3,3.4,4.4,5.4c0.1,0.1,0.1,0.2,0.2,0.3
			c-0.1,0.1-0.1,0.2-0.2,0.3c-1.3,1.9-2.8,3.7-4.4,5.4c-0.7,0.7-1.5,1.4-2.3,2c-1.2,0.1-2.3,0.3-3.4,0.4c-1.1,0-2.3-0.2-3.4-0.4
			c-0.8-0.7-1.6-1.3-2.3-2C17.7,29.1,16.2,27.2,14.9,25.3z M31.9,31.9c1.6-1.5,3.1-3,4.7-4.8c0.7,1.1,1.3,2.3,1.8,3.4
			c-2.1,0.8-4.3,1.4-6.5,1.8c-0.1,0-0.3,0-0.4,0C31.6,32.3,31.8,32.1,31.9,31.9z M31.9,18.1c-0.1-0.2-0.3-0.3-0.4-0.5
			c0.1,0,0.3,0,0.4,0c2.2,0.4,4.4,1,6.6,1.8c-0.6,1.2-1.2,2.3-1.8,3.4C35.1,21.1,33.6,19.5,31.9,18.1z M24.7,14.9
			c0.1-0.1,0.2-0.1,0.3-0.2c0.1,0.1,0.2,0.1,0.3,0.2c0.1,0.1,0.2,0.2,0.3,0.3c-0.2,0-0.5,0-0.7,0c-0.2,0-0.4,0-0.7,0
			C24.5,15.1,24.6,15,24.7,14.9z M10.3,10.3c0,0.1,1.2-0.8,1.5-0.7c0.5,0.1,0.7-0.2,1.4,0c1.3,0.1,2.7,0.5,4.1,1
			c1.9,0.8,3.7,1.8,5.5,2.8c-0.7,0.6-1.4,1.2-2.1,1.9c-1,0-2-0.1-3.1,0c-2.4,0.2-4.9,0.7-7.4,1.4C9.5,14.1,9.2,11.5,10.3,10.3z
			 M4.2,25c0.1,0.1,0.2-1.4,0.6-1.6c0.4-0.3,0.4-0.6,1-1c0.8-0.7,1.8-1.3,2.9-1.8c0.9,1.6,1.9,3.1,2.9,4.5c-1.1,1.4-2.1,2.9-3,4.5
			C6.3,28.3,4.3,26.6,4.2,25z M17.4,39.5c-2.7,1.1-5.8,1.5-7,0.2c0.2,0-0.8-1.2-0.7-1.5c0.1-0.5-0.2-0.7,0-1.4
			c0.1-1.1,0.4-2.2,0.8-3.3c2.5,0.7,4.9,1.2,7.4,1.4c1.1,0.1,2.2,0.1,3.2,0.2c0.6,0.6,1.3,1.2,1.9,1.8
			C21.1,37.7,19.2,38.7,17.4,39.5z M25.3,35.1c-0.1,0.1-0.2,0.1-0.3,0.2c-0.1-0.1-0.2-0.1-0.3-0.2c-0.1-0.1-0.2-0.2-0.4-0.3
			c0.2,0,0.5,0,0.7,0c0.2,0,0.5,0,0.7,0C25.6,34.9,25.5,35,25.3,35.1z M40.4,38.1c0.1,0.4-0.9,1.5-0.7,1.5c-1.3,1.2-4.3,0.8-7-0.2
			c-1.9-0.8-3.7-1.8-5.5-2.8c0.7-0.6,1.3-1.2,1.9-1.8c1,0,2.1-0.1,3.2-0.2c2.5-0.2,4.9-0.7,7.4-1.4c0.4,1.1,0.7,2.3,0.8,3.3
			C40.6,37.4,40.3,37.6,40.4,38.1z M41.3,29.5c-0.9-1.6-1.9-3.1-3-4.5c1.1-1.4,2.1-2.9,2.9-4.5c1.1,0.6,2.1,1.1,2.9,1.8
			c0.6,0.4,0.6,0.7,1,1c0.3,0.2,0.4,1.7,0.6,1.6C45.7,26.6,43.7,28.3,41.3,29.5z"/>
		<linearGradient id="SVGID_8_" gradientUnits="userSpaceOnUse" x1="19.8233" y1="25.0078" x2="30.1912" y2="25.0078">
			<stop  offset="0" style="stop-color:#284775"/>
			<stop  offset="1" style="stop-color:#1B365E"/>
		</linearGradient>
		<path fill="url(#SVGID_8_)" d="M25,30.2c2.9,0,5.2-2.3,5.2-5.2c0-2.9-2.3-5.2-5.2-5.2c-2.9,0-5.2,2.3-5.2,5.2
			C19.8,27.9,22.1,30.2,25,30.2z"/>
	</g>
</g>
<g id="Layer_2" display="none">
	<g display="inline">
		<linearGradient id="SVGID_9_" gradientUnits="userSpaceOnUse" x1="3.1085" y1="29.2404" x2="46.8915" y2="29.2404">
			<stop  offset="0" style="stop-color:#284775"/>
			<stop  offset="1" style="stop-color:#1B365E"/>
		</linearGradient>
		<path fill="url(#SVGID_9_)" d="M43.6,13.9v-2.6h-5V8.9h-3.2c0,5.8-4.7,10.4-10.4,10.4c-5.8,0-10.4-4.7-10.4-10.4h-3.2v2.4H6.4v2.6
			H3.1l1.6,4v31.7h12.7v-1.5h1.8v-6.4h5.1v6.4h1.3v-6.4h5.1v6.4h1.8v1.5h12.7V17.9l1.6-4H43.6z M7.9,20.6h6.8v6.8H7.9V20.6z
			 M14.8,36.8H8V30h6.8V36.8z M16.9,20.6h6.8v6.8h-6.8V20.6z M23.7,36.8h-6.8V30h6.8V36.8z M26.3,20.6h6.8v6.8h-6.8V20.6z
			 M33.2,36.8h-6.8V30h6.8V36.8L33.2,36.8z M35.2,20.6H42v6.8h-6.8V20.6z M42.1,36.8h-6.8V30h6.8V36.8z"/>
		<linearGradient id="SVGID_10_" gradientUnits="userSpaceOnUse" x1="16.522" y1="8.9075" x2="33.4862" y2="8.9075">
			<stop  offset="0" style="stop-color:#284775"/>
			<stop  offset="1" style="stop-color:#1B365E"/>
		</linearGradient>
		<path fill="url(#SVGID_10_)" d="M25,17.4c4.7,0,8.5-3.8,8.5-8.5c0-4.7-3.8-8.5-8.5-8.5c-4.7,0-8.5,3.8-8.5,8.5
			C16.5,13.6,20.3,17.4,25,17.4z M18.8,6.5h3.8V2.7h4.7v3.8h3.8v4.7h-3.8v3.8h-4.7v-3.8h-3.8V6.5z"/>
	</g>
</g>
<g id="Layer_3" display="none">
	<g display="inline">
		<linearGradient id="SVGID_11_" gradientUnits="userSpaceOnUse" x1="23.3263" y1="24.9704" x2="26.6777" y2="24.9704">
			<stop  offset="0" style="stop-color:#284775"/>
			<stop  offset="1" style="stop-color:#1B365E"/>
		</linearGradient>
		<path fill="url(#SVGID_11_)" d="M26.7,24.8L25,24.6l-1.7,0.2c0.9,0.3,1.7,0.5,1.7,0.5S25.8,25.1,26.7,24.8z"/>
		<linearGradient id="SVGID_12_" gradientUnits="userSpaceOnUse" x1="23.6978" y1="8.4649" x2="26.3673" y2="8.4649">
			<stop  offset="0" style="stop-color:#284775"/>
			<stop  offset="1" style="stop-color:#1B365E"/>
		</linearGradient>
		<path fill="url(#SVGID_12_)" d="M25,8.2c0,0-0.5,0-1.3,0.1v0.5h2.7V8.3C25.5,8.1,25,8.2,25,8.2z"/>
		<linearGradient id="SVGID_13_" gradientUnits="userSpaceOnUse" x1="9.9528" y1="37.6089" x2="40.0472" y2="37.6089">
			<stop  offset="0" style="stop-color:#284775"/>
			<stop  offset="1" style="stop-color:#1B365E"/>
		</linearGradient>
		<path fill="url(#SVGID_13_)" d="M30.3,25.7L30.3,25.7c-0.2,1.2-1.1,5.2-5.3,8.6c-4.2-3.4-5.1-7.4-5.3-8.6h0
			c-5.4,0-9.7,4.4-9.7,9.8v4.3c0,5.4,4.4,9.8,9.7,9.8h10.7c5.4,0,9.7-4.4,9.7-9.8v-4.3C40,30.1,35.7,25.7,30.3,25.7z M35.2,41.2
			c0,0-1.7,2.6-6.6,2.6v-6.5c0,0,4,0,6.6-2.6V41.2z"/>
		<linearGradient id="SVGID_14_" gradientUnits="userSpaceOnUse" x1="14.0117" y1="13.2893" x2="35.9964" y2="13.2893">
			<stop  offset="0" style="stop-color:#284775"/>
			<stop  offset="1" style="stop-color:#1B365E"/>
		</linearGradient>
		<path fill="url(#SVGID_14_)" d="M36,16.1c0-1.8-0.4-4.9-1.1-6c-0.3-0.4-0.7-1-1.6-1.6l1-3.2c-3.9-4-8.3-4.9-8.7-4.9
			c-0.4,0-0.6,0-0.6,0s-0.3,0-0.6,0c-0.3,0-4.8,0.9-8.7,4.9l1,3.2c-0.8,0.6-1.3,1.1-1.6,1.6c-0.7,1.1-1.1,4.2-1.1,6
			c0,1.8-0.1,4,2.1,6.4c2.2,2.3,5.3,1.9,5.3,1.9c0.4,0.3,1.2,1,1.9,1.2c0.9,0.3,1.7,0.5,1.7,0.5s0.8-0.2,1.7-0.5
			c0.8-0.3,1.6-0.9,1.9-1.2c0,0,3.1,0.4,5.3-1.9C36.1,20.2,36,17.9,36,16.1z M23.7,2.2v1.8h-2.2v2.7h2.2v1.7c-1.2,0.2-3,0.7-5,2.1
			l-1.4-4.5C19.6,3.6,22.4,2.6,23.7,2.2z M24.9,23.9c-5,0-7.1-8.8-7.1-8.8s2.5,0.6,4.8,0c2.4-0.6,4.4-2.9,4.4-2.9
			c0.9,2.6,4.5,2.8,5.2,2.8l0.1,0C32.3,15,29.8,23.9,24.9,23.9z M31.3,10.3c-2-1.3-3.8-1.8-5-2V6.6h2.2V3.9h-2.2V2.2
			c1.4,0.4,4.1,1.4,6.4,3.6L31.3,10.3z"/>
	</g>
</g>
</svg>
