<?xml version="1.0" encoding="utf-8"?>
<!-- Generator: Adobe Illustrator 18.1.0, SVG Export Plug-In . SVG Version: 6.00 Build 0)  -->
<svg version="1.1" id="Layer_1" xmlns="http://www.w3.org/2000/svg" xmlns:xlink="http://www.w3.org/1999/xlink" x="0px" y="0px"
	 viewBox="0 0 1000 348" enable-background="new 0 0 1000 348" xml:space="preserve">
<g>
	<path fill="#BE1E2D" d="M434.7,317.8c-6.5,0-11.6-1.8-15.1-5.5c-3.5-3.7-5.3-8.9-5.3-15.8v-50.7h-10c-0.9,0-1.6-0.3-2.2-0.8
		c-0.6-0.5-0.9-1.3-0.9-2.4v-5.8l13.6-1.7l3.4-25.6c0.2-0.8,0.5-1.5,1.1-2c0.6-0.5,1.3-0.8,2.2-0.8h7.4v28.5h24v10.5h-24v49.7
		c0,3.5,0.8,6.1,2.5,7.8c1.7,1.7,3.9,2.5,6.5,2.5c1.5,0,2.8-0.2,4-0.6c1.1-0.4,2.1-0.9,2.9-1.3c0.8-0.5,1.5-0.9,2.1-1.3
		s1.1-0.6,1.5-0.6c0.8,0,1.4,0.5,2,1.4l4.3,6.9c-2.5,2.3-5.5,4.2-9.1,5.5C442.1,317.2,438.4,317.8,434.7,317.8z"/>
	<path fill="#BE1E2D" d="M505.6,232.4c6,0,11.5,1,16.3,3c4.8,2,9,4.9,12.4,8.6c3.4,3.7,6.1,8.2,7.9,13.4c1.8,5.3,2.7,11.1,2.7,17.6
		c0,6.5-0.9,12.4-2.7,17.7s-4.5,9.7-7.9,13.4c-3.4,3.7-7.6,6.6-12.4,8.5c-4.9,2-10.3,3-16.3,3c-6.1,0-11.6-1-16.5-3
		c-4.9-2-9-4.8-12.5-8.5c-3.4-3.7-6.1-8.2-7.9-13.4c-1.8-5.2-2.7-11.1-2.7-17.7c0-6.5,0.9-12.4,2.7-17.6c1.8-5.3,4.5-9.7,7.9-13.4
		c3.4-3.7,7.6-6.6,12.5-8.6C494,233.4,499.5,232.4,505.6,232.4z M505.6,306.3c8.2,0,14.3-2.7,18.3-8.2c4-5.5,6-13.1,6-22.9
		c0-9.9-2-17.5-6-23.1c-4-5.5-10.1-8.3-18.3-8.3c-4.1,0-7.8,0.7-10.8,2.1c-3.1,1.4-5.6,3.5-7.7,6.1c-2,2.7-3.6,6-4.6,9.9
		c-1,3.9-1.5,8.3-1.5,13.2c0,9.8,2,17.5,6.1,22.9C491.2,303.6,497.3,306.3,505.6,306.3z"/>
	<path fill="#BE1E2D" d="M580.6,246.6c3.5-4.3,7.5-7.8,12.1-10.4c4.6-2.6,9.8-3.9,15.7-3.9c4.8,0,9.1,0.9,13,2.7
		c3.9,1.8,7.2,4.5,9.9,8.1c2.7,3.6,4.8,8,6.3,13.3c1.5,5.3,2.2,11.4,2.2,18.2c0,6.1-0.8,11.8-2.5,17c-1.6,5.3-4,9.8-7.1,13.7
		s-6.8,6.9-11.3,9.1c-4.4,2.2-9.4,3.3-15,3.3c-5.1,0-9.4-0.9-13-2.6c-3.6-1.7-6.8-4.1-9.6-7.2v36.6h-14.6V233.7h8.7
		c2.1,0,3.4,1,3.8,3L580.6,246.6z M581.3,296.6c2.7,3.6,5.6,6.1,8.7,7.6c3.2,1.5,6.7,2.2,10.6,2.2c7.7,0,13.7-2.8,17.8-8.3
		c4.1-5.5,6.2-13.4,6.2-23.5c0-5.4-0.5-10-1.4-13.9c-1-3.9-2.3-7-4.1-9.5c-1.8-2.5-4-4.3-6.6-5.4s-5.6-1.7-8.9-1.7
		c-4.7,0-8.9,1.1-12.5,3.3c-3.6,2.2-6.9,5.3-9.9,9.2V296.6z"/>
	<path fill="#F15A29" d="M661.6,316.5v-82.8h8.7c2.1,0,3.4,1,3.8,3l1.1,8.5c3.1-3.8,6.5-6.8,10.3-9.2c3.8-2.4,8.2-3.6,13.2-3.6
		c5.6,0,10.1,1.6,13.5,4.7c3.5,3.1,6,7.3,7.5,12.6c1.2-3,2.7-5.6,4.6-7.8c1.9-2.2,4-4,6.3-5.4c2.3-1.4,4.8-2.5,7.5-3.1s5.3-1,8.1-1
		c4.4,0,8.2,0.7,11.6,2.1c3.4,1.4,6.3,3.4,8.7,6.1c2.4,2.7,4.2,6,5.4,9.9c1.3,3.9,1.9,8.4,1.9,13.4v52.7h-14.6v-52.7
		c0-6.5-1.4-11.4-4.3-14.8c-2.8-3.4-6.9-5-12.3-5c-2.4,0-4.7,0.4-6.8,1.3c-2.2,0.8-4,2.1-5.7,3.7c-1.6,1.6-2.9,3.7-3.9,6.2
		c-1,2.5-1.4,5.4-1.4,8.6v52.7h-14.6v-52.7c0-6.6-1.3-11.6-4-14.9c-2.7-3.3-6.6-4.9-11.7-4.9c-3.6,0-6.9,1-10,2.9
		c-3.1,1.9-5.9,4.6-8.4,7.9v61.7H661.6z"/>
	<path fill="#F15A29" d="M866.5,304.9c-1.8,2.2-4,4.1-6.5,5.7c-2.5,1.6-5.2,2.9-8.1,4c-2.9,1-5.8,1.8-8.9,2.3
		c-3.1,0.5-6.1,0.8-9.1,0.8c-5.7,0-11-1-15.8-2.9c-4.8-1.9-9-4.8-12.5-8.5c-3.5-3.7-6.3-8.4-8.2-13.9c-2-5.5-2.9-11.8-2.9-19
		c0-5.8,0.9-11.2,2.7-16.2c1.8-5,4.3-9.4,7.6-13c3.3-3.7,7.4-6.6,12.2-8.7c4.8-2.1,10.2-3.1,16.2-3.1c5,0,9.6,0.8,13.8,2.5
		c4.2,1.7,7.9,4.1,11,7.2c3.1,3.1,5.5,7,7.2,11.6c1.7,4.6,2.6,9.9,2.6,15.7c0,2.3-0.2,3.8-0.7,4.6c-0.5,0.8-1.4,1.1-2.8,1.1H809
		c0.2,5.2,0.9,9.8,2.2,13.7c1.3,3.9,3.1,7.1,5.4,9.7c2.3,2.6,5,4.5,8.2,5.8c3.2,1.3,6.7,1.9,10.6,1.9c3.7,0,6.8-0.4,9.4-1.3
		c2.6-0.8,4.9-1.8,6.8-2.7c1.9-1,3.5-1.9,4.8-2.7c1.3-0.8,2.4-1.3,3.3-1.3c1.2,0,2.1,0.5,2.8,1.4L866.5,304.9z M854.8,266.1
		c0-3.4-0.5-6.5-1.4-9.3c-1-2.8-2.3-5.2-4.2-7.3c-1.8-2-4-3.6-6.7-4.7c-2.6-1.1-5.6-1.7-8.9-1.7c-7,0-12.5,2-16.6,6.1
		c-4.1,4.1-6.6,9.7-7.6,16.9H854.8z"/>
	<path fill="#F15A29" d="M957.4,196.1v120.4h-8.7c-2.1,0-3.4-1-3.9-3l-1.3-10.1c-3.5,4.3-7.6,7.7-12.1,10.3
		c-4.5,2.6-9.8,3.9-15.7,3.9c-4.7,0-9-0.9-12.9-2.7c-3.9-1.8-7.2-4.5-9.9-8.1c-2.7-3.5-4.8-8-6.3-13.2c-1.5-5.3-2.2-11.4-2.2-18.2
		c0-6.1,0.8-11.8,2.5-17c1.6-5.3,4-9.8,7-13.7c3.1-3.9,6.8-6.9,11.2-9.1c4.4-2.2,9.4-3.3,15-3.3c5.1,0,9.4,0.9,13,2.6
		c3.6,1.7,6.9,4.1,9.7,7.2v-45.9H957.4z M942.9,253.4c-2.7-3.7-5.7-6.2-8.8-7.6c-3.2-1.4-6.7-2.2-10.6-2.2c-7.7,0-13.6,2.8-17.7,8.3
		c-4.1,5.5-6.2,13.4-6.2,23.5c0,5.4,0.5,10,1.4,13.9s2.3,7,4.1,9.5c1.8,2.5,4,4.3,6.6,5.4c2.6,1.1,5.6,1.7,8.9,1.7
		c4.8,0,9-1.1,12.5-3.3c3.6-2.2,6.9-5.3,9.9-9.2V253.4z"/>
</g>
<g>
	<path fill="#414042" d="M476.5,190.8c-0.1,0.2-0.3,0.4-0.4,0.5c-0.1,0.1-0.3,0.1-0.5,0.1c-0.2,0-0.5-0.1-0.8-0.3
		c-0.3-0.2-0.7-0.5-1.1-0.8c-0.5-0.3-1-0.5-1.7-0.8c-0.6-0.2-1.4-0.3-2.4-0.3c-0.9,0-1.6,0.1-2.3,0.3c-0.7,0.2-1.2,0.6-1.7,1
		s-0.8,0.9-1,1.4c-0.2,0.5-0.3,1.1-0.3,1.8c0,0.8,0.2,1.5,0.6,2c0.4,0.5,0.9,1,1.6,1.4c0.6,0.4,1.4,0.7,2.2,1
		c0.8,0.3,1.7,0.6,2.5,0.9c0.9,0.3,1.7,0.6,2.5,1c0.8,0.4,1.6,0.8,2.2,1.4c0.6,0.6,1.2,1.2,1.6,2.1c0.4,0.8,0.6,1.8,0.6,3
		c0,1.3-0.2,2.4-0.6,3.5s-1,2.1-1.9,2.9c-0.8,0.8-1.8,1.5-3,1.9c-1.2,0.5-2.6,0.7-4.1,0.7c-1.9,0-3.6-0.3-5.1-1s-2.8-1.6-3.9-2.7
		l1.1-1.8c0.1-0.1,0.2-0.3,0.4-0.4c0.2-0.1,0.3-0.1,0.5-0.1c0.2,0,0.4,0.1,0.6,0.2c0.2,0.1,0.5,0.3,0.8,0.5c0.3,0.2,0.6,0.4,1,0.7
		c0.4,0.3,0.8,0.5,1.2,0.7c0.5,0.2,1,0.4,1.6,0.5c0.6,0.1,1.2,0.2,2,0.2c0.9,0,1.7-0.1,2.5-0.4c0.7-0.3,1.3-0.6,1.8-1.1
		s0.9-1,1.1-1.6s0.4-1.4,0.4-2.1c0-0.9-0.2-1.6-0.6-2.1c-0.4-0.6-0.9-1-1.5-1.4c-0.6-0.4-1.4-0.7-2.2-0.9c-0.8-0.3-1.7-0.5-2.5-0.8
		c-0.9-0.3-1.7-0.6-2.5-0.9c-0.8-0.4-1.6-0.8-2.2-1.4c-0.6-0.6-1.2-1.3-1.6-2.2c-0.4-0.9-0.6-1.9-0.6-3.2c0-1,0.2-2,0.6-2.9
		c0.4-0.9,1-1.8,1.7-2.5c0.8-0.7,1.7-1.3,2.8-1.8s2.4-0.7,3.8-0.7c1.6,0,3.1,0.3,4.4,0.8c1.3,0.5,2.5,1.2,3.5,2.2L476.5,190.8z"/>
	<path fill="#414042" d="M489.2,188.4c0,0.3-0.1,0.7-0.2,1c-0.1,0.3-0.3,0.6-0.6,0.8c-0.2,0.2-0.5,0.4-0.8,0.6
		c-0.3,0.1-0.6,0.2-1,0.2s-0.7-0.1-1-0.2s-0.6-0.3-0.8-0.6c-0.2-0.2-0.4-0.5-0.5-0.8c-0.1-0.3-0.2-0.6-0.2-1c0-0.3,0.1-0.7,0.2-1
		s0.3-0.6,0.5-0.8c0.2-0.2,0.5-0.4,0.8-0.5s0.6-0.2,1-0.2s0.7,0.1,1,0.2c0.3,0.1,0.6,0.3,0.8,0.5c0.2,0.2,0.4,0.5,0.6,0.8
		C489.2,187.7,489.2,188,489.2,188.4z M488.5,194.8V215h-3.6v-20.3H488.5z"/>
	<path fill="#414042" d="M496.5,215v-20.3h2.1c0.5,0,0.8,0.2,0.9,0.7l0.3,2.1c0.7-0.9,1.6-1.7,2.5-2.3c0.9-0.6,2-0.9,3.2-0.9
		c1.4,0,2.5,0.4,3.3,1.1c0.8,0.8,1.5,1.8,1.8,3.1c0.3-0.7,0.7-1.4,1.1-1.9c0.5-0.5,1-1,1.5-1.3c0.6-0.3,1.2-0.6,1.8-0.8
		c0.6-0.2,1.3-0.2,2-0.2c1.1,0,2,0.2,2.8,0.5c0.8,0.3,1.5,0.8,2.1,1.5c0.6,0.7,1,1.5,1.3,2.4s0.5,2,0.5,3.3V215h-3.6v-12.9
		c0-1.6-0.3-2.8-1-3.6c-0.7-0.8-1.7-1.2-3-1.2c-0.6,0-1.1,0.1-1.7,0.3c-0.5,0.2-1,0.5-1.4,0.9c-0.4,0.4-0.7,0.9-1,1.5
		c-0.2,0.6-0.3,1.3-0.3,2.1V215h-3.6v-12.9c0-1.6-0.3-2.8-1-3.6c-0.7-0.8-1.6-1.2-2.9-1.2c-0.9,0-1.7,0.2-2.4,0.7
		c-0.7,0.5-1.4,1.1-2.1,1.9V215H496.5z"/>
	<path fill="#414042" d="M534.9,197.9c0.9-1.1,1.8-1.9,3-2.5c1.1-0.6,2.4-1,3.8-1c1.2,0,2.2,0.2,3.2,0.7c0.9,0.4,1.8,1.1,2.4,2
		c0.7,0.9,1.2,2,1.5,3.3c0.4,1.3,0.5,2.8,0.5,4.5c0,1.5-0.2,2.9-0.6,4.2c-0.4,1.3-1,2.4-1.7,3.3c-0.8,0.9-1.7,1.7-2.8,2.2
		c-1.1,0.5-2.3,0.8-3.7,0.8c-1.2,0-2.3-0.2-3.2-0.6s-1.7-1-2.3-1.8v9h-3.6v-27.1h2.1c0.5,0,0.8,0.2,0.9,0.7L534.9,197.9z
		 M535.1,210.1c0.7,0.9,1.4,1.5,2.1,1.9s1.6,0.5,2.6,0.5c1.9,0,3.3-0.7,4.4-2c1-1.3,1.5-3.3,1.5-5.8c0-1.3-0.1-2.5-0.3-3.4
		c-0.2-0.9-0.6-1.7-1-2.3c-0.4-0.6-1-1-1.6-1.3c-0.6-0.3-1.4-0.4-2.2-0.4c-1.2,0-2.2,0.3-3.1,0.8c-0.9,0.5-1.7,1.3-2.4,2.3V210.1z"
		/>
	<path fill="#414042" d="M559.8,185.5V215h-3.6v-29.5H559.8z"/>
	<path fill="#414042" d="M584.1,212.2c-0.4,0.5-1,1-1.6,1.4c-0.6,0.4-1.3,0.7-2,1c-0.7,0.3-1.4,0.4-2.2,0.6
		c-0.7,0.1-1.5,0.2-2.2,0.2c-1.4,0-2.7-0.2-3.9-0.7c-1.2-0.5-2.2-1.2-3.1-2.1c-0.9-0.9-1.5-2-2-3.4c-0.5-1.3-0.7-2.9-0.7-4.6
		c0-1.4,0.2-2.7,0.6-4c0.4-1.2,1.1-2.3,1.9-3.2s1.8-1.6,3-2.1c1.2-0.5,2.5-0.8,4-0.8c1.2,0,2.3,0.2,3.4,0.6c1,0.4,1.9,1,2.7,1.8
		s1.3,1.7,1.8,2.8c0.4,1.1,0.6,2.4,0.6,3.9c0,0.6-0.1,0.9-0.2,1.1c-0.1,0.2-0.3,0.3-0.7,0.3h-13.5c0,1.3,0.2,2.4,0.5,3.3
		s0.8,1.7,1.3,2.4c0.6,0.6,1.2,1.1,2,1.4c0.8,0.3,1.6,0.5,2.6,0.5c0.9,0,1.7-0.1,2.3-0.3c0.6-0.2,1.2-0.4,1.7-0.7s0.9-0.5,1.2-0.7
		c0.3-0.2,0.6-0.3,0.8-0.3c0.3,0,0.5,0.1,0.7,0.3L584.1,212.2z M581.3,202.7c0-0.8-0.1-1.6-0.3-2.3c-0.2-0.7-0.6-1.3-1-1.8
		c-0.4-0.5-1-0.9-1.6-1.2s-1.4-0.4-2.2-0.4c-1.7,0-3.1,0.5-4,1.5c-1,1-1.6,2.4-1.9,4.1H581.3z"/>
	<path fill="#414042" d="M590.4,212.8c0-0.3,0.1-0.7,0.2-1c0.1-0.3,0.3-0.6,0.5-0.8c0.2-0.2,0.5-0.4,0.8-0.5s0.6-0.2,1-0.2
		s0.7,0.1,1,0.2s0.6,0.3,0.8,0.5c0.2,0.2,0.4,0.5,0.5,0.8c0.1,0.3,0.2,0.6,0.2,1c0,0.4-0.1,0.7-0.2,1c-0.1,0.3-0.3,0.6-0.5,0.8
		c-0.2,0.2-0.5,0.4-0.8,0.5s-0.6,0.2-1,0.2s-0.7-0.1-1-0.2s-0.6-0.3-0.8-0.5c-0.2-0.2-0.4-0.5-0.5-0.8
		C590.4,213.5,590.4,213.2,590.4,212.8z"/>
	<path fill="#414042" d="M637,215h-3.4c-0.7,0-1.2-0.3-1.6-0.8l-7.4-10.2c-0.2-0.3-0.5-0.5-0.7-0.7s-0.7-0.2-1.2-0.2h-2.9v12h-3.9
		v-28.7h8.1c1.8,0,3.4,0.2,4.7,0.6s2.4,0.9,3.3,1.6c0.9,0.7,1.5,1.5,1.9,2.5c0.4,1,0.6,2.1,0.6,3.3c0,1-0.2,2-0.5,2.8
		c-0.3,0.9-0.8,1.7-1.4,2.4c-0.6,0.7-1.3,1.3-2.2,1.8c-0.9,0.5-1.9,0.9-3,1.1c0.5,0.3,0.9,0.7,1.3,1.2L637,215z M623.8,200.2
		c1.1,0,2.1-0.1,3-0.4c0.9-0.3,1.6-0.7,2.2-1.2c0.6-0.5,1-1.1,1.3-1.8c0.3-0.7,0.4-1.5,0.4-2.3c0-1.7-0.6-3-1.7-3.9s-2.8-1.3-5-1.3
		h-4.2v10.8H623.8z"/>
	<path fill="#414042" d="M657.3,212.2c-0.4,0.5-1,1-1.6,1.4c-0.6,0.4-1.3,0.7-2,1c-0.7,0.3-1.4,0.4-2.2,0.6
		c-0.7,0.1-1.5,0.2-2.2,0.2c-1.4,0-2.7-0.2-3.9-0.7c-1.2-0.5-2.2-1.2-3.1-2.1c-0.9-0.9-1.5-2-2-3.4c-0.5-1.3-0.7-2.9-0.7-4.6
		c0-1.4,0.2-2.7,0.6-4c0.4-1.2,1.1-2.3,1.9-3.2s1.8-1.6,3-2.1c1.2-0.5,2.5-0.8,4-0.8c1.2,0,2.3,0.2,3.4,0.6c1,0.4,1.9,1,2.7,1.8
		s1.3,1.7,1.8,2.8c0.4,1.1,0.6,2.4,0.6,3.9c0,0.6-0.1,0.9-0.2,1.1c-0.1,0.2-0.3,0.3-0.7,0.3h-13.5c0,1.3,0.2,2.4,0.5,3.3
		s0.8,1.7,1.3,2.4c0.6,0.6,1.2,1.1,2,1.4c0.8,0.3,1.6,0.5,2.6,0.5c0.9,0,1.7-0.1,2.3-0.3c0.6-0.2,1.2-0.4,1.7-0.7s0.9-0.5,1.2-0.7
		c0.3-0.2,0.6-0.3,0.8-0.3c0.3,0,0.5,0.1,0.7,0.3L657.3,212.2z M654.5,202.7c0-0.8-0.1-1.6-0.3-2.3c-0.2-0.7-0.6-1.3-1-1.8
		c-0.4-0.5-1-0.9-1.6-1.2s-1.4-0.4-2.2-0.4c-1.7,0-3.1,0.5-4,1.5c-1,1-1.6,2.4-1.9,4.1H654.5z"/>
	<path fill="#414042" d="M667.9,185.5V215h-3.6v-29.5H667.9z"/>
	<path fill="#414042" d="M680.3,188.4c0,0.3-0.1,0.7-0.2,1c-0.1,0.3-0.3,0.6-0.6,0.8c-0.2,0.2-0.5,0.4-0.8,0.6s-0.6,0.2-1,0.2
		s-0.7-0.1-1-0.2s-0.6-0.3-0.8-0.6c-0.2-0.2-0.4-0.5-0.5-0.8c-0.1-0.3-0.2-0.6-0.2-1c0-0.3,0.1-0.7,0.2-1c0.1-0.3,0.3-0.6,0.5-0.8
		c0.2-0.2,0.5-0.4,0.8-0.5s0.6-0.2,1-0.2s0.7,0.1,1,0.2s0.6,0.3,0.8,0.5c0.2,0.2,0.4,0.5,0.6,0.8S680.3,188,680.3,188.4z
		 M679.5,194.8V215H676v-20.3H679.5z"/>
	<path fill="#414042" d="M687,197.6c1.1-1.1,2.3-1.9,3.6-2.4s2.7-0.8,4.3-0.8c1.1,0,2.1,0.2,3,0.6c0.9,0.4,1.6,0.9,2.2,1.6
		c0.6,0.7,1.1,1.5,1.4,2.4c0.3,0.9,0.5,2,0.5,3.1v13h-1.6c-0.3,0-0.6-0.1-0.8-0.2c-0.2-0.1-0.3-0.3-0.4-0.7l-0.4-1.9
		c-0.5,0.5-1.1,0.9-1.6,1.3c-0.5,0.4-1,0.7-1.6,1c-0.6,0.3-1.2,0.5-1.8,0.6c-0.6,0.1-1.3,0.2-2.1,0.2c-0.8,0-1.5-0.1-2.2-0.3
		c-0.7-0.2-1.3-0.6-1.8-1c-0.5-0.4-0.9-1-1.2-1.7s-0.5-1.5-0.5-2.4c0-0.8,0.2-1.6,0.7-2.3c0.4-0.7,1.2-1.4,2.1-2
		c1-0.6,2.3-1,3.9-1.4s3.5-0.6,5.8-0.6V202c0-1.6-0.3-2.8-1-3.6c-0.7-0.8-1.7-1.2-3-1.2c-0.9,0-1.6,0.1-2.2,0.3
		c-0.6,0.2-1.1,0.5-1.5,0.7s-0.8,0.5-1.1,0.7c-0.3,0.2-0.6,0.3-0.9,0.3c-0.2,0-0.4-0.1-0.6-0.2c-0.2-0.1-0.3-0.3-0.4-0.5L687,197.6z
		 M698.5,205.9c-1.6,0.1-3,0.2-4.2,0.4c-1.2,0.2-2.1,0.5-2.8,0.8c-0.7,0.3-1.3,0.7-1.6,1.2c-0.3,0.5-0.5,1-0.5,1.5
		c0,0.5,0.1,1,0.3,1.4c0.2,0.4,0.4,0.7,0.7,0.9c0.3,0.2,0.7,0.4,1.1,0.5c0.4,0.1,0.8,0.2,1.3,0.2c0.6,0,1.2-0.1,1.7-0.2
		c0.5-0.1,1-0.3,1.5-0.5c0.5-0.2,0.9-0.5,1.3-0.9c0.4-0.3,0.8-0.7,1.2-1.1V205.9z"/>
	<path fill="#414042" d="M713.2,197.7c0.9-1,1.8-1.8,2.9-2.4c1.1-0.6,2.3-0.9,3.7-0.9c1.2,0,2.3,0.2,3.2,0.7s1.8,1.1,2.4,2
		c0.7,0.9,1.2,1.9,1.5,3.1s0.5,2.6,0.5,4.1c0,1.6-0.2,3.1-0.6,4.5c-0.4,1.3-1,2.5-1.7,3.5c-0.8,1-1.7,1.7-2.8,2.2
		c-1.1,0.5-2.3,0.8-3.6,0.8c-1.3,0-2.5-0.3-3.4-0.8c-0.9-0.5-1.7-1.2-2.4-2.1l-0.2,1.8c-0.1,0.5-0.4,0.8-0.9,0.8h-2.3v-29.5h3.6
		V197.7z M713.2,210.1c0.7,0.9,1.4,1.5,2.1,1.9s1.6,0.5,2.6,0.5c1.9,0,3.4-0.7,4.4-2c1-1.3,1.5-3.4,1.5-6c0-2.5-0.4-4.3-1.3-5.5
		c-0.9-1.2-2.2-1.8-3.8-1.8c-1.2,0-2.2,0.3-3,0.8s-1.7,1.3-2.4,2.3V210.1z"/>
	<path fill="#414042" d="M737.8,185.5V215h-3.6v-29.5H737.8z"/>
	<path fill="#414042" d="M763.2,194.8L751.9,221c-0.1,0.3-0.3,0.5-0.5,0.6c-0.2,0.2-0.5,0.2-0.8,0.2H748l3.7-8l-8.4-19.1h3.1
		c0.3,0,0.5,0.1,0.7,0.2c0.2,0.2,0.3,0.3,0.4,0.5l5.4,12.8c0.2,0.6,0.4,1.1,0.5,1.8c0.2-0.6,0.4-1.2,0.6-1.8l5.3-12.7
		c0.1-0.2,0.2-0.4,0.4-0.5c0.2-0.1,0.4-0.2,0.7-0.2H763.2z"/>
	<path fill="#414042" d="M766.5,212.8c0-0.3,0.1-0.7,0.2-1c0.1-0.3,0.3-0.6,0.5-0.8c0.2-0.2,0.5-0.4,0.8-0.5s0.6-0.2,1-0.2
		s0.7,0.1,1,0.2s0.6,0.3,0.8,0.5c0.2,0.2,0.4,0.5,0.5,0.8c0.1,0.3,0.2,0.6,0.2,1c0,0.4-0.1,0.7-0.2,1c-0.1,0.3-0.3,0.6-0.5,0.8
		c-0.2,0.2-0.5,0.4-0.8,0.5s-0.6,0.2-1,0.2s-0.7-0.1-1-0.2s-0.6-0.3-0.8-0.5c-0.2-0.2-0.4-0.5-0.5-0.8
		C766.6,213.5,766.5,213.2,766.5,212.8z"/>
	<path fill="#414042" d="M818.4,200.7c0,2.1-0.3,4.1-1,5.9c-0.7,1.8-1.6,3.3-2.9,4.6s-2.7,2.3-4.5,3c-1.7,0.7-3.7,1.1-5.8,1.1
		s-4-0.4-5.8-1.1c-1.7-0.7-3.2-1.7-4.5-3c-1.2-1.3-2.2-2.8-2.9-4.6c-0.7-1.8-1-3.8-1-5.9c0-2.1,0.3-4.1,1-5.9
		c0.7-1.8,1.6-3.3,2.9-4.6c1.2-1.3,2.7-2.3,4.5-3c1.7-0.7,3.7-1.1,5.8-1.1s4,0.4,5.8,1.1c1.7,0.7,3.2,1.7,4.5,3
		c1.2,1.3,2.2,2.8,2.9,4.6C818.1,196.6,818.4,198.5,818.4,200.7z M814.5,200.7c0-1.8-0.2-3.3-0.7-4.7c-0.5-1.4-1.2-2.6-2-3.5
		c-0.9-1-1.9-1.7-3.2-2.2c-1.3-0.5-2.7-0.8-4.2-0.8c-1.5,0-2.9,0.3-4.2,0.8c-1.3,0.5-2.3,1.3-3.2,2.2c-0.9,1-1.6,2.1-2.1,3.5
		c-0.5,1.4-0.7,3-0.7,4.7c0,1.8,0.2,3.3,0.7,4.7c0.5,1.4,1.2,2.6,2.1,3.5c0.9,1,2,1.7,3.2,2.2c1.3,0.5,2.6,0.8,4.2,0.8
		c1.5,0,2.9-0.3,4.2-0.8c1.3-0.5,2.3-1.3,3.2-2.2c0.9-1,1.6-2.1,2-3.5C814.2,204,814.5,202.4,814.5,200.7z"/>
	<path fill="#414042" d="M828.3,197.7c0.4-0.5,0.9-0.9,1.4-1.3c0.5-0.4,1-0.7,1.6-1c0.6-0.3,1.1-0.5,1.8-0.7c0.6-0.2,1.3-0.2,2-0.2
		c1.1,0,2.1,0.2,2.9,0.6s1.6,0.9,2.1,1.6c0.6,0.7,1,1.5,1.3,2.4c0.3,0.9,0.4,2,0.4,3.1V215h-3.6v-12.9c0-1.5-0.4-2.7-1-3.6
		c-0.7-0.8-1.8-1.3-3.2-1.3c-1.1,0-2,0.3-3,0.8c-0.9,0.5-1.8,1.2-2.5,2.1V215h-3.6v-20.3h2.1c0.5,0,0.8,0.2,0.9,0.7L828.3,197.7z"/>
	<path fill="#414042" d="M853.1,185.5V215h-3.6v-29.5H853.1z"/>
	<path fill="#414042" d="M865.5,188.4c0,0.3-0.1,0.7-0.2,1c-0.1,0.3-0.3,0.6-0.6,0.8c-0.2,0.2-0.5,0.4-0.8,0.6s-0.6,0.2-1,0.2
		s-0.7-0.1-1-0.2s-0.6-0.3-0.8-0.6c-0.2-0.2-0.4-0.5-0.5-0.8c-0.1-0.3-0.2-0.6-0.2-1c0-0.3,0.1-0.7,0.2-1c0.1-0.3,0.3-0.6,0.5-0.8
		c0.2-0.2,0.5-0.4,0.8-0.5s0.6-0.2,1-0.2s0.7,0.1,1,0.2s0.6,0.3,0.8,0.5c0.2,0.2,0.4,0.5,0.6,0.8S865.5,188,865.5,188.4z
		 M864.7,194.8V215h-3.6v-20.3H864.7z"/>
	<path fill="#414042" d="M876.1,197.7c0.4-0.5,0.9-0.9,1.4-1.3c0.5-0.4,1-0.7,1.6-1c0.6-0.3,1.1-0.5,1.8-0.7c0.6-0.2,1.3-0.2,2-0.2
		c1.1,0,2.1,0.2,2.9,0.6s1.6,0.9,2.1,1.6c0.6,0.7,1,1.5,1.3,2.4c0.3,0.9,0.4,2,0.4,3.1V215H886v-12.9c0-1.5-0.4-2.7-1-3.6
		c-0.7-0.8-1.8-1.3-3.2-1.3c-1.1,0-2,0.3-3,0.8c-0.9,0.5-1.8,1.2-2.5,2.1V215h-3.6v-20.3h2.1c0.5,0,0.8,0.2,0.9,0.7L876.1,197.7z"/>
	<path fill="#414042" d="M913.7,212.2c-0.4,0.5-1,1-1.6,1.4c-0.6,0.4-1.3,0.7-2,1c-0.7,0.3-1.4,0.4-2.2,0.6
		c-0.7,0.1-1.5,0.2-2.2,0.2c-1.4,0-2.7-0.2-3.9-0.7c-1.2-0.5-2.2-1.2-3.1-2.1c-0.9-0.9-1.5-2-2-3.4c-0.5-1.3-0.7-2.9-0.7-4.6
		c0-1.4,0.2-2.7,0.6-4c0.4-1.2,1.1-2.3,1.9-3.2s1.8-1.6,3-2.1c1.2-0.5,2.5-0.8,4-0.8c1.2,0,2.3,0.2,3.4,0.6c1,0.4,1.9,1,2.7,1.8
		s1.3,1.7,1.8,2.8c0.4,1.1,0.6,2.4,0.6,3.9c0,0.6-0.1,0.9-0.2,1.1c-0.1,0.2-0.3,0.3-0.7,0.3h-13.5c0,1.3,0.2,2.4,0.5,3.3
		s0.8,1.7,1.3,2.4c0.6,0.6,1.2,1.1,2,1.4c0.8,0.3,1.6,0.5,2.6,0.5c0.9,0,1.7-0.1,2.3-0.3c0.6-0.2,1.2-0.4,1.7-0.7s0.9-0.5,1.2-0.7
		c0.3-0.2,0.6-0.3,0.8-0.3c0.3,0,0.5,0.1,0.7,0.3L913.7,212.2z M910.8,202.7c0-0.8-0.1-1.6-0.3-2.3c-0.2-0.7-0.6-1.3-1-1.8
		c-0.4-0.5-1-0.9-1.6-1.2s-1.4-0.4-2.2-0.4c-1.7,0-3.1,0.5-4,1.5c-1,1-1.6,2.4-1.9,4.1H910.8z"/>
	<path fill="#414042" d="M919.9,212.8c0-0.3,0.1-0.7,0.2-1c0.1-0.3,0.3-0.6,0.5-0.8c0.2-0.2,0.5-0.4,0.8-0.5s0.6-0.2,1-0.2
		s0.7,0.1,1,0.2s0.6,0.3,0.8,0.5c0.2,0.2,0.4,0.5,0.5,0.8c0.1,0.3,0.2,0.6,0.2,1c0,0.4-0.1,0.7-0.2,1c-0.1,0.3-0.3,0.6-0.5,0.8
		c-0.2,0.2-0.5,0.4-0.8,0.5s-0.6,0.2-1,0.2s-0.7-0.1-1-0.2s-0.6-0.3-0.8-0.5c-0.2-0.2-0.4-0.5-0.5-0.8
		C920,213.5,919.9,213.2,919.9,212.8z"/>
</g>
<g>
	<linearGradient id="SVGID_1_" gradientUnits="userSpaceOnUse" x1="138.1628" y1="52.3241" x2="138.1628" y2="174.1424">
		<stop  offset="0" style="stop-color:#790410"/>
		<stop  offset="1" style="stop-color:#BE1E2D"/>
	</linearGradient>
	<polygon fill="url(#SVGID_1_)" points="168.4,6.1 107.9,29.2 107.9,339.8 168.4,316.7 	"/>
	<linearGradient id="SVGID_2_" gradientUnits="userSpaceOnUse" x1="189.7797" y1="153.0428" x2="228.7561" y2="248.0479">
		<stop  offset="0" style="stop-color:#F15A29"/>
		<stop  offset="1" style="stop-color:#C74A20"/>
	</linearGradient>
	<polygon fill="url(#SVGID_2_)" points="168.4,6.1 107.9,29.2 212.1,302.3 272.6,279.2 	"/>
	<linearGradient id="SVGID_3_" gradientUnits="userSpaceOnUse" x1="287.9342" y1="166.7138" x2="265.1968" y2="227.3468">
		<stop  offset="0" style="stop-color:#790410"/>
		<stop  offset="1" style="stop-color:#BE1E2D"/>
	</linearGradient>
	<polygon fill="url(#SVGID_3_)" points="272.6,279.2 212.1,302.3 267,150.8 327.5,127.7 	"/>
	<linearGradient id="SVGID_4_" gradientUnits="userSpaceOnUse" x1="317.0478" y1="211.5425" x2="336.536" y2="303.2995">
		<stop  offset="0" style="stop-color:#F15A29"/>
		<stop  offset="1" style="stop-color:#C74A20"/>
	</linearGradient>
	<polygon fill="url(#SVGID_4_)" points="376.5,316.7 316,339.7 267,150.8 327.5,127.7 	"/>
</g>
<g>
	<polygon fill="#999999" points="169.4,316.5 109.1,339.5 123.3,348 222,348 	"/>
	<path fill="#999999" d="M428.9,347.7l-52.1-31.2l-60.3,23l14.1,8.5h98.2C428.8,347.9,428.8,347.8,428.9,347.7z"/>
</g>
</svg>
